<svg xmlns="http://www.w3.org/2000/svg" width="29" height="29" viewBox="0 0 29 29" fill="none">
  <path fill-rule="evenodd" clip-rule="evenodd" d="M14.9597 3.52734C9.14648 3.52734 4.42969 8.24414 4.42969 14.0573C4.42969 19.8706 9.14648 24.5873 14.9597 24.5873C20.7615 24.5873 25.4897 19.8706 25.4897 14.0573C25.4897 8.24414 20.7615 3.52734 14.9597 3.52734ZM21.915 8.38119C23.1712 9.91159 23.925 11.8645 23.9479 13.9774C23.6509 13.9203 20.6815 13.315 17.6893 13.6918C17.6207 13.5434 17.5636 13.3835 17.4951 13.2236C17.3123 12.7896 17.1069 12.3442 16.9012 11.9216C20.2132 10.574 21.7208 8.63245 21.915 8.38119ZM14.9597 5.08058C17.2439 5.08058 19.3338 5.93715 20.9214 7.34191C20.7615 7.57031 19.4024 9.38622 16.2046 10.5854C14.7313 7.87868 13.0981 5.66304 12.8469 5.32042C13.5206 5.16052 14.2288 5.08058 14.9597 5.08058ZM11.1337 5.92571C11.3736 6.2455 12.9724 8.47256 14.4686 11.1222C10.2657 12.2415 6.55396 12.2186 6.15423 12.2186C6.73669 9.43191 8.62113 7.11348 11.1337 5.92571ZM5.96008 14.0688C5.96008 13.9774 5.96008 13.8861 5.96008 13.7947C6.34838 13.806 10.7111 13.8632 15.1995 12.5155C15.4622 13.018 15.7021 13.532 15.9304 14.0459C15.8162 14.0802 15.6906 14.1144 15.5764 14.1487C10.9396 15.6448 8.47266 19.7335 8.26709 20.0761C6.83948 18.4886 5.96008 16.3758 5.96008 14.0688ZM14.9597 23.057C12.8811 23.057 10.9624 22.3489 9.44343 21.1611C9.60332 20.8299 11.4306 17.3123 16.5015 15.5421C16.5243 15.5306 16.5358 15.5306 16.5586 15.5193C17.8263 18.797 18.3403 21.5493 18.4773 22.3374C17.3924 22.8057 16.2046 23.057 14.9597 23.057ZM19.9734 21.5152C19.8821 20.9669 19.4024 18.3401 18.226 15.108C21.047 14.6626 23.5139 15.3936 23.8223 15.4964C23.434 17.9976 21.9949 20.1561 19.9734 21.5152Z" fill="#1fcf45"/>
</svg>