<svg width="323" height="296" viewBox="0 0 323 296" fill="none" xmlns="http://www.w3.org/2000/svg">
<path d="M55.2933 0H263.12V295.533H232.613V160.16H232.314C228.943 122.746 197.499 93.4267 159.207 93.4267C120.915 93.4267 89.4708 122.746 86.0993 160.16H85.8V295.533H55.2933V0Z" fill="#21CF45"/>
<path d="M0 41.9467L12.3933 83.8933H22.88V253.587C17.6149 253.587 13.3467 257.855 13.3467 263.12V274.56H11.44C6.17488 274.56 1.90667 278.828 1.90667 284.093V295.533H108.68V284.093C108.68 278.828 104.412 274.56 99.1467 274.56H97.24V263.12C97.24 257.855 92.9718 253.587 87.7067 253.587H76.2667V41.9467H0Z" fill="#21CF45"/>
<path d="M234.52 253.587C229.255 253.587 224.987 257.855 224.987 263.12V274.56H223.08C217.815 274.56 213.547 278.828 213.547 284.093V295.533H320.32V284.093C320.32 278.828 316.052 274.56 310.787 274.56H308.88V263.12C308.88 257.855 304.612 253.587 299.347 253.587V83.8933H309.833L322.227 41.9467H245.96V253.587H234.52Z" fill="#21CF45"/>
</svg>
