<svg width="29" height="29" viewBox="0 0 29 29" fill="none" xmlns="http://www.w3.org/2000/svg">
  <path fill-rule="evenodd" clip-rule="evenodd"
    d="M5.26477 3.8125C4.2955 3.8125 3.50977 4.59824 3.50977 5.5675V23.1175C3.50977 24.0867 4.2955 24.8725 5.26477 24.8725H22.8148C23.784 24.8725 24.5698 24.0867 24.5698 23.1175V5.5675C24.5698 4.59824 23.784 3.8125 22.8148 3.8125H5.26477ZM9.96905 8.49568C9.97564 9.61449 9.13818 10.3039 8.1444 10.2989C7.20822 10.294 6.39214 9.54868 6.39708 8.49733C6.40202 7.50849 7.18354 6.71381 8.1987 6.73685C9.22867 6.75988 9.97564 7.51508 9.96905 8.49568ZM14.367 11.7238H11.4186H11.417V21.7388H14.5332V21.5051C14.5332 21.0606 14.5328 20.616 14.5325 20.1713C14.5315 18.9852 14.5305 17.7977 14.5365 16.6119C14.5382 16.324 14.5513 16.0246 14.6253 15.7498C14.9033 14.7231 15.8265 14.0601 16.8564 14.223C17.5178 14.3266 17.9554 14.71 18.1397 15.3336C18.2533 15.7235 18.3043 16.143 18.3092 16.5495C18.3226 17.7752 18.3207 19.0009 18.3188 20.2267C18.3181 20.6593 18.3174 21.0922 18.3174 21.5249V21.7371H21.4435V21.4969C21.4435 20.9681 21.4433 20.4394 21.4429 19.9106C21.4424 18.5891 21.4417 17.2676 21.4452 15.9456C21.4468 15.3483 21.3827 14.7594 21.2362 14.1819C21.0174 13.323 20.565 12.6122 19.8295 12.0989C19.3079 11.7336 18.7353 11.4983 18.0953 11.472C18.0224 11.469 17.949 11.465 17.8751 11.461C17.5479 11.4433 17.2153 11.4254 16.9024 11.4885C16.0074 11.6678 15.221 12.0775 14.627 12.7997C14.558 12.8826 14.4904 12.9667 14.3897 13.0922L14.367 13.1207V11.7238ZM6.64728 21.742H9.7487V11.7303H6.64728V21.742Z"
    fill="#EBFAF8" />
</svg>