<svg width="298" height="72" viewBox="0 0 298 72" fill="none" xmlns="http://www.w3.org/2000/svg">
<path d="M46.538 48.784V58H14.602V12.56H45.962V21.776H25.098V30.608H43.018V39.12H25.098V48.784H46.538ZM64.6965 58.64C61.8378 58.64 59.0432 58.1707 56.3125 57.232C53.5818 56.2933 51.2778 54.9067 49.4005 53.072L52.9205 46.608C54.9685 48.1013 56.9525 49.232 58.8725 50C60.8352 50.768 62.6698 51.152 64.3765 51.152C65.6992 51.152 66.7232 50.9387 67.4485 50.512C68.1738 50.0853 68.5365 49.424 68.5365 48.528C68.5365 47.888 68.3232 47.3973 67.8965 47.056C67.4698 46.672 66.8085 46.3307 65.9125 46.032C65.0592 45.7333 63.9925 45.4133 62.7125 45.072C60.1525 44.2187 58.0192 43.3867 56.3125 42.576C54.6058 41.7653 53.3258 40.784 52.4725 39.632C51.6192 38.4373 51.1925 36.9013 51.1925 35.024C51.1925 32.7627 51.7472 30.8 52.8565 29.136C54.0085 27.4293 55.6298 26.1067 57.7205 25.168C59.8112 24.2293 62.3072 23.76 65.2085 23.76C67.5125 23.76 69.7525 24.1227 71.9285 24.848C74.1472 25.5733 76.2165 26.7893 78.1365 28.496L74.1685 34.896C72.2485 33.5733 70.5418 32.6133 69.0485 32.016C67.5552 31.4187 66.1045 31.12 64.6965 31.12C63.9712 31.12 63.3098 31.2053 62.7125 31.376C62.1152 31.5467 61.6245 31.8453 61.2405 32.272C60.8992 32.656 60.7285 33.168 60.7285 33.808C60.7285 34.448 60.8992 34.96 61.2405 35.344C61.6245 35.728 62.2005 36.0693 62.9685 36.368C63.7792 36.624 64.7818 36.944 65.9765 37.328C68.7498 38.1387 71.0538 38.9707 72.8885 39.824C74.7232 40.6347 76.0885 41.6587 76.9845 42.896C77.9232 44.0907 78.3925 45.6907 78.3925 47.696C78.3925 51.1093 77.1552 53.7973 74.6805 55.76C72.2485 57.68 68.9205 58.64 64.6965 58.64ZM104.893 58.64C102.376 58.64 100.178 58.1067 98.301 57.04C96.4237 55.9307 94.9517 54.4373 93.885 52.56V71.632H83.645V24.4H92.541V29.84C93.7783 27.92 95.3357 26.4267 97.213 25.36C99.0903 24.2933 101.288 23.76 103.805 23.76C106.066 23.76 108.136 24.208 110.013 25.104C111.933 26 113.597 27.2373 115.005 28.816C116.413 30.3947 117.501 32.2293 118.269 34.32C119.037 36.4107 119.421 38.672 119.421 41.104C119.421 44.432 118.802 47.4187 117.565 50.064C116.328 52.7093 114.6 54.8 112.381 56.336C110.205 57.872 107.709 58.64 104.893 58.64ZM101.437 50C102.546 50 103.549 49.7653 104.445 49.296C105.384 48.784 106.194 48.1227 106.877 47.312C107.56 46.5013 108.072 45.5627 108.413 44.496C108.797 43.3867 108.989 42.2347 108.989 41.04C108.989 39.8027 108.776 38.672 108.349 37.648C107.965 36.624 107.41 35.728 106.685 34.96C105.96 34.1493 105.106 33.5307 104.125 33.104C103.144 32.6773 102.077 32.464 100.925 32.464C100.242 32.464 99.5383 32.5707 98.813 32.784C98.1303 32.9973 97.469 33.3173 96.829 33.744C96.2317 34.128 95.677 34.5973 95.165 35.152C94.653 35.7067 94.2263 36.3467 93.885 37.072V43.984C94.3543 45.136 94.973 46.16 95.741 47.056C96.509 47.952 97.3837 48.6773 98.365 49.232C99.3463 49.744 100.37 50 101.437 50ZM145.895 33.168C143.42 33.168 141.18 33.5733 139.175 34.384C137.169 35.152 135.719 36.304 134.823 37.84V58H124.583V24.4H133.991V31.184C135.143 28.9227 136.636 27.152 138.471 25.872C140.305 24.592 142.225 23.9307 144.231 23.888C144.7 23.888 145.041 23.888 145.255 23.888C145.511 23.888 145.724 23.9093 145.895 23.952V33.168ZM166.022 58.64C163.163 58.64 160.624 58.192 158.406 57.296C156.187 56.3573 154.288 55.0987 152.71 53.52C151.174 51.9413 150 50.128 149.19 48.08C148.379 45.9893 147.974 43.8133 147.974 41.552C147.974 38.3093 148.678 35.3653 150.086 32.72C151.536 30.032 153.606 27.8773 156.294 26.256C158.982 24.592 162.224 23.76 166.022 23.76C169.819 23.76 173.04 24.5707 175.686 26.192C178.374 27.8133 180.422 29.9467 181.83 32.592C183.238 35.1947 183.942 38.032 183.942 41.104C183.942 41.7013 183.899 42.2987 183.814 42.896C183.771 43.4507 183.728 43.9413 183.686 44.368H158.854C158.982 45.8613 159.387 47.12 160.07 48.144C160.795 49.168 161.712 49.9573 162.822 50.512C163.931 51.024 165.104 51.28 166.342 51.28C167.878 51.28 169.307 50.9173 170.63 50.192C171.995 49.4667 172.934 48.4853 173.446 47.248L182.15 49.68C181.296 51.4293 180.08 52.9867 178.502 54.352C176.966 55.6747 175.131 56.72 172.998 57.488C170.907 58.256 168.582 58.64 166.022 58.64ZM158.598 38.096H173.19C173.019 36.688 172.614 35.472 171.974 34.448C171.334 33.3813 170.48 32.5707 169.414 32.016C168.347 31.4187 167.174 31.12 165.894 31.12C164.571 31.12 163.376 31.4187 162.31 32.016C161.286 32.5707 160.454 33.3813 159.814 34.448C159.174 35.472 158.768 36.688 158.598 38.096ZM201.447 58.64C198.588 58.64 195.793 58.1707 193.062 57.232C190.332 56.2933 188.028 54.9067 186.151 53.072L189.671 46.608C191.719 48.1013 193.703 49.232 195.623 50C197.585 50.768 199.42 51.152 201.127 51.152C202.449 51.152 203.473 50.9387 204.199 50.512C204.924 50.0853 205.287 49.424 205.287 48.528C205.287 47.888 205.073 47.3973 204.647 47.056C204.22 46.672 203.559 46.3307 202.663 46.032C201.809 45.7333 200.743 45.4133 199.463 45.072C196.903 44.2187 194.769 43.3867 193.062 42.576C191.356 41.7653 190.076 40.784 189.223 39.632C188.369 38.4373 187.943 36.9013 187.943 35.024C187.943 32.7627 188.497 30.8 189.607 29.136C190.759 27.4293 192.38 26.1067 194.47 25.168C196.561 24.2293 199.057 23.76 201.958 23.76C204.263 23.76 206.503 24.1227 208.679 24.848C210.897 25.5733 212.967 26.7893 214.887 28.496L210.919 34.896C208.999 33.5733 207.292 32.6133 205.799 32.016C204.305 31.4187 202.855 31.12 201.447 31.12C200.721 31.12 200.06 31.2053 199.463 31.376C198.865 31.5467 198.375 31.8453 197.991 32.272C197.649 32.656 197.479 33.168 197.479 33.808C197.479 34.448 197.649 34.96 197.991 35.344C198.375 35.728 198.951 36.0693 199.719 36.368C200.529 36.624 201.532 36.944 202.727 37.328C205.5 38.1387 207.804 38.9707 209.639 39.824C211.473 40.6347 212.839 41.6587 213.735 42.896C214.673 44.0907 215.143 45.6907 215.143 47.696C215.143 51.1093 213.905 53.7973 211.431 55.76C208.999 57.68 205.671 58.64 201.447 58.64ZM233.259 58.64C230.4 58.64 227.606 58.1707 224.875 57.232C222.144 56.2933 219.84 54.9067 217.963 53.072L221.483 46.608C223.531 48.1013 225.515 49.232 227.435 50C229.398 50.768 231.232 51.152 232.939 51.152C234.262 51.152 235.286 50.9387 236.011 50.512C236.736 50.0853 237.099 49.424 237.099 48.528C237.099 47.888 236.886 47.3973 236.459 47.056C236.032 46.672 235.371 46.3307 234.475 46.032C233.622 45.7333 232.555 45.4133 231.275 45.072C228.715 44.2187 226.582 43.3867 224.875 42.576C223.168 41.7653 221.888 40.784 221.035 39.632C220.182 38.4373 219.755 36.9013 219.755 35.024C219.755 32.7627 220.31 30.8 221.419 29.136C222.571 27.4293 224.192 26.1067 226.283 25.168C228.374 24.2293 230.87 23.76 233.771 23.76C236.075 23.76 238.315 24.1227 240.491 24.848C242.71 25.5733 244.779 26.7893 246.699 28.496L242.731 34.896C240.811 33.5733 239.104 32.6133 237.611 32.016C236.118 31.4187 234.667 31.12 233.259 31.12C232.534 31.12 231.872 31.2053 231.275 31.376C230.678 31.5467 230.187 31.8453 229.803 32.272C229.462 32.656 229.291 33.168 229.291 33.808C229.291 34.448 229.462 34.96 229.803 35.344C230.187 35.728 230.763 36.0693 231.531 36.368C232.342 36.624 233.344 36.944 234.539 37.328C237.312 38.1387 239.616 38.9707 241.451 39.824C243.286 40.6347 244.651 41.6587 245.547 42.896C246.486 44.0907 246.955 45.6907 246.955 47.696C246.955 51.1093 245.718 53.7973 243.243 55.76C240.811 57.68 237.483 58.64 233.259 58.64ZM268.208 58.64C265.349 58.64 262.789 58.1707 260.528 57.232C258.309 56.2933 256.432 55.0133 254.896 53.392C253.36 51.7707 252.186 49.9147 251.376 47.824C250.608 45.7333 250.224 43.536 250.224 41.232C250.224 38.8853 250.608 36.6667 251.376 34.576C252.186 32.4853 253.36 30.6293 254.896 29.008C256.432 27.3867 258.309 26.1067 260.528 25.168C262.789 24.2293 265.349 23.76 268.208 23.76C271.066 23.76 273.605 24.2293 275.824 25.168C278.042 26.1067 279.92 27.3867 281.456 29.008C282.992 30.6293 284.165 32.4853 284.976 34.576C285.786 36.6667 286.192 38.8853 286.192 41.232C286.192 43.536 285.786 45.7333 284.976 47.824C284.165 49.9147 282.992 51.7707 281.456 53.392C279.92 55.0133 278.042 56.2933 275.824 57.232C273.605 58.1707 271.066 58.64 268.208 58.64ZM260.72 41.232C260.72 42.9813 261.04 44.5173 261.68 45.84C262.362 47.1627 263.258 48.1867 264.368 48.912C265.477 49.6373 266.757 50 268.208 50C269.616 50 270.874 49.6373 271.984 48.912C273.136 48.144 274.032 47.0987 274.672 45.776C275.312 44.4533 275.632 42.9387 275.632 41.232C275.632 39.4827 275.312 37.9467 274.672 36.624C274.032 35.3013 273.136 34.2773 271.984 33.552C270.874 32.8267 269.616 32.464 268.208 32.464C266.757 32.464 265.477 32.8267 264.368 33.552C263.258 34.2773 262.362 35.3013 261.68 36.624C261.04 37.9467 260.72 39.4827 260.72 41.232Z" fill="white"/>
</svg>
