<svg width="391" height="92" viewBox="0 0 391 92" fill="none" xmlns="http://www.w3.org/2000/svg">
<path d="M52.0826 72.7776C47.741 72.7776 44.3066 71.6436 41.7794 69.3756C39.2522 67.1076 37.9886 64.3212 37.9886 61.0164V23.6916C37.9886 21.5532 37.7942 19.7064 37.4054 18.1512C37.0814 16.596 36.401 15.3972 35.3642 14.5548C34.3274 13.6476 32.8046 13.194 30.7958 13.194C28.9166 13.194 27.3938 13.6152 26.2274 14.4576C25.1258 15.3 24.3158 16.434 23.7974 17.8596C23.279 19.2852 23.0198 20.97 23.0198 22.914V25.1496H30.6986V36.9108H23.0198V72H7.4678V36.9108H0.955401V25.1496H7.4678V19.512C7.4678 15.1704 8.4074 11.574 10.2866 8.7228C12.1658 5.8068 14.8226 3.636 18.257 2.2104C21.6914 0.7848 25.6766 0.0720013 30.2126 0.0720013C38.3126 0.0720013 44.2094 1.9512 47.903 5.7096C51.6614 9.468 53.5406 14.4576 53.5406 20.6784V53.2404C53.5406 54.9252 53.8646 56.3184 54.5126 57.42C55.2254 58.4568 56.2946 58.9752 57.7202 58.9752C58.8866 58.9752 60.0854 58.7484 61.3166 58.2948C62.5478 57.8412 63.3254 57.5496 63.6494 57.42L65.5934 69.9588C65.3342 70.0884 64.4594 70.4124 62.969 70.9308C61.5434 71.3844 59.8586 71.8056 57.9146 72.1944C56.0354 72.5832 54.0914 72.7776 52.0826 72.7776ZM70.2172 53.6292V20.97H85.7692V50.2272C85.7692 53.3376 86.3848 55.7352 87.616 57.42C88.8472 59.04 90.5968 59.85 92.8648 59.85C94.2904 59.85 95.6512 59.6232 96.9472 59.1696C98.2432 58.6512 99.5068 57.8412 100.738 56.7396C101.969 55.638 103.071 54.2124 104.043 52.4628V20.97H119.595V54.6984C119.595 56.2536 119.822 57.3552 120.275 58.0032C120.794 58.5864 121.668 58.9428 122.9 59.0724V72C121.474 72.2592 120.21 72.4536 119.109 72.5832C118.072 72.7128 117.132 72.7776 116.29 72.7776C113.568 72.7776 111.398 72.2268 109.778 71.1252C108.158 69.9588 107.153 68.3388 106.764 66.2652L106.473 63.1548C104.14 66.5244 101.224 69.0192 97.7248 70.6392C94.2904 72.1944 90.4348 72.972 86.158 72.972C80.974 72.972 77.0212 71.3196 74.2996 68.0148C71.578 64.71 70.2172 59.9148 70.2172 53.6292ZM131.643 72V20.97H147.195V72H131.643ZM131.643 15.138V1.044H147.195V15.138H131.643ZM154.926 46.4364C154.926 41.4468 155.898 36.9756 157.842 33.0228C159.786 29.0052 162.442 25.83 165.812 23.4972C169.182 21.1644 173.07 19.998 177.476 19.998C181.04 19.998 184.28 20.8728 187.196 22.6224C190.112 24.3072 192.315 26.5428 193.806 29.3292V1.044H209.358V54.6984C209.358 56.2536 209.617 57.3552 210.135 58.0032C210.654 58.5864 211.496 58.9428 212.662 59.0724V72C209.941 72.5184 207.738 72.7776 206.053 72.7776C203.396 72.7776 201.225 72.1944 199.54 71.028C197.92 69.8616 196.916 68.2416 196.527 66.168L196.236 63.5436C194.421 66.7188 191.959 69.084 188.848 70.6392C185.738 72.1944 182.466 72.972 179.031 72.972C175.532 72.972 172.292 72.324 169.311 71.028C166.395 69.6672 163.836 67.788 161.632 65.3904C159.494 62.9928 157.842 60.174 156.675 56.934C155.509 53.694 154.926 50.1948 154.926 46.4364ZM193.903 52.7544V42.0624C193.255 40.3128 192.315 38.79 191.084 37.494C189.918 36.198 188.557 35.1612 187.002 34.3836C185.511 33.606 183.988 33.2172 182.433 33.2172C180.748 33.2172 179.193 33.5736 177.768 34.2864C176.407 34.9992 175.208 36.0036 174.171 37.2996C173.134 38.5308 172.324 39.9564 171.741 41.5764C171.223 43.1964 170.964 44.9136 170.964 46.728C170.964 48.6072 171.255 50.3568 171.838 51.9768C172.486 53.532 173.361 54.9252 174.463 56.1564C175.564 57.3228 176.86 58.23 178.351 58.878C179.841 59.526 181.461 59.85 183.211 59.85C184.312 59.85 185.382 59.688 186.418 59.364C187.455 58.9752 188.427 58.4892 189.334 57.906C190.306 57.3228 191.181 56.5776 191.959 55.6704C192.736 54.7632 193.384 53.7912 193.903 52.7544Z" fill="#0061FF"/>
<path d="M221.443 91.8818V18.9818H238.15V28.0598H238.667C239.358 26.449 240.336 24.8957 241.601 23.4C242.89 21.9043 244.524 20.6847 246.503 19.7412C248.505 18.7747 250.898 18.2915 253.682 18.2915C257.364 18.2915 260.804 19.258 264.003 21.1909C267.224 23.1239 269.825 26.1038 271.804 30.1308C273.783 34.1578 274.772 39.2893 274.772 45.5254C274.772 51.5314 273.817 56.5594 271.907 60.6094C270.02 64.6594 267.466 67.6969 264.244 69.7219C261.046 71.7469 257.491 72.7594 253.579 72.7594C250.909 72.7594 248.597 72.3222 246.641 71.4477C244.685 70.5733 243.039 69.4227 241.705 67.996C240.393 66.5693 239.381 65.0391 238.667 63.4053H238.322V91.8818H221.443ZM237.977 45.4909C237.977 48.3443 238.357 50.8295 239.116 52.9466C239.898 55.0636 241.014 56.7089 242.464 57.8825C243.937 59.0331 245.697 59.6084 247.745 59.6084C249.816 59.6084 251.577 59.0331 253.026 57.8825C254.476 56.7089 255.569 55.0636 256.305 52.9466C257.065 50.8295 257.445 48.3443 257.445 45.4909C257.445 42.6375 257.065 40.1638 256.305 38.0697C255.569 35.9757 254.476 34.3534 253.026 33.2028C251.6 32.0523 249.839 31.477 247.745 31.477C245.674 31.477 243.914 32.0408 242.464 33.1683C241.014 34.2959 239.898 35.9067 239.116 38.0007C238.357 40.0947 237.977 42.5915 237.977 45.4909ZM298.563 72.8974C295.18 72.8974 292.177 72.3337 289.554 71.2061C286.954 70.0555 284.894 68.3297 283.375 66.0286C281.88 63.7044 281.132 60.7935 281.132 57.2957C281.132 54.3503 281.65 51.8651 282.685 49.8401C283.721 47.8151 285.147 46.1697 286.965 44.9041C288.783 43.6385 290.877 42.6835 293.247 42.0392C295.618 41.3719 298.149 40.9232 300.841 40.693C303.856 40.4169 306.283 40.1293 308.124 39.8301C309.965 39.508 311.3 39.0592 312.128 38.4839C312.98 37.8857 313.405 37.0457 313.405 35.9642V35.7916C313.405 34.0197 312.796 32.6506 311.576 31.6841C310.356 30.7176 308.711 30.2344 306.64 30.2344C304.408 30.2344 302.613 30.7176 301.255 31.6841C299.898 32.6506 299.035 33.9852 298.667 35.6881L283.099 35.1358C283.56 31.9142 284.745 29.0378 286.655 26.5065C288.588 23.9523 291.234 21.9503 294.594 20.5006C297.976 19.0278 302.038 18.2915 306.778 18.2915C310.161 18.2915 313.279 18.6942 316.132 19.4996C318.986 20.282 321.471 21.4325 323.588 22.9513C325.705 24.447 327.339 26.2879 328.489 28.474C329.663 30.6601 330.25 33.1568 330.25 35.9642V72H314.372V64.6134H313.958C313.014 66.4082 311.806 67.927 310.333 69.1696C308.884 70.4122 307.169 71.3442 305.19 71.9655C303.234 72.5868 301.025 72.8974 298.563 72.8974ZM303.775 61.852C305.593 61.852 307.227 61.4838 308.676 60.7474C310.149 60.0111 311.323 58.9986 312.197 57.7099C313.072 56.3983 313.509 54.8795 313.509 53.1537V48.1142C313.026 48.3673 312.439 48.5974 311.749 48.8045C311.081 49.0116 310.345 49.2072 309.539 49.3913C308.734 49.5754 307.906 49.7365 307.054 49.8746C306.203 50.0126 305.386 50.1392 304.603 50.2543C303.016 50.5074 301.658 50.8986 300.53 51.4278C299.426 51.9571 298.574 52.6474 297.976 53.4989C297.401 54.3273 297.113 55.3168 297.113 56.4673C297.113 58.2162 297.735 59.5509 298.977 60.4713C300.243 61.3918 301.842 61.852 303.775 61.852ZM348.992 91.8818C346.967 91.8818 345.057 91.7207 343.263 91.3986C341.468 91.0994 339.926 90.6967 338.637 90.1905L342.365 77.9369C344.022 78.4892 345.518 78.8114 346.852 78.9034C348.21 78.9955 349.372 78.7768 350.339 78.2476C351.328 77.7413 352.087 76.8324 352.617 75.5207L353.273 73.933L334.426 18.9818H352.099L361.867 56.8125H362.42L372.326 18.9818H390.102L370.117 77.074C369.15 79.9734 367.781 82.5277 366.009 84.7368C364.26 86.9689 361.994 88.7178 359.209 89.9834C356.448 91.249 353.042 91.8818 348.992 91.8818Z" fill="#FAFBFA"/>
</svg>
