<svg width="2424" height="425" viewBox="0 0 2424 425" fill="none" xmlns="http://www.w3.org/2000/svg">
<path d="M76.5975 424.84H0.856442V86.0247H71.0432V155.202H76.0926C85.1815 106.727 117.498 80.9753 177.081 80.9753C254.842 80.9753 298.267 132.479 298.267 212.765C298.267 293.05 255.851 344.049 179.605 344.049C121.032 344.049 88.7161 315.268 80.1321 270.833H76.5975V424.84ZM76.5975 216.299C76.5975 259.724 102.854 274.873 150.319 274.873C198.793 274.873 221.516 258.714 221.516 212.765C221.516 166.31 198.793 150.657 150.824 150.657C101.845 150.657 76.5975 167.32 76.5975 212.26V216.299ZM407.519 344.049C352.986 344.049 320.164 318.802 320.164 276.387C320.164 239.022 347.936 215.794 401.965 210.24L510.527 199.131V189.538C510.527 156.716 495.884 147.627 455.488 147.627C417.113 147.627 401.46 157.726 401.46 186.508V188.528H325.214V187.013C325.214 124.4 377.728 80.9753 461.043 80.9753C545.368 80.9753 585.258 124.4 585.258 190.547V339H514.567V280.932H510.527C498.913 320.317 463.568 344.049 407.519 344.049ZM396.41 271.338C396.41 284.971 407.014 290.526 429.232 290.526C480.736 290.526 508.507 278.407 510.527 242.556L422.667 252.655C404.489 254.17 396.41 259.219 396.41 271.338ZM699.391 424.84H623.65V86.0247H693.836V155.202H698.886C707.975 106.727 740.291 80.9753 799.874 80.9753C877.635 80.9753 921.06 132.479 921.06 212.765C921.06 293.05 878.645 344.049 802.399 344.049C743.825 344.049 711.509 315.268 702.925 270.833H699.391V424.84ZM699.391 216.299C699.391 259.724 725.648 274.873 773.112 274.873C821.586 274.873 844.309 258.714 844.309 212.765C844.309 166.31 821.586 150.657 773.617 150.657C724.638 150.657 699.391 167.32 699.391 212.26V216.299ZM1030.31 344.049C975.779 344.049 942.957 318.802 942.957 276.387C942.957 239.022 970.729 215.794 1024.76 210.24L1133.32 199.131V189.538C1133.32 156.716 1118.68 147.627 1078.28 147.627C1039.91 147.627 1024.25 157.726 1024.25 186.508V188.528H948.007V187.013C948.007 124.4 1000.52 80.9753 1083.84 80.9753C1168.16 80.9753 1208.05 124.4 1208.05 190.547V339H1137.36V280.932H1133.32C1121.71 320.317 1086.36 344.049 1030.31 344.049ZM1019.2 271.338C1019.2 284.971 1029.81 290.526 1052.02 290.526C1103.53 290.526 1131.3 278.407 1133.32 242.556L1045.46 252.655C1027.28 254.17 1019.2 259.219 1019.2 271.338ZM1316.63 339H1246.44V0.68974H1322.18V153.182H1326.22C1334.81 110.767 1365.61 80.9753 1425.7 80.9753C1501.44 80.9753 1543.85 131.974 1543.85 212.765C1543.85 292.545 1500.93 344.049 1422.16 344.049C1363.59 344.049 1330.26 318.802 1321.17 268.813H1316.63V339ZM1322.18 214.28C1322.18 258.209 1347.94 274.873 1395.91 274.873C1444.88 274.873 1467.1 258.714 1467.1 212.765C1467.1 166.31 1444.88 150.152 1396.41 150.152C1347.43 150.152 1322.18 166.31 1322.18 210.24V214.28ZM1653.11 344.049C1598.57 344.049 1565.75 318.802 1565.75 276.387C1565.75 239.022 1593.52 215.794 1647.55 210.24L1756.11 199.131V189.538C1756.11 156.716 1741.47 147.627 1701.07 147.627C1662.7 147.627 1647.05 157.726 1647.05 186.508V188.528H1570.8V187.013C1570.8 124.4 1623.31 80.9753 1706.63 80.9753C1790.95 80.9753 1830.84 124.4 1830.84 190.547V339H1760.15V280.932H1756.11C1744.5 320.317 1709.15 344.049 1653.11 344.049ZM1642 271.338C1642 284.971 1652.6 290.526 1674.82 290.526C1726.32 290.526 1754.09 278.407 1756.11 242.556L1668.25 252.655C1650.08 254.17 1642 259.219 1642 271.338ZM1996.99 344.049C1911.65 344.049 1864.69 310.723 1864.69 252.15V250.635H1940.43V255.18C1940.43 277.902 1954.57 283.961 1997.49 283.961C2037.89 283.961 2047.48 277.397 2047.48 262.249C2047.48 248.111 2039.91 244.071 2010.11 240.032L1938.92 231.448C1888.42 225.893 1860.15 203.171 1860.15 160.756C1860.15 116.321 1898.02 80.9753 1984.87 80.9753C2067.68 80.9753 2114.64 112.282 2114.64 173.884V175.399H2038.9V172.37C2038.9 151.667 2028.8 141.063 1982.34 141.063C1944.47 141.063 1934.88 147.627 1934.88 163.786C1934.88 176.914 1941.95 182.468 1975.27 186.508L2029.3 193.072C2096.96 200.646 2122.21 223.369 2122.21 265.279C2122.21 312.743 2075.25 344.049 1996.99 344.049ZM2287.09 344.049C2202.76 344.049 2145.2 302.644 2145.2 212.765C2145.2 131.974 2202.26 80.9753 2285.57 80.9753C2368.38 80.9753 2423.42 124.4 2423.42 203.676C2423.42 212.765 2422.41 219.329 2421.4 227.913H2215.38C2217.4 266.793 2235.58 283.457 2284.56 283.457C2329.5 283.457 2345.15 271.843 2345.15 250.13V245.081H2420.9V250.635C2420.9 305.674 2367.37 344.049 2287.09 344.049ZM2284.06 140.053C2239.12 140.053 2219.93 155.202 2216.39 188.023H2350.71C2348.69 154.697 2328.49 140.053 2284.06 140.053Z" fill="#1A51FA"/>
</svg>
