<svg width="155" height="29" viewBox="0 0 155 29" fill="none" xmlns="http://www.w3.org/2000/svg">
<g clip-path="url(#clip0_3427_658)">
<path d="M30.5198 20.1217C30.1785 18.3899 29.0708 16.8921 27.4902 16.032C26.6939 15.599 25.8018 15.3709 24.8917 15.365C22.868 15.3241 21.0239 16.4884 20.2276 18.3021C19.8085 19.2968 19.8085 20.4143 20.2276 21.4089C20.5749 22.3099 21.2754 23.0354 22.1735 23.4216C22.5626 23.5795 22.9758 23.6615 23.4009 23.6673C24.6702 23.72 25.7958 22.8775 26.0712 21.6663C26.2329 20.9759 25.9155 20.268 25.2929 19.9052C25.1312 19.8175 24.9516 19.7707 24.766 19.7648C24.5684 19.759 24.3768 19.8292 24.2391 19.9696C24.1972 20.0106 24.1613 20.0632 24.1433 20.1217C24.1912 20.151 24.2451 20.1744 24.299 20.1978C24.6522 20.3148 24.9276 20.6015 25.0174 20.9584C25.0773 21.2685 24.9755 21.5903 24.742 21.8126C24.4067 22.1402 23.9756 22.345 23.5086 22.4035H23.353C22.3052 22.3275 21.455 21.5493 21.3053 20.5313C20.97 18.8696 21.9998 17.2373 23.6703 16.7868C24.0535 16.6697 24.4486 16.6112 24.8498 16.6112C26.6639 16.658 28.2685 17.7638 28.9212 19.4196C29.46 20.7127 29.4301 22.1637 28.8373 23.4333C28.2087 24.8316 27.0292 25.9199 25.5623 26.4464C24.8678 26.698 24.1313 26.8267 23.3889 26.8326C20.2875 26.7916 17.6171 24.6795 16.9346 21.719C16.1443 18.8345 17.2399 15.7746 19.6947 13.9959C21.1437 12.8726 22.1974 11.3338 22.7003 9.59611C23.2751 7.64779 23.0356 5.5532 22.0298 3.77456C21.0898 2.06027 19.4792 0.796494 17.5632 0.26407C16.9406 0.0885462 16.2939 0.000784029 15.6473 0.000784029C12.6117 -0.0460224 9.95937 2.00761 9.30676 4.90376C8.93555 6.47178 9.30676 8.11586 10.3126 9.38548C11.2646 10.5673 12.7195 11.2636 14.2583 11.2577C14.4558 11.2694 14.6474 11.2694 14.845 11.2577C15.9347 11.1407 16.9286 10.5908 17.5932 9.74238C18.2099 8.96423 18.4913 7.97544 18.3715 6.99835C18.2218 5.67607 17.1441 4.63463 15.785 4.50591H15.6114C14.7013 4.4825 13.905 5.08514 13.6954 5.94521C13.5937 6.39572 13.8391 6.85208 14.2822 7.02176H14.4079C14.4379 7.02761 14.4678 7.02761 14.4918 7.02176C14.4977 6.97495 14.4977 6.92229 14.4918 6.86964C14.4259 6.55954 14.5037 6.23775 14.7013 5.99201C14.8869 5.75798 15.1743 5.62926 15.4797 5.63511H15.6593C16.2939 5.71117 16.8208 6.15584 16.9885 6.75847C17.2998 7.64779 17.0184 8.63073 16.282 9.22751C15.7251 9.71313 15.0007 9.97642 14.2523 9.96471C13.5757 9.97056 12.9051 9.78334 12.3363 9.42059C11.3784 8.8004 10.7317 7.81162 10.5761 6.69411C10.3845 5.45374 10.7317 4.18996 11.534 3.21288C12.5339 2.01346 14.0367 1.32892 15.6174 1.34062C17.1022 1.34647 18.5332 1.914 19.6049 2.92034C20.9461 4.18411 21.6645 5.95691 21.5688 7.77651C21.4789 9.74238 20.515 11.5678 18.9343 12.7848C17.6231 13.8438 15.9706 14.4289 14.2702 14.4406C13.1746 14.4289 12.0909 14.2241 11.073 13.8321C10.0671 13.4518 9.00141 13.2529 7.92369 13.2412C6.49871 13.2529 5.09769 13.6215 3.8643 14.3177C2.08607 15.3124 0.786829 16.9623 0.259947 18.893C-0.254961 20.7127 0.00249273 22.6551 0.966448 24.2875C2.122 26.2241 4.23551 27.4294 6.53464 27.4528C7.79197 27.4586 9.01937 27.0725 10.0432 26.347C11.1987 25.5396 11.9711 24.3109 12.1867 22.9418C12.3902 21.6956 12.0849 20.426 11.3245 19.4021C10.5521 18.3489 9.30676 17.7229 7.98356 17.7053C7.14534 17.6995 6.32508 17.9745 5.67247 18.4893C5.01985 19.0101 4.62469 19.7765 4.5708 20.5956C4.49896 21.2802 4.73845 21.9647 5.22342 22.4679C5.57667 22.8423 6.07362 23.0588 6.59451 23.0647C6.83999 23.0647 7.08547 23.0062 7.30101 22.895C7.66025 22.7195 7.86981 22.345 7.8279 21.9589C7.8279 21.8653 7.76203 21.7833 7.67223 21.7541C7.61235 21.7658 7.55847 21.7892 7.51656 21.8302C7.31897 21.9998 7.06751 22.0934 6.81005 22.0993C6.37897 22.0934 6.00177 21.8302 5.85209 21.4323C5.54673 20.6073 5.91795 19.6888 6.71426 19.2909C7.08547 19.0744 7.51057 18.9633 7.94165 18.9633C8.58828 18.9691 9.21096 19.1914 9.70192 19.5893C10.7557 20.4728 11.1628 21.8887 10.7377 23.1817C10.1629 24.9779 8.4386 26.189 6.51069 26.1422C5.85209 26.1422 5.19947 26.0135 4.59475 25.7561C3.19971 25.1651 2.122 24.0242 1.63703 22.6083C1.11014 21.0988 1.24186 19.443 1.99028 18.033C3.1578 15.8623 5.4689 14.5108 7.97758 14.5342C9.36064 14.5342 10.7078 14.9321 11.8693 15.6693C13.8691 16.9447 15.1743 19.0218 15.4318 21.3445C16.0604 25.2587 19.5331 28.1256 23.5805 28.0847C25.8137 28.0613 27.9153 27.0257 29.2505 25.2763C30.412 23.8311 30.879 21.9472 30.5198 20.1217Z" fill="#D9D9D9"/>
<path d="M41.673 24.6248H39L46.7311 3.2915H49.363L57.0941 24.6248H54.4211L48.1293 6.6665H47.9648L41.673 24.6248ZM42.6599 16.2915H53.4341V18.5831H42.6599V16.2915Z" fill="#D9D9D9"/>
<path d="M60.374 24.6248V3.2915H62.9237V13.8748H63.1704L72.6287 3.2915H75.9596L67.1182 12.9165L75.9596 24.6248H72.8754L65.5555 14.7081L62.9237 17.7081V24.6248H60.374Z" fill="#D9D9D9"/>
<path d="M80.1232 24.6248H77.4502L85.1813 3.2915H87.8132L95.5443 24.6248H92.8713L86.5795 6.6665H86.415L80.1232 24.6248ZM81.1102 16.2915H91.8844V18.5831H81.1102V16.2915Z" fill="#D9D9D9"/>
<path d="M110.338 8.625C110.215 7.56944 109.714 6.75 108.837 6.16667C107.96 5.58333 106.884 5.29167 105.609 5.29167C104.677 5.29167 103.861 5.44444 103.162 5.75C102.47 6.05556 101.928 6.47569 101.538 7.01042C101.154 7.54514 100.962 8.15278 100.962 8.83333C100.962 9.40278 101.096 9.89236 101.363 10.3021C101.637 10.7049 101.987 11.0417 102.412 11.3125C102.836 11.5764 103.282 11.7951 103.748 11.9688C104.214 12.1354 104.642 12.2708 105.033 12.375L107.171 12.9583C107.72 13.1042 108.33 13.3056 109.001 13.5625C109.68 13.8194 110.328 14.1701 110.945 14.6146C111.568 15.0521 112.082 15.6146 112.487 16.3021C112.891 16.9896 113.093 17.8333 113.093 18.8333C113.093 19.9861 112.795 21.0278 112.199 21.9583C111.609 22.8889 110.746 23.6285 109.608 24.1771C108.477 24.7257 107.103 25 105.485 25C103.978 25 102.672 24.7535 101.568 24.2604C100.472 23.7674 99.6084 23.0799 98.9779 22.1979C98.3542 21.316 98.0012 20.2917 97.9189 19.125H100.551C100.619 19.9306 100.887 20.5972 101.353 21.125C101.826 21.6458 102.422 22.0347 103.141 22.2917C103.868 22.5417 104.649 22.6667 105.485 22.6667C106.459 22.6667 107.333 22.5069 108.107 22.1875C108.882 21.8611 109.495 21.4097 109.947 20.8333C110.4 20.25 110.626 19.5694 110.626 18.7917C110.626 18.0833 110.43 17.5069 110.04 17.0625C109.649 16.6181 109.135 16.2569 108.498 15.9792C107.86 15.7014 107.171 15.4583 106.431 15.25L103.841 14.5C102.196 14.0208 100.893 13.3368 99.934 12.4479C98.9744 11.559 98.4947 10.3958 98.4947 8.95833C98.4947 7.76389 98.8134 6.72222 99.4508 5.83333C100.095 4.9375 100.959 4.24306 102.041 3.75C103.131 3.25 104.348 3 105.691 3C107.048 3 108.254 3.24653 109.31 3.73958C110.365 4.22569 111.202 4.89236 111.818 5.73958C112.442 6.58681 112.771 7.54861 112.805 8.625H110.338Z" fill="#D9D9D9"/>
<path d="M117.285 24.6248V3.2915H119.835V12.7915H131.061V3.2915H133.611V24.6248H131.061V15.0831H119.835V24.6248H117.285Z" fill="#D9D9D9"/>
<path d="M139.579 24.6248H136.906L144.637 3.2915H147.269L155 24.6248H152.327L146.035 6.6665H145.871L139.579 24.6248ZM140.566 16.2915H151.34V18.5831H140.566V16.2915Z" fill="#D9D9D9"/>
</g>
<defs>
<clipPath id="clip0_3427_658">
<rect width="155" height="29" fill="white"/>
</clipPath>
</defs>
</svg>
