<svg width="288" height="52" viewBox="0 0 288 52" fill="none" xmlns="http://www.w3.org/2000/svg">
<mask id="mask0_482_457" style="mask-type:luminance" maskUnits="userSpaceOnUse" x="0" y="0" width="288" height="52">
<path d="M287.522 0.761719H0.5V51.2379H287.522V0.761719Z" fill="white"/>
</mask>
<g mask="url(#mask0_482_457)">
<path d="M25.8976 4.55386C24.8134 5.56331 23.7478 6.55408 22.6823 7.54016C17.7331 12.1295 12.784 16.7234 7.83018 21.3034C6.69455 22.3549 5.51683 23.3644 4.09146 23.9813C2.39501 24.715 1.42293 24.257 0.876146 22.4297C0.114378 19.8733 0.520965 17.4899 1.99309 15.2934C3.24557 13.424 4.82518 11.8678 6.44685 10.3536C9.03124 7.94207 11.6343 5.55397 14.2701 3.20789C15.4245 2.17974 16.6863 1.24039 18.2285 0.927268C22.8459 -0.00274356 25.7902 4.4183 25.9024 4.54916L25.8976 4.55386Z" fill="#FAFBFA"/>
<path d="M3.68018 27.902C6.48888 27.0934 8.59661 25.3128 10.6482 23.4388C17.191 17.4755 23.7244 11.5076 30.2952 5.577C31.744 4.26845 33.2677 3.01596 34.8799 1.92239C36.9316 0.529708 39.1608 0.328749 41.3572 1.656C42.1517 2.1327 42.9321 2.68882 43.577 3.35246C45.8156 5.66581 48.0261 8.01653 50.1806 10.4093C52.4707 12.9517 54.7231 15.5314 56.915 18.1579C57.6673 19.0598 58.2842 20.1113 58.7938 21.1769C59.7424 23.1584 59.4994 25.1165 58.3451 26.9626C57.3121 28.617 55.929 29.9723 54.5036 31.2574C48.9235 36.2954 43.3434 41.3335 37.6981 46.3011C36.1838 47.6377 34.5154 48.8342 32.7955 49.8904C29.5567 51.886 26.3089 51.6382 23.3552 49.2736C21.6354 47.8994 20.0184 46.3619 18.5416 44.7262C13.7841 39.4593 9.11534 34.1176 4.41389 28.7992C4.17556 28.533 3.96057 28.2432 3.68018 27.8972V27.902Z" fill="#FAFBFA"/>
<path d="M100.477 1.80741H107.572V40.2322H100.477V36.9936C98.3881 39.6668 95.4159 40.9987 91.5696 40.9987C87.7235 40.9987 84.7046 39.5967 82.0828 36.7973C79.461 33.9979 78.1523 30.5677 78.1523 26.5064C78.1523 22.4452 79.461 19.015 82.0828 16.2156C84.7046 13.4162 87.8638 12.0142 91.5696 12.0142C95.2757 12.0142 98.3881 13.3508 100.477 16.0193V1.80273V1.80741ZM87.4151 32.0818C88.8639 33.5259 90.6864 34.2502 92.8876 34.2502C95.0888 34.2502 96.9022 33.5259 98.3321 32.0818C99.7622 30.6377 100.477 28.7776 100.477 26.5112C100.477 24.2445 99.7622 22.3845 98.3321 20.9404C96.9022 19.4963 95.0888 18.7719 92.8876 18.7719C90.6864 18.7719 88.8639 19.4963 87.4151 20.9404C85.9662 22.3845 85.2419 24.2445 85.2419 26.5112C85.2419 28.7776 85.9662 30.6377 87.4151 32.0818Z" fill="#F2F2F2"/>
<path d="M131.279 12.7871H138.868L128.844 40.281C127.414 44.202 125.521 47.0481 123.156 48.8238C120.796 50.5998 117.857 51.3989 114.342 51.2121V44.6272C116.249 44.6646 117.759 44.2625 118.88 43.4214C119.997 42.5802 120.89 41.2249 121.549 39.3603L110.276 12.7918H118.03L125.199 31.2377L131.283 12.7918L131.279 12.7871Z" fill="#F2F2F2"/>
<path d="M156.9 12.0144C159.905 12.0144 162.391 13.0192 164.349 15.0335C166.312 17.0477 167.289 19.8284 167.289 23.3755V40.2279H160.195V24.2541C160.195 22.4268 159.699 21.0248 158.708 20.0527C157.717 19.0853 156.4 18.5993 154.75 18.5993C152.918 18.5993 151.45 19.1648 150.352 20.3004C149.254 21.4361 148.703 23.1372 148.703 25.4038V40.2231H141.608V12.7762H148.703V15.8513C150.427 13.2903 153.156 12.0098 156.895 12.0098L156.9 12.0144Z" fill="#F2F2F2"/>
<path d="M193.115 12.7867H200.209V40.2339H193.115V36.9951C190.988 39.6683 188.002 41.0001 184.151 41.0001C180.3 41.0001 177.342 39.5981 174.72 36.7987C172.098 33.9993 170.79 30.5692 170.79 26.5079C170.79 22.4467 172.098 19.0164 174.72 16.217C177.342 13.4177 180.482 12.0156 184.151 12.0156C188.002 12.0156 190.988 13.3522 193.115 16.0208V12.7821V12.7867ZM180.024 32.0832C181.454 33.5274 183.268 34.2517 185.469 34.2517C187.67 34.2517 189.493 33.5274 190.941 32.0832C192.39 30.6391 193.115 28.7793 193.115 26.5127C193.115 24.246 192.39 22.386 190.941 20.9419C189.493 19.4978 187.67 18.7734 185.469 18.7734C183.268 18.7734 181.454 19.4978 180.024 20.9419C178.594 22.386 177.879 24.246 177.879 26.5127C177.879 28.7793 178.594 30.6391 180.024 32.0832Z" fill="#F2F2F2"/>
<path d="M235.105 12.0156C238.259 12.0156 240.778 13.0391 242.666 15.0908C244.554 17.1424 245.498 19.8857 245.498 23.3253V40.2339H238.404V23.8207C238.404 22.1756 238.002 20.8951 237.194 19.9792C236.385 19.0632 235.249 18.6052 233.782 18.6052C232.17 18.6052 230.912 19.1379 230.015 20.1988C229.118 21.2597 228.669 22.7972 228.669 24.8114V40.2384H221.575V23.8254C221.575 22.1803 221.173 20.8998 220.364 19.9838C219.556 19.0678 218.42 18.6098 216.953 18.6098C215.378 18.6098 214.121 19.1426 213.186 20.2035C212.251 21.2644 211.784 22.8019 211.784 24.8162V40.2432H204.69V12.7961H211.784V15.7076C213.434 13.2541 215.981 12.0297 219.43 12.0297C222.879 12.0297 225.295 13.3476 226.907 15.9834C228.739 13.3476 231.473 12.0297 235.1 12.0297L235.105 12.0156Z" fill="#F2F2F2"/>
<path d="M253.518 9.49168C252.345 9.49168 251.326 9.06172 250.466 8.20181C249.607 7.3419 249.172 6.32775 249.172 5.15474C249.172 3.9817 249.602 2.95822 250.466 2.07963C251.326 1.20102 252.345 0.761719 253.518 0.761719C254.69 0.761719 255.762 1.20102 256.626 2.07963C257.487 2.95822 257.916 3.9817 257.916 5.15474C257.916 6.32775 257.487 7.3419 256.626 8.20181C255.767 9.06172 254.728 9.49168 253.518 9.49168ZM249.999 40.2333V12.7864H257.093V40.2333H249.999Z" fill="#F2F2F2"/>
<path d="M275.09 41.0001C270.945 41.0001 267.491 39.6123 264.725 36.8267C261.959 34.0463 260.574 30.6066 260.574 26.5079C260.574 22.4093 261.959 18.9697 264.725 16.189C267.491 13.4083 270.95 12.0156 275.09 12.0156C277.768 12.0156 280.204 12.6559 282.404 13.9364C284.605 15.2169 286.274 16.9368 287.409 19.0959L281.305 22.6617C280.754 21.526 279.923 20.6288 278.807 19.9698C277.69 19.3108 276.432 18.9837 275.04 18.9837C272.913 18.9837 271.152 19.6894 269.757 21.0961C268.365 22.5075 267.668 24.3067 267.668 26.5034C267.668 28.6998 268.365 30.4476 269.757 31.8543C271.152 33.2656 272.913 33.9668 275.04 33.9668C276.47 33.9668 277.741 33.649 278.862 33.0039C279.979 32.3636 280.815 31.4758 281.363 30.34L287.522 33.8545C286.312 36.0136 284.605 37.7429 282.409 39.0421C280.209 40.3411 277.773 40.9908 275.095 40.9908L275.09 41.0001Z" fill="#F2F2F2"/>
</g>
</svg>
