<svg width="237" height="68" viewBox="0 0 237 68" fill="none" xmlns="http://www.w3.org/2000/svg">
<path d="M19.2869 38.3768C21.0939 38.3768 22.8569 37.772 24.282 36.6654L12.823 25.1582C10.0611 28.7431 10.7222 33.9067 14.2921 36.6803C15.7318 37.772 17.4801 38.3768 19.2869 38.3768Z" fill="#FAFBFA"/>
<path d="M53.3707 30.1626C53.3707 28.348 52.7684 26.5776 51.6666 25.1465L40.2075 36.6539C43.7775 39.4275 48.9046 38.7636 51.6666 35.1786C52.7684 33.7475 53.3707 31.9772 53.3707 30.1626Z" fill="#FAFBFA"/>
<path d="M59.1441 17.6348L54.0759 22.7246C58.1598 27.6372 57.5135 34.9547 52.6213 39.0561C48.3316 42.6559 42.1025 42.6559 37.8128 39.0561L32.2449 44.6474L26.6917 39.0708C21.7997 43.1722 14.5129 42.5231 10.4288 37.6103C6.84415 33.3025 6.84415 27.0471 10.4288 22.7393L7.82846 20.1279L5.36037 17.6348C2.37809 22.5622 0.806152 28.2274 0.806152 33.9959C0.806152 51.4338 14.8801 65.5673 32.2449 65.5673C49.6098 65.5673 63.6837 51.4338 63.6837 33.9959C63.6984 28.2274 62.1118 22.5622 59.1441 17.6348Z" fill="#FAFBFA"/>
<path d="M54.9868 12.2069C43.0136 -0.40695 23.1221 -0.879047 10.5612 11.1447C10.1939 11.4987 9.84135 11.8528 9.50345 12.2069C8.72484 13.033 7.99028 13.8887 7.2998 14.7886L32.2451 39.854L57.1904 14.7886C56.5147 13.8887 55.7655 13.033 54.9868 12.2069ZM32.2451 6.55647C39.5907 6.55647 46.4367 9.40379 51.5785 14.5969L32.2451 34.0118L12.9118 14.5969C18.0537 9.40379 24.8996 6.55647 32.2451 6.55647Z" fill="#FAFBFA"/>
<path d="M109.594 36.7941C102.107 36.7941 94.6194 36.6775 91.8334 36.6775C91.7754 30.6741 91.8334 23.9713 91.8334 17.1518C96.1865 17.0353 106.228 16.977 110 16.977C119.577 16.977 123.756 19.5998 123.756 27.0021C123.756 34.2295 119.693 36.7941 109.594 36.7941ZM84.7524 11.498C84.9266 17.4433 84.9846 24.0878 84.9846 33.3553C84.9846 42.681 84.9266 48.9175 84.7524 55.2124H92.2397C92.0075 51.7735 91.8915 47.2855 91.8334 42.1564C101.004 42.3313 104.718 42.3313 110.987 42.3313C123.524 42.3313 130.547 38.0181 130.547 26.8855C130.547 15.3449 123.524 11.498 111.219 11.498H84.7524Z" fill="#FAFBFA"/>
<path d="M173.502 41.5739C173.502 46.9945 168.104 51.3659 156.437 51.3659C147.789 51.3659 144.655 49.2677 144.655 45.3042C144.655 41.1659 148.486 39.2425 157.946 39.2425C163.577 39.2425 168.858 39.5339 173.502 40.0585V41.5739ZM173.676 47.8688C173.618 49.7339 173.56 51.6574 173.56 53.2311C173.56 54.9214 173.966 55.2128 175.359 55.2128H180.815C180.234 53.2311 180.002 48.9179 180.002 44.7797C180.002 40.5248 180.176 37.2608 180.176 33.2974C180.176 25.3122 175.359 19.7168 159.862 19.7168C145.584 19.7168 139.722 24.4379 139.838 33.2974C140.708 33.1808 141.869 33.1808 143.03 33.1808C144.191 33.1808 145.235 33.1808 146.048 33.2391C145.874 27.5271 149.414 24.5545 159.804 24.5545C170.774 24.5545 173.618 28.0517 173.618 33.6471C173.618 34.6379 173.618 35.8619 173.56 37.1442C169.903 36.4448 164.157 35.9785 157.076 35.9785C143.9 35.9785 138.271 39.1842 138.271 46.0619C138.271 52.9397 143.436 56.0288 154.232 56.0288C164.389 56.0288 171.006 52.9979 173.327 47.8105L173.676 47.8688Z" fill="#FAFBFA"/>
<path d="M227.255 20.5312C225.34 24.4364 220.349 32.713 216.924 39.0661C214.312 43.9038 212.571 47.2261 211.236 49.6158H210.83C209.669 47.2261 207.986 43.7873 205.548 39.3575C202.124 32.9461 195.971 23.4455 194.637 20.5312H186.569C192.141 29.0992 201.834 46.177 206.071 52.705C206.941 52.6467 208.044 52.6467 209.205 52.6467L209.031 52.9964C206.013 57.8341 203.227 59.1747 198.757 59.1747C194.695 59.1747 191.502 58.009 188.426 56.0855C188.194 57.3678 187.091 60.6318 186.627 61.7393C190.051 63.4878 193.708 64.6535 198.235 64.6535C206.941 64.6535 210.482 61.3895 216.228 52.4135C221.161 45.0695 230.216 28.2833 234.975 20.5312H227.255Z" fill="#FAFBFA"/>
</svg>
