<svg width="1498" height="339" viewBox="0 0 1498 339" fill="none" xmlns="http://www.w3.org/2000/svg">
<g clip-path="url(#clip0_14_10)">
<path d="M380.842 231.991H397.588V109.846H380.842V231.991ZM488.327 233.91C507.166 233.91 524.958 226.233 536.994 213.146L526.005 201.978C516.934 212.448 503.328 218.381 488.85 218.381C461.987 218.381 441.752 197.79 441.752 170.918C441.752 144.046 461.813 123.282 488.327 123.282C502.805 123.282 516.934 129.389 526.179 140.208L537.343 128.691C525.656 115.604 507.689 107.926 488.327 107.926C452.567 107.926 424.658 135.671 424.658 170.918C424.658 206.166 452.567 233.91 488.327 233.91ZM562.759 231.991H652.594V217.334H579.505V177.549H626.952V163.066H579.505V124.503H651.896V109.846H562.759V231.991ZM678.589 231.991H732.664C757.958 231.991 774.529 218.381 774.529 197.267C774.529 183.831 765.807 173.361 752.027 168.475C763.016 163.415 769.645 153.992 769.645 141.778C769.645 122.409 754.12 109.846 730.397 109.846H678.589V231.991ZM695.335 162.194V124.154H729.35C743.828 124.154 753.073 131.483 753.073 143.174C753.073 154.865 743.828 162.194 729.35 162.194H695.335ZM695.335 217.683V175.63H731.269C747.317 175.63 757.609 184.005 757.609 196.743C757.609 209.481 747.317 217.683 731.269 217.683H695.335ZM801.915 231.991H818.66V181.039H854.594L880.062 231.991H898.55L871.34 178.771C886.865 173.885 896.81 161.67 896.81 145.617C896.81 124.329 880.411 109.846 856.339 109.846H801.915V231.991ZM818.66 167.079V124.678H855.117C869.945 124.678 879.887 133.053 879.887 145.791C879.887 158.704 869.945 167.079 855.117 167.079H818.66ZM923.19 231.991H1013.03V217.334H939.94V177.549H987.39V163.066H939.94V124.503H1012.33V109.846H923.19V231.991ZM1029.02 231.991H1046.47L1061.12 195.347H1116.59L1131.24 231.991H1149.39L1099.32 109.846H1079.44L1029.02 231.991ZM1066.7 181.388L1088.85 125.725L1111.18 181.388H1066.7ZM1169.5 231.991H1186.25V173.885L1246.78 231.991H1269.8L1203.69 169.173L1268.06 109.846H1246.6L1186.25 166.905V109.846H1169.5V231.991ZM1285.5 231.991H1375.34V217.334H1302.25V177.549H1349.7V163.066H1302.25V124.503H1374.64V109.846H1285.5V231.991ZM1401.33 231.991H1418.08V181.039H1454.02L1479.48 231.991H1497.97L1470.76 178.771C1486.29 173.885 1496.23 161.67 1496.23 145.617C1496.23 124.329 1479.83 109.846 1455.76 109.846H1401.33V231.991ZM1418.08 167.079V124.678H1454.53C1469.36 124.678 1479.31 133.053 1479.31 145.791C1479.31 158.704 1469.36 167.079 1454.53 167.079H1418.08Z" fill="white"/>
<path fill-rule="evenodd" clip-rule="evenodd" d="M139.442 2.56502L83.7549 34.793C83.1345 35.1519 82.6195 35.6679 82.2619 36.289L142.091 70.913C144.755 72.4554 146.807 74.8679 147.902 77.745C148.28 77.73 148.659 77.727 149.037 77.735C149.893 75.1311 151.678 72.9333 154.05 71.56L214.612 36.511C214.001 35.4502 213.121 34.5688 212.062 33.955L157.821 2.56502C155.028 0.948195 151.858 0.0968018 148.631 0.0968018C145.404 0.0968018 142.235 0.948195 139.442 2.56502ZM130.569 81.417C131.598 82.0123 132.453 82.8688 133.045 83.9L99.8809 103.094C99.4499 103.296 99.0239 103.517 98.6059 103.756L80.7039 113.95C80.1713 114.253 79.6777 114.62 79.2339 115.042L76.0709 116.873C73.275 118.494 70.9543 120.821 69.3414 123.621C67.7284 126.421 66.8799 129.596 66.8809 132.828V198.56C65.8168 198.534 64.7764 198.241 63.8549 197.708L12.1549 167.788L9.30889 166.14C6.51284 164.52 4.19192 162.193 2.57893 159.393C0.965932 156.593 0.117564 153.418 0.118898 150.186V94.009C0.117389 90.7773 0.965679 87.602 2.57868 84.8016C4.19169 82.0013 6.51269 79.6743 9.30889 78.054L57.8439 49.965C60.6366 48.3481 63.8064 47.4966 67.0334 47.4966C70.2604 47.4966 73.4302 48.3481 76.2229 49.965L130.569 81.417ZM83.5369 129.837L102.053 119.122C104.1 118.227 106.329 117.825 108.559 117.951C110.79 118.077 112.96 118.725 114.893 119.845L133.789 130.781L116.932 140.537C114.136 142.157 111.815 144.484 110.202 147.284C108.59 150.085 107.741 153.26 107.743 156.491V176.579L88.1919 165.265C86.4538 164.258 84.9731 162.861 83.8664 161.184C82.7597 159.508 82.0571 157.597 81.8139 155.603V132.828C81.8139 131.594 82.4709 130.454 83.5369 129.837ZM81.8139 206.176V178.746L107.743 193.751V223.176L83.5369 209.168C83.0126 208.864 82.5774 208.428 82.275 207.903C81.9726 207.377 81.8136 206.782 81.8139 206.176ZM116.932 245.795C116.725 245.675 116.521 245.552 116.32 245.425L82.7559 226.001C82.0764 227.124 81.7174 228.412 81.7179 229.725V292.392C81.7163 295.624 82.5644 298.799 84.1772 301.599C85.7901 304.399 88.1109 306.726 90.9069 308.346L139.442 336.435C142.235 338.052 145.404 338.903 148.631 338.903C151.858 338.903 155.028 338.052 157.821 336.435L206.356 308.346C209.152 306.726 211.473 304.399 213.086 301.599C214.699 298.799 215.547 295.624 215.546 292.392V229.725C215.546 228.389 215.175 227.105 214.506 226.001L180.767 245.527C180.619 245.617 180.469 245.707 180.318 245.795L164.094 255.184C163.998 255.24 163.901 255.293 163.803 255.344L157.821 258.806C155.028 260.423 151.858 261.274 148.631 261.274C145.404 261.274 142.235 260.423 139.442 258.806L133.556 255.399C133.42 255.332 133.287 255.26 133.156 255.184L116.932 245.795ZM68.9179 214.606C69.2249 215.202 69.5633 215.782 69.9319 216.342C67.9565 218.825 66.881 221.903 66.8809 225.076V293.396C65.8511 293.37 64.8443 293.086 63.9529 292.57L9.30889 260.946C6.51269 259.326 4.19169 256.999 2.57868 254.198C0.965679 251.398 0.117389 248.223 0.118898 244.991V182.668C0.118898 181.224 0.518893 179.836 1.23989 178.642L60.6769 213.04C63.1667 214.482 66.0728 215.034 68.9179 214.606ZM230.381 225.076C230.381 221.851 229.275 218.785 227.33 216.342C227.694 215.79 228.029 215.22 228.332 214.631C231.147 215.063 234.025 214.52 236.489 213.093L296.023 178.64C296.753 179.85 297.139 181.236 297.138 182.649V244.991C297.14 248.223 296.292 251.398 294.679 254.198C293.066 256.999 290.745 259.326 287.949 260.946L233.565 292.42C232.596 292.981 231.501 293.289 230.381 293.315V225.076ZM233.357 197.734C232.451 198.259 231.428 198.548 230.381 198.574V132.828C230.382 129.596 229.534 126.421 227.921 123.621C226.308 120.821 223.988 118.494 221.192 116.873L164.057 83.807C164.546 82.9556 165.252 82.2484 166.102 81.757L221.035 49.965C223.828 48.3481 226.997 47.4966 230.224 47.4966C233.451 47.4966 236.621 48.3481 239.414 49.965L287.949 78.054C290.745 79.6743 293.066 82.0014 294.679 84.8017C296.292 87.6021 297.14 90.7774 297.138 94.009V150.186C297.14 153.417 296.291 156.593 294.679 159.393C293.066 162.193 290.745 164.52 287.949 166.14L233.357 197.734ZM213.725 209.168L189.507 223.183V193.761L215.448 178.747V206.176C215.448 206.782 215.289 207.377 214.987 207.903C214.684 208.428 214.249 208.864 213.725 209.168ZM215.448 132.828V153.884C215.168 156.429 214.294 158.873 212.896 161.018C211.498 163.163 209.615 164.95 207.399 166.233L189.507 176.588V156.491C189.508 153.26 188.66 150.085 187.047 147.284C185.434 144.484 183.114 142.157 180.318 140.537L163.461 130.781L181.87 120.127C183.952 118.921 186.291 118.227 188.694 118.1C191.097 117.974 193.495 118.419 195.693 119.4L213.725 129.837C214.249 130.141 214.684 130.577 214.987 131.102C215.289 131.627 215.448 132.222 215.448 132.828ZM148.626 122.195L174.573 107.178L150.354 93.163C149.83 92.8594 149.236 92.6995 148.631 92.6995C148.026 92.6995 147.431 92.8594 146.908 93.163L122.684 107.181L148.626 122.195ZM150.354 245.843L169.57 234.722C171.157 233.509 172.443 231.947 173.327 230.156C174.212 228.366 174.672 226.395 174.672 224.398V202.346L157.822 212.097C155.029 213.714 151.859 214.565 148.632 214.565C145.405 214.565 142.236 213.714 139.443 212.097L122.578 202.336V224.398C122.577 226.387 123.033 228.349 123.911 230.134C124.789 231.919 126.064 233.478 127.64 234.692L146.908 245.843C147.432 246.146 148.026 246.305 148.631 246.305C149.236 246.305 149.83 246.146 150.354 245.843ZM131.767 149.122L148.626 139.366L165.483 149.122C168.279 150.743 170.599 153.07 172.212 155.87C173.825 158.67 174.673 161.845 174.672 165.077V185.174L157.822 194.926C155.029 196.543 151.859 197.394 148.632 197.394C145.405 197.394 142.236 196.543 139.443 194.926L122.578 185.165V165.077C122.576 161.845 123.425 158.67 125.038 155.87C126.65 153.07 128.971 150.743 131.767 149.122Z" fill="white"/>
</g>
<defs>
<clipPath id="clip0_14_10">
<rect width="1498" height="339" fill="white"/>
</clipPath>
</defs>
</svg>
