<svg width="131" height="38" viewBox="0 0 131 38" fill="none" xmlns="http://www.w3.org/2000/svg">
<path d="M53.4892 14.2247V16.7584H45.5063V8.0663H48.6098V14.2247H53.4892Z" fill="white"/>
<path d="M62.5813 14.546V16.7584H54.4893V8.0663H62.5449V10.2787H57.5927V11.3455H62.2964V13.3822H57.5927V14.546H62.5813Z" fill="white"/>
<path d="M73.7886 8.0663V16.7584H69.8305L66.7756 11.2728V16.7584H64.0176V8.0663H68.103L71.0428 13.4549V8.0663H73.7886Z" fill="white"/>
<path d="M79.3841 17.019C78.5631 17.019 77.7931 16.922 77.0741 16.7281C76.359 16.5301 75.7346 16.2674 75.2012 15.9401V13.6913C75.7508 14.0348 76.3569 14.3076 77.0201 14.5096C77.6821 14.7076 78.3551 14.8066 79.0381 14.8066C79.5311 14.8066 79.8971 14.7622 80.1351 14.6733C80.3741 14.5844 80.4931 14.4429 80.4931 14.249C80.4931 14.0792 80.4101 13.9439 80.2441 13.8428C80.0791 13.7418 79.7841 13.6549 79.3591 13.5822L78.1231 13.3579C77.0921 13.172 76.3367 12.8548 75.8559 12.4063C75.379 11.9577 75.1406 11.3637 75.1406 10.6242C75.1406 10.0625 75.3043 9.57159 75.6316 9.15129C75.963 8.72699 76.46 8.39769 77.1231 8.16329C77.7891 7.92489 78.6101 7.80569 79.5841 7.80569C80.4161 7.80569 81.1331 7.8905 81.7351 8.0602C82.3411 8.23 82.8411 8.43609 83.2331 8.67849V10.8364C82.8651 10.6303 82.3961 10.4525 81.8261 10.303C81.2611 10.1535 80.6461 10.0787 79.9841 10.0787C78.9171 10.0787 78.3831 10.2525 78.3831 10.6C78.3831 10.697 78.4121 10.7778 78.4681 10.8424C78.5291 10.9031 78.6321 10.9556 78.7771 11C78.9231 11.0445 79.1311 11.0849 79.4021 11.1213L80.7901 11.3455C81.4731 11.4587 82.0301 11.6264 82.4631 11.8486C82.8951 12.0668 83.2181 12.3558 83.4331 12.7154C83.6471 13.071 83.7541 13.5115 83.7541 14.0368C83.7541 14.6349 83.5721 15.1602 83.2081 15.6128C82.8491 16.0613 82.3371 16.4088 81.6751 16.6553C81.0161 16.8978 80.2521 17.019 79.3841 17.019Z" fill="white"/>
<path d="M51.5132 19.6404C52.2648 19.6404 52.8972 19.7737 53.4104 20.0404C53.9277 20.3031 54.3156 20.6749 54.5742 21.1557C54.8369 21.6366 54.9682 22.2003 54.9682 22.8469C54.9682 23.4854 54.8187 24.0491 54.5197 24.538C54.2247 25.0229 53.7822 25.4028 53.1922 25.6776C52.6022 25.9483 51.8829 26.0837 51.0343 26.0837H48.6098V28.3446H45.5063V19.6404H51.5132ZM50.2221 24.1137C50.7272 24.1137 51.1131 24.0107 51.3798 23.8046C51.6506 23.5945 51.786 23.3035 51.786 22.9317C51.786 22.5721 51.6647 22.2933 51.4223 22.0953C51.1839 21.8932 50.8424 21.7922 50.3979 21.7922H48.6098V24.1137H50.2221Z" fill="white"/>
<path d="M61.9265 28.3446L59.1201 24.7805V28.3446H56.0166V19.6525H62.1387C62.8175 19.6525 63.4095 19.7737 63.9147 20.0162C64.4198 20.2587 64.8077 20.6021 65.0785 21.0466C65.3532 21.4871 65.4906 22.0003 65.4906 22.5862C65.4906 23.0954 65.3876 23.552 65.1815 23.9561C64.9754 24.3562 64.6845 24.6774 64.3087 24.9199C63.9328 25.1583 63.4964 25.2977 62.9994 25.3381L65.5755 28.3446H61.9265ZM60.8718 23.8652C61.3285 23.8652 61.676 23.7763 61.9144 23.5985C62.1528 23.4207 62.272 23.1621 62.272 22.8226C62.272 22.4994 62.1609 22.2549 61.9386 22.0892C61.7204 21.9235 61.3931 21.8407 60.9567 21.8407H59.1201V23.8652H60.8718Z" fill="white"/>
<path d="M71.9824 28.6295C70.855 28.6295 69.8629 28.4214 69.0063 28.0052C68.1496 27.5889 67.4889 27.0252 67.0242 26.314C66.5595 25.6028 66.3271 24.8148 66.3271 23.9501C66.3271 23.0691 66.5575 22.2832 67.0182 21.5922C67.4829 20.8971 68.1435 20.3536 69.0002 19.9616C69.8569 19.5656 70.855 19.3676 71.9945 19.3676C73.126 19.3676 74.1181 19.5656 74.9707 19.9616C75.8274 20.3536 76.4861 20.8971 76.9467 21.5922C77.4119 22.2832 77.6439 23.0691 77.6439 23.9501C77.6439 24.8189 77.41 25.6089 76.9408 26.3201C76.4761 27.0313 75.8153 27.595 74.9586 28.0112C74.1019 28.4234 73.1098 28.6295 71.9824 28.6295ZM71.9824 26.1079C72.4471 26.1079 72.8553 26.019 73.2068 25.8412C73.5584 25.6594 73.8291 25.4068 74.0191 25.0835C74.209 24.7603 74.3039 24.3905 74.3039 23.9743C74.3039 23.5621 74.209 23.1984 74.0191 22.8833C73.8291 22.5681 73.5584 22.3236 73.2068 22.1498C72.8553 21.9761 72.4471 21.8892 71.9824 21.8892C71.5137 21.8892 71.1035 21.9761 70.7519 22.1498C70.4004 22.3236 70.1276 22.5681 69.9337 22.8833C69.7437 23.1984 69.6488 23.5621 69.6488 23.9743C69.6488 24.3905 69.7437 24.7603 69.9337 25.0835C70.1276 25.4068 70.4004 25.6594 70.7519 25.8412C71.1035 26.019 71.5137 26.1079 71.9824 26.1079Z" fill="white"/>
<path d="M87.094 22.1013H84.136V28.3446H81.032V22.1013H78.02V19.6525H87.094V22.1013Z" fill="white"/>
<path d="M93.113 28.6295C91.985 28.6295 90.993 28.4214 90.136 28.0052C89.28 27.5889 88.619 27.0252 88.154 26.314C87.69 25.6028 87.457 24.8148 87.457 23.9501C87.457 23.0691 87.688 22.2832 88.148 21.5922C88.613 20.8971 89.274 20.3536 90.13 19.9616C90.987 19.5656 91.985 19.3676 93.125 19.3676C94.256 19.3676 95.248 19.5656 96.101 19.9616C96.958 20.3536 97.616 20.8971 98.077 21.5922C98.542 22.2832 98.774 23.0691 98.774 23.9501C98.774 24.8189 98.54 25.6089 98.071 26.3201C97.606 27.0313 96.945 27.595 96.089 28.0112C95.232 28.4234 94.24 28.6295 93.113 28.6295ZM93.113 26.1079C93.577 26.1079 93.985 26.019 94.337 25.8412C94.689 25.6594 94.959 25.4068 95.149 25.0835C95.339 24.7603 95.434 24.3905 95.434 23.9743C95.434 23.5621 95.339 23.1984 95.149 22.8833C94.959 22.5681 94.689 22.3236 94.337 22.1498C93.985 21.9761 93.577 21.8892 93.113 21.8892C92.644 21.8892 92.234 21.9761 91.882 22.1498C91.531 22.3236 91.258 22.5681 91.064 22.8833C90.874 23.1984 90.779 23.5621 90.779 23.9743C90.779 24.3905 90.874 24.7603 91.064 25.0835C91.258 25.4068 91.531 25.6594 91.882 25.8412C92.234 26.019 92.644 26.1079 93.113 26.1079Z" fill="white"/>
<path d="M105.248 28.6295C104.068 28.6295 103.049 28.4315 102.193 28.0355C101.34 27.6354 100.691 27.0899 100.247 26.3989C99.8021 25.7038 99.5801 24.9199 99.5801 24.047C99.5801 23.1621 99.8061 22.366 100.259 21.6588C100.712 20.9476 101.372 20.388 102.241 19.9798C103.11 19.5717 104.142 19.3676 105.339 19.3676C106.07 19.3676 106.739 19.4404 107.345 19.5858C107.955 19.7313 108.535 19.9414 109.084 20.2162V22.7802C108.733 22.5337 108.292 22.3337 107.763 22.1801C107.238 22.0266 106.678 21.9498 106.084 21.9498C105.433 21.9498 104.874 22.0347 104.405 22.2044C103.936 22.3741 103.579 22.6125 103.332 22.9196C103.09 23.2227 102.969 23.5743 102.969 23.9743C102.969 24.3784 103.092 24.736 103.338 25.0472C103.589 25.3543 103.948 25.5947 104.417 25.7685C104.886 25.9382 105.442 26.0231 106.084 26.0231C106.698 26.0231 107.27 25.9422 107.799 25.7806C108.329 25.6149 108.765 25.3947 109.109 25.1199V27.6233C108.515 27.9708 107.915 28.2254 107.308 28.387C106.706 28.5487 106.019 28.6295 105.248 28.6295Z" fill="white"/>
<path d="M115.746 28.6295C114.619 28.6295 113.627 28.4214 112.77 28.0052C111.913 27.5889 111.252 27.0252 110.788 26.314C110.323 25.6028 110.091 24.8148 110.091 23.9501C110.091 23.0691 110.321 22.2832 110.782 21.5922C111.246 20.8971 111.907 20.3536 112.764 19.9616C113.62 19.5656 114.619 19.3676 115.758 19.3676C116.89 19.3676 117.882 19.5656 118.734 19.9616C119.591 20.3536 120.25 20.8971 120.71 21.5922C121.175 22.2832 121.407 23.0691 121.407 23.9501C121.407 24.8189 121.173 25.6089 120.704 26.3201C120.24 27.0313 119.579 27.595 118.722 28.0112C117.865 28.4234 116.873 28.6295 115.746 28.6295ZM115.746 26.1079C116.211 26.1079 116.619 26.019 116.97 25.8412C117.322 25.6594 117.593 25.4068 117.783 25.0835C117.973 24.7603 118.068 24.3905 118.068 23.9743C118.068 23.5621 117.973 23.1984 117.783 22.8833C117.593 22.5681 117.322 22.3236 116.97 22.1498C116.619 21.9761 116.211 21.8892 115.746 21.8892C115.277 21.8892 114.867 21.9761 114.516 22.1498C114.164 22.3236 113.891 22.5681 113.697 22.8833C113.507 23.1984 113.412 23.5621 113.412 23.9743C113.412 24.3905 113.507 24.7603 113.697 25.0835C113.891 25.4068 114.164 25.6594 114.516 25.8412C114.867 26.019 115.277 26.1079 115.746 26.1079Z" fill="white"/>
<path d="M130.615 25.8109V28.3446H122.632V19.6525H125.735V25.8109H130.615Z" fill="white"/>
<path fill-rule="evenodd" clip-rule="evenodd" d="M26.2074 12.3186C27.7676 11.0227 29.5086 10.5296 31.1782 10.6542C32.9592 10.7872 34.6073 11.6182 35.8381 12.8252C37.069 14.0323 37.9146 15.6469 38.0499 17.3893C38.1865 19.1477 37.5951 20.9893 36.0357 22.6057C35.8931 22.7544 35.7473 22.9014 35.5985 23.0465C28.5258 29.9817 19.1307 30 19.0346 30C18.9866 30 9.56121 29.9996 2.47011 23.0455L2.46851 23.044C2.32211 22.8995 2.17801 22.7542 2.03601 22.6079L2.03481 22.6067C0.474714 20.9918 -0.117286 19.1506 0.018914 17.3922C0.153814 15.6501 0.998814 14.0353 2.22931 12.8278C3.45981 11.6203 5.10771 10.7887 6.88901 10.6552C8.55851 10.53 10.2998 11.0225 11.861 12.3178C12.0288 10.3199 12.9035 8.765 14.173 7.6961C15.5271 6.556 17.2917 6 19.0341 6C20.7766 6 22.5412 6.556 23.8952 7.6961C25.165 8.7652 26.0397 10.3204 26.2074 12.3186ZM24.3477 19.6667C24.1543 19.6667 24.0873 19.9408 24.2107 20.0859C24.4293 20.3431 24.5607 20.6739 24.5607 21.0348C24.5607 21.8538 23.8838 22.5177 23.0487 22.5177C22.2136 22.5177 21.5366 21.8538 21.5366 21.0348C21.5366 20.991 21.4783 20.9692 21.452 21.0047C21.2135 21.3259 21.0525 21.6865 20.9863 22.0652C20.9491 22.2784 20.7724 22.455 20.5503 22.455H20.4277C20.1378 22.455 19.8987 22.2246 19.9415 21.9454C20.2347 20.0321 22.1576 18.6445 24.3477 18.6445C26.5379 18.6445 28.4607 20.0321 28.754 21.9454C28.7967 22.2246 28.5576 22.455 28.2678 22.455C27.978 22.455 27.7485 22.2235 27.6855 21.9479C27.3988 20.6938 26.0699 19.6667 24.3477 19.6667ZM10.9205 21.0348C10.9205 20.977 10.8441 20.946 10.8082 20.992C10.5532 21.3182 10.3795 21.6877 10.306 22.0771C10.2626 22.3071 10.0718 22.4982 9.83171 22.4982H9.74171C9.45191 22.4982 9.21282 22.2678 9.25552 21.9886C9.54862 20.0743 11.4717 18.6876 13.6618 18.6876C15.8519 18.6876 17.775 20.0743 18.068 21.9886C18.1108 22.2678 17.8717 22.4982 17.5819 22.4982C17.2921 22.4982 17.0626 22.2666 16.9996 21.9911C16.7131 20.7362 15.3842 19.7099 13.6618 19.7099C13.5052 19.7099 13.4479 19.9255 13.5527 20.0387C13.7963 20.302 13.9446 20.6514 13.9446 21.0348C13.9446 21.8538 13.2677 22.5177 12.4326 22.5177C11.5975 22.5177 10.9205 21.8538 10.9205 21.0348ZM20.7162 24.6108C20.9211 24.4111 21.2376 24.314 21.4919 24.4494C21.7463 24.5847 21.8428 24.899 21.6595 25.1176C21.0625 25.8298 20.096 26.281 19.0301 26.281C17.9647 26.281 16.9961 25.8345 16.3983 25.117C16.2157 24.8978 16.3134 24.5838 16.5682 24.4494C16.823 24.3149 17.1391 24.4132 17.3436 24.6132C17.7376 24.9984 18.3355 25.2588 19.0301 25.2588C19.7228 25.2588 20.3214 24.9958 20.7162 24.6108Z" fill="white"/>
</svg>
