<svg width="325" height="111" viewBox="0 0 325 111" fill="none" xmlns="http://www.w3.org/2000/svg">
<path d="M63.1594 3.21924C63.0114 3.33024 62.9004 4.36624 62.8634 5.51324C62.8264 9.13924 63.0484 8.99124 57.1284 8.91724C45.4364 8.73224 34.6324 12.4322 25.4934 19.6842L24.1614 20.7572L21.4234 18.9442C14.6154 14.4672 13.2094 13.6532 12.6544 13.7642C11.3964 13.9862 11.8404 15.3182 14.7634 20.0912C16.3914 22.7922 17.8344 25.2712 17.9454 25.6042C18.0934 25.9742 17.4274 27.2322 16.0954 29.0822C13.4684 32.7822 10.3234 39.2202 9.13937 43.2902C7.47437 49.0622 6.91937 53.6502 7.14137 59.3852C7.54837 68.4872 9.62037 75.3692 14.2454 82.8802C18.1304 89.0962 24.6054 95.4232 30.8954 99.0862C39.9234 104.303 51.4674 106.893 61.3094 105.894C74.0004 104.562 83.2504 100.27 91.7604 91.7602C101.417 82.1032 105.82 71.1882 105.82 57.0172C105.82 52.2442 105.672 50.5422 104.895 47.2862C102.194 35.3722 95.8304 25.7522 85.5074 18.0562C82.9174 16.1322 82.3254 15.4662 81.9554 14.2452C81.1414 11.4332 79.9944 9.62024 78.9954 9.62024C78.0704 9.62024 77.7374 10.2122 77.5524 12.1362C77.4784 12.6912 77.3304 13.0982 77.1824 13.0612C77.0714 13.0242 76.0354 12.6542 74.9624 12.2472C73.8524 11.8402 71.8544 11.2112 70.5594 10.8782C68.2654 10.2492 68.1174 10.1752 67.8954 8.91724C67.2294 5.40224 64.3804 1.96124 63.1594 3.21924ZM65.1204 5.77224C65.1204 6.06824 65.3054 6.29024 65.4904 6.29024C65.7124 6.29024 65.8604 6.62324 65.8604 7.03024C65.8604 7.43724 66.0454 7.77024 66.2304 7.77024C66.4524 7.77024 66.6004 8.21424 66.6004 8.76924C66.6004 9.43524 66.9704 10.0642 67.6364 10.5822C68.4504 11.2852 68.5614 11.5442 68.2284 12.0992C67.4514 13.3202 66.6744 13.0982 66.4154 11.5812C66.0084 9.02824 65.4904 8.88024 65.4904 11.3222C65.4904 15.8362 63.3444 19.1662 59.1264 21.3122C55.9814 22.8662 54.7604 24.0132 53.7984 26.1222C52.7254 28.6012 50.8384 30.3772 47.5824 32.0422L45.0294 33.3742L45.2884 31.9312C45.7324 29.5632 47.5824 26.0112 49.3214 24.3092C50.3574 23.2732 52.5034 21.8672 55.1674 20.4982C60.9764 17.5382 63.4924 14.9112 64.6764 10.6192C65.1944 8.73224 64.6764 8.88024 63.6774 10.9152C63.2334 11.8402 62.7524 12.5802 62.6784 12.5802C62.5674 12.5802 62.6044 12.3582 62.7524 12.0992C62.9374 11.8032 62.8264 11.8032 62.4194 12.1732C62.0494 12.4692 61.7904 12.5062 61.7904 12.2842C61.7904 12.0622 61.4574 11.5442 61.0134 11.1372C60.4584 10.6192 60.3844 10.3602 60.7174 10.1382C60.9764 9.99024 61.2354 10.0272 61.3464 10.2862C61.6054 11.1372 63.5664 8.54724 64.0104 6.69724C64.4174 4.99524 65.1204 4.40324 65.1204 5.77224ZM60.9024 11.9142C61.0504 12.0622 60.7174 12.7652 60.1624 13.5052L59.1634 14.8002H55.4634C49.3214 14.8002 42.4764 16.5022 36.4454 19.5362C33.5964 20.9422 30.0444 23.2732 29.2674 24.1982C28.6384 24.9382 28.1204 24.9752 28.1204 24.2352C28.1204 23.9392 27.7874 23.3842 27.3434 22.9772L26.5664 22.2742L28.6014 20.7572C36.5194 14.7632 46.9904 11.3962 56.8694 11.5812C58.9414 11.6182 60.7544 11.8032 60.9024 11.9142ZM80.4384 13.2462C80.8084 14.0232 81.0304 14.8002 80.9934 15.0222C80.8454 15.8732 81.0674 16.6502 81.5114 16.6502C82.0294 16.6502 83.2504 17.9452 83.2504 18.4632C83.2504 18.7962 82.2144 19.2772 81.1414 19.4622C80.8084 19.4992 80.6604 19.0552 80.6604 18.2042C80.6604 16.3542 80.3274 15.2442 79.6984 15.0222C79.1804 14.8372 78.9954 14.9852 77.8484 16.4652C77.4784 16.9462 77.3304 17.0202 77.4414 16.6132C77.5524 16.3172 77.2934 15.8362 76.9234 15.6142C76.1094 15.0962 75.9984 14.0602 76.7754 14.0602C77.0714 14.0602 77.6634 13.5422 78.1444 12.9502C79.2174 11.5072 79.6614 11.5442 80.4384 13.2462ZM72.7794 14.5042C74.4814 15.1332 75.9244 15.7622 76.0354 15.9472C76.2574 16.2802 75.5914 17.7972 74.9994 18.1672C74.8144 18.3152 73.1494 17.8712 71.2624 17.2052C68.8574 16.3542 67.8954 15.8362 67.9324 15.3922C68.0434 12.8762 68.0434 12.8762 68.9314 13.1722C69.3754 13.2832 71.1144 13.9122 72.7794 14.5042ZM79.5874 19.7952C78.8474 24.9752 76.2574 30.7472 73.2234 34.1512L71.3364 36.2602L73.0384 37.0372C77.5524 39.0352 82.7694 39.2202 86.0994 37.5182C87.0614 37.0372 87.9124 36.7412 87.9864 36.8152C88.2824 37.0742 84.6194 40.3672 83.2504 41.0702C79.6984 42.8832 73.5934 43.5122 69.3384 42.5132C66.2304 41.8102 61.9014 41.9582 59.4964 42.8832C58.3124 43.3272 57.2764 43.8452 57.1654 44.0302C57.0544 44.2152 58.2014 44.3632 59.6814 44.3632C64.0474 44.4002 67.8214 46.0652 71.8174 49.8392C78.2924 55.9442 81.4004 62.9002 81.4004 71.1882C81.4004 78.2552 79.9574 82.6952 76.2574 87.2832C73.9634 90.1692 71.1514 92.6112 68.0064 94.4612C66.7484 95.2012 65.8604 95.8302 66.0454 95.8672C67.0074 95.9782 68.3024 95.7192 68.8204 95.3122C69.1164 95.0902 69.8564 94.6462 70.4114 94.3502C71.9654 93.5732 75.6654 90.0952 77.4414 87.7272C79.1064 85.5812 79.6614 84.6562 81.0674 81.6962C81.9924 79.7722 82.3254 79.5132 82.6214 80.6602C83.2504 83.1022 87.8754 79.1802 88.5414 75.6282C88.6154 75.2212 88.8004 74.6292 88.9854 74.2592C89.1334 73.9262 89.1704 71.7802 89.0964 69.5602C89.0224 67.3032 89.0594 65.4902 89.2074 65.4902C89.3184 65.4902 89.6884 65.8602 90.0214 66.3412C90.5394 67.1182 90.5764 67.0442 90.2434 65.4902C89.6144 62.7522 87.7644 59.7182 85.1004 57.2392C82.8434 55.1302 78.1444 51.9852 77.7744 52.3552C77.7004 52.4292 78.1444 52.9472 78.7364 53.5392C80.5124 55.1672 80.9564 55.5002 81.4004 55.5002C81.5854 55.5002 81.7704 55.7592 81.7704 56.0552C81.7704 56.3512 81.9554 56.6102 82.1404 56.6102C82.3624 56.6102 82.5104 56.7582 82.5104 56.9802C82.5104 57.1652 82.1404 57.3502 81.6964 57.3502C80.9194 57.3502 80.9564 57.4242 81.9554 58.0162C83.6574 59.0522 85.4704 61.3092 86.7284 64.0102C87.8014 66.2302 87.8754 66.7112 87.8754 70.4852C87.8754 73.8522 87.7274 74.8512 87.0984 76.2572C86.3214 77.8852 83.8424 81.0302 83.2874 81.0302C83.1394 81.0302 83.3244 79.9202 83.6574 78.5142C84.6564 74.7032 84.5824 68.6722 83.4724 64.3432C82.3254 59.9402 81.5114 57.9792 80.8824 58.2012C80.1794 58.4972 79.7724 58.1272 78.2554 55.6852C76.7754 53.3172 73.2604 48.9142 72.8164 48.8772C72.5944 48.8402 72.2984 48.6182 69.5604 46.3242C68.8574 45.7322 67.5624 45.0292 66.7114 44.7702C65.6384 44.4372 65.2314 44.1412 65.3794 43.7712C65.5644 43.3272 66.0454 43.2532 67.8214 43.4752C69.0424 43.5862 70.2264 43.8082 70.4484 43.9562C70.8924 44.2152 71.0774 44.2892 72.0764 44.3632C72.6684 44.4372 72.6684 44.4372 72.0394 44.9182C71.4474 45.3992 71.4474 45.4362 72.2244 45.6582C73.5564 45.9912 76.1834 45.9172 78.4774 45.4362C80.5494 45.0292 80.6234 45.0292 82.6584 46.2502C84.8784 47.6192 87.9864 50.5422 87.5794 50.9122C87.4684 51.0232 86.6544 50.8752 85.7664 50.5792C84.8784 50.2462 82.7694 49.8022 81.0674 49.5802C77.7004 49.0992 75.2214 48.2852 72.8534 46.7682C71.2994 45.8062 70.8924 45.7692 71.2254 46.6572C71.4104 47.2122 74.5554 49.2842 75.3694 49.4322C75.6284 49.4692 76.8124 49.9132 78.0334 50.3572C80.2164 51.2082 80.2534 51.2452 79.2544 51.6522C78.3294 52.0592 78.4034 52.0962 80.4754 52.3182C87.3574 53.1692 90.2804 56.3142 90.9094 63.5292C91.0574 65.2682 91.2424 66.1192 91.4644 65.7862C91.9454 65.0462 91.6864 59.9032 91.0944 58.7192C90.8354 58.1272 90.6874 57.5722 90.7614 57.4612C90.9834 57.2762 90.6134 56.7582 88.0974 54.0572C86.2844 52.0962 86.2474 52.0222 87.0614 51.6522C87.5054 51.3932 87.9124 50.8012 87.9864 50.2832C88.1344 49.0622 85.5074 46.3982 82.9544 45.1032C81.9924 44.6222 81.1784 44.2152 81.1044 44.1782C80.6604 43.9562 81.6964 42.8832 82.8064 42.4392C85.9514 41.1442 88.8374 38.1842 88.2824 36.7412C88.0604 36.1492 86.2474 36.2232 84.8784 36.8522C84.5084 37.0372 83.8424 37.1852 83.4354 37.1852C83.0284 37.1482 82.4734 37.2962 82.2514 37.4812C81.2154 38.2582 74.0004 36.7782 74.0004 35.7792C74.0004 35.6312 74.6294 34.5212 75.4064 33.3742C77.4414 30.3402 79.9204 25.0122 79.9204 23.7172C79.9204 22.4222 80.9564 22.8292 83.0284 24.8642C84.1014 25.9372 85.6184 27.4172 86.4324 28.1572C88.3564 29.9332 91.0204 32.8192 91.0204 33.1522C91.0204 33.3002 91.5754 34.1512 92.2414 35.1132C92.9074 36.0382 93.7584 37.4812 94.1654 38.2952C94.5724 39.1092 95.0164 39.8492 95.1644 39.9602C95.5344 40.2562 98.0504 47.5822 98.3464 49.2102C98.4574 49.9132 98.5684 51.4672 98.6054 52.6142C98.6054 53.7982 98.6794 54.7602 98.7904 54.7602C99.1234 54.7602 98.8274 62.6412 98.4204 65.0092C97.9764 67.7472 96.0154 73.8152 95.2384 74.9992C94.9794 75.4432 94.7204 76.0722 94.7204 76.4052C94.7204 76.7012 94.5724 76.9602 94.3874 76.9602C94.2024 76.9602 93.9064 77.3302 93.7584 77.7742C92.8704 80.6232 82.5104 91.7602 80.7714 91.7602C80.5124 91.7602 80.2904 91.9082 80.2904 92.1302C80.2904 92.3152 80.0314 92.5002 79.7354 92.5002C79.4394 92.5002 79.1804 92.6482 79.1804 92.8332C79.1804 93.0182 78.6994 93.3512 78.0704 93.6102C77.4784 93.8692 76.9604 94.2022 76.9604 94.3872C76.9604 94.5722 76.7384 94.7202 76.4424 94.7202C76.1464 94.7202 75.4434 94.9792 74.8514 95.2752C72.8534 96.3112 67.9324 98.0502 66.2674 98.3092C61.0874 99.1232 60.8654 98.9012 63.4554 96.0522C64.3804 95.0532 65.1204 94.0912 65.1204 93.9062C65.1204 93.7212 65.2684 93.6472 65.4904 93.7952C65.6754 93.9062 65.7494 94.2392 65.6014 94.5352C65.1574 95.7192 66.2674 95.0162 67.3404 93.4252C71.3364 87.6162 72.5204 81.0672 70.7814 74.6662C70.3004 72.8902 70.2634 72.0762 70.6334 69.5972C71.5214 63.5292 69.4124 57.5352 64.9354 53.3172C63.6034 52.0962 63.2704 51.5042 63.4184 50.9122C63.5294 50.5052 63.6404 50.0242 63.6404 49.8392C63.6404 49.6912 63.9734 49.5802 64.4174 49.5802C65.5644 49.5802 64.8984 48.9512 63.4554 48.6922C61.2724 48.2852 60.6804 48.6552 60.6804 50.4312C60.6804 52.9102 59.9774 54.7232 58.4234 56.4252C56.1664 58.8672 53.9834 59.6072 48.2854 59.9402C42.6244 60.2362 40.3674 61.0132 38.2584 63.3812C37.0374 64.7132 36.9264 65.0092 37.1114 66.4522L37.2594 68.0432L35.9274 67.3772C32.0794 65.3792 31.1914 61.4202 34.6324 61.4202C36.4084 61.4202 38.0734 60.6432 39.5534 59.0522C40.2564 58.3122 41.1444 57.7202 41.5144 57.7202C42.5504 57.7202 42.2914 57.2762 40.5154 55.9812L38.9244 54.8342L38.4804 55.9072C37.8514 57.3502 36.3714 58.3862 34.3734 58.6822C31.3394 59.1632 29.6004 60.7172 29.6004 62.9372V63.7512L28.6384 62.8632C26.7514 61.1242 25.7154 57.7942 26.1224 54.7602L26.3444 53.0212L28.3054 52.7992C31.7834 52.4292 33.7444 51.0232 35.7054 47.5452C36.2974 46.5092 37.5554 44.6962 38.5174 43.4382C40.4784 40.9592 46.9904 35.1872 46.9904 35.9642C46.9904 36.2232 46.7314 37.2222 46.4354 38.1842C46.1394 39.1832 46.0284 39.9602 46.1764 39.9602C46.6944 39.9602 49.0994 37.2222 50.6904 34.7802C51.5784 33.4482 52.9844 31.7462 53.7984 30.9322C55.7224 29.1562 59.7184 27.1952 63.0854 26.4182C64.5284 26.1222 66.7484 25.6042 68.0434 25.3082C73.2234 24.1242 77.2934 20.9422 78.6624 17.0572C79.3284 15.2442 79.3654 15.2072 79.6984 16.1322C79.8834 16.6872 79.8464 18.1672 79.5874 19.7952ZM59.7184 15.8362C60.0514 16.3912 59.2374 16.9832 54.9454 19.2402C51.5414 21.0162 51.0974 21.2752 49.6544 22.4222C47.6194 24.0872 47.0274 24.7902 45.8804 27.1952C44.6964 29.7112 44.2154 31.7832 44.5854 32.8932C44.7704 33.4852 45.1404 33.6702 46.0654 33.6702C46.7684 33.6702 47.4344 33.4852 47.5454 33.3002C47.6934 33.0782 47.9894 32.9672 48.2114 33.0042C48.4704 33.0412 49.2104 32.7822 49.8764 32.4492C51.0974 31.7832 51.3934 31.8942 50.6164 32.7452C49.4324 33.9662 48.8404 34.8172 48.8404 35.3352C48.8404 35.9642 47.8784 36.0752 47.5084 35.4832C47.1384 34.8542 45.2144 35.3722 43.9564 36.4452C42.6244 37.5922 42.0324 37.6292 42.3654 36.5932C42.7724 35.3722 39.5534 32.5602 37.7774 32.5602H36.4454L39.0354 34.2622C40.4784 35.2242 41.6994 36.0382 41.7734 36.1122C41.8474 36.1862 41.1814 36.8892 40.2934 37.7032L38.6654 39.1462L37.8144 36.3342C36.8154 33.0782 36.7044 32.9302 36.2604 33.6702C36.0014 34.1142 35.8904 34.0772 35.6684 33.4852C35.5204 33.0782 35.2984 32.6712 35.1874 32.5602C35.0764 32.4492 34.6694 31.7832 34.3364 31.0062C33.6334 29.5262 31.7834 27.9722 30.2664 27.6022C28.6384 27.2322 29.0454 27.9722 31.1914 29.2672L33.1894 30.4512L34.4474 34.4472C35.1504 36.6672 35.5944 38.4802 35.4464 38.4802C35.3354 38.4802 34.3364 37.7032 33.3004 36.7042C31.7094 35.2242 31.2284 34.4472 30.1924 31.6352C29.5264 29.7852 28.7864 28.2682 28.5644 28.2682C28.3054 28.2312 27.9724 28.1942 27.7504 28.1572C27.5654 28.1572 27.2324 27.4172 27.0104 26.5662C26.4554 24.5682 24.2724 22.3482 22.5334 22.0152C20.5354 21.6452 20.1654 22.3482 20.9424 25.0492C21.2754 26.2332 21.5714 27.6022 21.6454 28.1202C21.6824 28.6382 21.9414 29.0082 22.1634 28.9712C22.3854 28.8972 22.5704 29.0822 22.5704 29.3412C22.5704 29.5632 22.9774 30.2292 23.4584 30.7472C25.2344 32.7822 27.5654 33.2262 27.9724 31.5982L28.1944 30.6732L28.8234 31.7092C29.1564 32.2642 29.7484 33.5222 30.0814 34.4472C31.3394 37.7402 35.0764 39.9602 36.3714 38.1102C36.8524 37.4442 36.8894 37.4442 37.5184 38.4802C37.8514 39.1092 38.3694 39.5902 38.6654 39.5902C39.6644 39.5902 39.4424 40.5522 38.1474 42.0322C36.2604 44.1782 35.8164 44.8072 34.9654 46.4722C33.4114 49.5062 30.1924 51.8002 27.4544 51.8002C27.0104 51.8002 26.3444 52.1702 25.9004 52.6142C25.2714 53.2802 25.1604 53.9092 25.1604 56.3142C25.1604 58.1642 25.3454 59.6072 25.7154 60.2732C26.0114 60.8652 26.1594 61.4202 26.0484 61.4942C25.7524 61.8272 28.4904 64.0102 29.1934 64.0102C29.5634 64.0102 30.0814 63.7512 30.3404 63.4552C30.9694 62.6782 31.4504 62.7522 31.4504 63.6772C31.4504 66.4522 36.0384 69.6342 37.6664 68.0062C37.9254 67.7472 38.1104 67.1182 38.1104 66.5632C38.1104 65.3792 39.5904 63.4922 41.1074 62.6782C41.6994 62.3822 42.2544 62.1602 42.3654 62.1602C42.4764 62.1602 43.0314 61.9382 43.6604 61.6052C44.3634 61.2352 45.8064 61.0502 47.9894 61.0502C49.8764 61.0502 52.2074 60.7912 53.4654 60.4582C57.5354 59.3482 57.4984 59.3482 56.9804 60.3102C56.2774 61.6052 56.6844 65.0832 57.6464 65.8602L58.3864 66.4892L57.6094 67.0072C55.4264 68.4132 52.5404 72.1132 52.5404 73.4452C52.5404 73.7412 52.9844 74.1112 53.5024 74.2222C54.3904 74.4442 54.4274 74.5182 53.7984 74.8512C53.4284 75.0732 51.6894 75.3692 49.9504 75.5172C47.0274 75.7392 44.4004 76.6642 44.4004 77.4042C44.4004 77.5892 44.1414 77.7002 43.8454 77.7002C43.5494 77.7002 43.2904 77.8482 43.2904 78.0702C43.2904 78.2552 43.0684 78.4402 42.8464 78.4402C42.5874 78.4402 41.2924 79.4392 39.9604 80.6602C38.6284 81.8812 37.4074 82.8802 37.2594 82.8802C37.0744 82.8802 37.0374 83.0282 37.1854 83.2132C37.2964 83.3982 37.2224 83.6572 37.0004 83.8052C36.4454 84.1382 36.5564 85.4702 37.1484 85.6922C38.2584 86.0992 37.2964 86.9502 35.7424 86.9502C34.0774 86.9502 31.0804 88.5412 31.0804 89.4292C31.0804 90.7612 28.7494 89.2812 25.4934 85.9512C24.1614 84.5822 22.6074 82.7322 22.0154 81.8442C21.4604 80.9932 20.8684 80.2902 20.7204 80.2902C20.5724 80.2902 20.3134 79.8832 20.2024 79.4022C20.0914 78.8842 19.7584 78.2552 19.4994 77.9962C18.5374 77.0342 16.2804 71.8172 16.2804 70.5592C16.2804 70.1892 16.0214 69.4862 15.6884 69.0052C15.3554 68.4872 15.1704 68.0802 15.2814 68.0802C15.4294 68.0802 15.2814 67.4512 15.0224 66.6742C14.7634 65.9342 14.5784 64.6762 14.5784 63.9362C14.6154 63.1592 14.4674 62.5302 14.3194 62.5302C14.1344 62.5302 14.0974 59.9772 14.1714 56.8692C14.3934 50.2092 14.3194 50.8012 15.2444 47.5452C15.6514 46.1022 15.9844 44.7702 16.0584 44.5852C16.4654 42.8832 18.4634 38.5172 19.9434 36.0752C22.6444 31.6352 22.8294 30.1922 20.9424 28.8232C20.0914 28.1572 19.7214 28.0832 19.2034 28.4532C18.4264 28.8972 17.2794 29.0452 17.9824 28.5642C18.9444 27.9352 19.2404 24.5682 18.3894 23.8652C18.1304 23.6432 17.9084 23.2732 17.8344 22.9772C17.7604 22.6812 17.3904 21.9782 16.9834 21.4232C16.6134 20.8682 16.2804 20.2392 16.2804 20.0542C16.2804 19.8322 16.1694 19.6102 16.0214 19.5362C15.6884 19.4252 14.0604 16.5022 14.0604 16.1322C14.0604 15.8362 17.9454 17.9452 19.4994 19.0922C20.1284 19.5732 20.8314 19.9802 21.0164 19.9802C21.2384 19.9802 21.4974 20.2392 21.6084 20.5722C21.7194 20.8682 22.0154 21.0162 22.2004 20.9052C22.4224 20.7572 22.5334 20.8682 22.4964 21.1642C22.3854 21.6452 23.8284 21.6822 25.7524 21.2752C26.4554 21.1272 26.5294 21.2012 26.3074 22.3112C26.0854 23.3102 26.1964 23.6062 27.0474 24.3092C27.6024 24.7902 28.4534 25.1602 28.9714 25.1602C29.7484 25.1602 31.5984 24.0502 32.1904 23.2732C32.3014 23.1252 33.2634 22.5702 34.2994 22.0152C35.3724 21.4972 36.3344 20.9052 36.4454 20.7202C36.5564 20.5352 36.8894 20.4612 37.1854 20.6092C37.4814 20.7202 37.7404 20.6092 37.7404 20.3872C37.7404 20.1652 38.0734 19.9802 38.4434 19.9802C38.8504 19.9802 39.2944 19.7952 39.4054 19.5732C39.6274 19.2402 40.8484 18.6112 41.9954 18.2782C45.9914 17.0572 49.2474 16.3542 51.8744 16.1322C53.3174 15.9842 54.5754 15.8732 54.6124 15.7992C54.9084 15.5032 59.5334 15.5402 59.7184 15.8362ZM67.5994 16.5762C68.9684 17.8342 73.6674 19.3882 75.0364 19.0552C75.5914 18.9072 76.1464 18.6112 76.2944 18.3892C76.4794 18.1302 76.5904 18.0932 76.5904 18.3522C76.5904 18.5372 75.7024 19.5732 74.6664 20.5722C72.6684 22.4592 70.5594 23.6802 69.3014 23.6802C68.9314 23.6802 68.4134 23.8652 68.1544 24.1242C67.9324 24.3462 67.1924 24.6052 66.5264 24.6422C65.5274 24.7162 63.2704 25.2342 59.0154 26.4182C58.5714 26.5662 56.3514 27.6392 55.1304 28.3052C54.6494 28.6012 54.1684 28.7492 54.0944 28.6752C54.0204 28.6012 54.3164 27.7872 54.7604 26.8622C55.4634 25.3822 55.9814 24.7902 57.9424 23.4212C58.4234 23.0512 59.8664 22.2002 61.0504 21.5712C62.1234 21.0162 65.1204 18.1672 65.1204 17.6862C65.1204 17.3532 66.2304 15.5402 66.4154 15.5402C66.4894 15.5402 67.0074 15.9842 67.5994 16.5762ZM85.7664 21.8302C96.3854 29.8222 102.564 41.9582 103.119 55.8332C103.378 62.1972 102.897 66.0082 101.195 71.2622C95.8674 87.6162 82.4364 99.4932 65.4904 102.749C58.9414 104.007 49.0254 103.341 42.2914 101.195C38.2584 99.9002 31.0434 96.2002 27.9354 93.9062C16.4654 85.3222 9.91637 72.2612 9.87937 57.9052C9.87937 49.9132 11.2484 43.6972 14.5044 37.2222C16.0584 34.1512 19.4994 28.8602 19.9804 28.8602C20.1284 28.8602 20.4614 29.5262 20.7204 30.3032C21.1644 31.7092 21.1644 31.8202 19.4624 34.5212C17.2054 38.1102 15.3554 42.5132 14.1344 46.9162C13.2834 50.1352 13.1724 51.2082 13.1724 57.1652C13.1354 61.5682 13.3204 64.5652 13.6534 66.0452C15.1334 72.5202 18.2784 79.2172 22.1264 84.0272C24.6424 87.1722 29.8224 91.8712 30.5624 91.6862C30.7844 91.6122 31.5614 90.8352 32.2644 89.9102L33.5224 88.2452L39.4054 88.0232C42.6614 87.9122 45.6954 87.6902 46.1764 87.5422C46.6574 87.3572 46.9904 87.4312 46.9904 87.6532C46.9904 87.8752 46.8424 88.0602 46.6204 88.0602C45.9914 88.0602 41.5144 92.5002 40.3674 94.3132C39.0354 96.3482 38.9614 96.7922 39.8864 97.0512C40.2194 97.1252 40.7744 97.3472 41.1074 97.4582C41.5514 97.6432 41.9954 97.2362 42.8094 95.7562C44.6964 92.4262 48.8404 89.1332 56.1294 85.1002C61.1244 82.3622 64.1584 80.1422 66.4154 77.5892C67.3034 76.5532 68.1914 75.8132 68.3024 75.9612C68.4504 76.1092 68.6724 77.5892 68.7464 79.2912C69.0794 85.6922 66.6004 90.9462 60.1624 97.6062L57.5724 100.27H59.2004C65.5644 100.27 74.5924 97.3842 80.4754 93.4992C90.4284 86.9502 96.8294 77.6262 99.2714 66.2302C100.159 62.0492 100.307 53.2802 99.5674 49.7652C97.4584 39.6642 91.7234 30.2292 84.1014 24.3832C82.2514 22.9402 82.1404 22.7552 82.1404 21.2382C82.1404 20.3502 82.2884 19.6102 82.4734 19.6102C82.6954 19.6102 84.1384 20.6092 85.7664 21.8302ZM23.7174 23.9392C25.2714 25.0492 25.4934 25.3822 26.2334 28.0092C26.6774 29.6002 27.1214 31.1912 27.2324 31.5242C27.5654 32.5972 26.9364 32.3012 25.1234 30.5252C23.7914 29.2672 23.1624 28.1942 22.3854 26.0112C21.7934 24.4202 21.2754 22.9032 21.1644 22.6072C20.9424 21.9782 21.2014 22.1262 23.7174 23.9392ZM62.9374 52.9842C63.3074 53.6502 63.2334 53.8722 62.4934 54.4272C61.6794 55.0562 61.6054 55.0562 61.3834 54.4642C61.2354 54.1312 61.2354 53.6502 61.3834 53.4652C61.4944 53.2432 61.6054 52.9842 61.6424 52.7992C61.7534 52.2442 61.7904 52.1702 62.1604 52.1702C62.3454 52.1702 62.6784 52.5402 62.9374 52.9842ZM64.4914 58.2752C64.4544 59.7922 62.9374 62.5302 61.5314 63.6402C60.5324 64.4172 58.0534 65.6012 57.9054 65.4162C57.6094 65.0462 57.4984 60.6802 57.7574 60.6802C58.4234 60.6802 61.1244 57.9052 61.8644 56.4992L62.6044 55.0192L63.5664 55.9812C64.2694 56.6842 64.5284 57.3132 64.4914 58.2752ZM67.6364 58.7562C68.1544 59.6812 68.2284 61.0502 67.7474 61.0502C67.5624 61.0502 67.3404 60.8282 67.2294 60.5692C67.1184 60.1992 66.8964 60.1992 66.2674 60.5692C65.1574 61.2352 65.1204 61.1982 65.5644 59.7182C65.7864 58.8302 65.7864 58.0532 65.5274 57.2762C65.3054 56.6472 65.1204 56.0552 65.1204 55.9812C65.1204 55.6852 67.1554 57.9422 67.6364 58.7562ZM67.5624 62.7522C67.7104 63.4922 67.5994 64.7132 67.3774 65.4902C66.8224 67.3402 64.1584 70.2632 61.9014 71.5212C59.9404 72.5572 56.0924 73.6302 54.1314 73.6302H52.9104L54.3534 72.1502C55.1304 71.3362 55.9814 70.1892 56.2404 69.5972C56.5734 68.7832 56.9804 68.4502 58.0164 68.2652C61.1984 67.6732 65.0464 64.8242 66.0824 62.2712C66.7114 60.7912 67.2294 60.9392 67.5624 62.7522ZM69.7454 68.2282C69.6344 69.2272 69.2644 70.5222 68.9684 71.1142C68.6724 71.6692 68.5614 72.1502 68.7094 72.1502C69.0794 72.1502 70.0044 75.8872 69.7454 76.1462C69.6344 76.2572 69.2644 76.0722 68.9314 75.7762C67.8584 74.8512 67.0444 74.7032 66.8594 75.4062C66.7484 75.8502 66.6744 75.8132 66.6374 75.1842C66.6374 74.7402 66.7114 74.3702 66.8964 74.3702C67.0444 74.3702 67.3404 73.7782 67.5624 73.0752C68.1174 71.3732 67.5254 70.4482 66.0824 70.8182C65.0094 71.0772 64.8984 71.2992 67.2294 68.5242C67.7104 67.9692 68.0804 67.2662 68.0804 66.9702C68.0804 66.6372 68.3764 66.0082 68.7094 65.6012L69.3754 64.7872L69.6714 65.6012C69.8564 66.0452 69.8934 67.2292 69.7454 68.2282ZM67.3404 71.3732C67.3404 72.2982 64.0474 76.4052 61.8644 78.1812C56.3514 82.6952 50.5054 84.6562 41.6254 84.9522L36.8154 85.1372L39.0354 83.0652C40.2564 81.9182 42.7354 79.9942 44.5114 78.7732L47.7674 76.5902H50.9864C57.2024 76.5532 62.6414 74.9622 65.8604 72.1872C67.3034 70.9292 67.3404 70.9292 67.3404 71.3732ZM53.6504 85.2112C53.2804 85.5442 53.2434 85.5442 53.4284 85.1002C53.6504 84.6562 53.6134 84.6932 53.2064 85.1372C52.9474 85.4702 52.1334 86.0252 51.4304 86.3952C50.7644 86.7652 49.9504 87.2832 49.6544 87.5792C49.3584 87.8382 48.6554 88.3192 48.1004 88.6152C47.1014 89.1332 47.0644 89.1332 47.2864 88.3562C47.3974 87.8382 47.2494 87.3942 46.8054 87.0982C45.8804 86.3952 46.6944 85.4702 48.2484 85.4332C48.8774 85.4332 50.3944 85.1372 51.6154 84.7672C53.7614 84.1752 54.5754 84.3602 53.6504 85.2112Z" fill="white"/>
<path d="M71.41 29.1562C70.707 29.4522 68.265 30.0812 65.971 30.5252C60.051 31.7832 57.757 33.1522 56.462 36.3342C55.537 38.5542 55.648 38.9242 57.276 38.6652C64.232 37.5182 66.267 36.8522 69.005 34.5952C70.485 33.3742 73.075 29.5632 72.816 28.9342C72.779 28.7492 72.113 28.8602 71.41 29.1562ZM70.3 31.3022C70.3 31.3762 69.671 32.0792 68.931 32.8562C67.377 34.4102 65.12 36.1122 65.12 35.6682C65.12 35.4832 64.935 35.5572 64.676 35.8162C64.417 36.0752 63.788 36.2602 63.27 36.2602C62.752 36.2602 62.16 36.4082 61.975 36.5932C61.753 36.7782 60.828 37.0002 59.866 37.1112C57.424 37.4072 57.202 36.5932 59.274 34.6692C60.976 33.0782 62.456 32.3382 64.454 32.0052C65.12 31.8942 66.341 31.6722 67.155 31.5242C68.709 31.1912 70.3 31.0802 70.3 31.3022Z" fill="white"/>
<path d="M44.6962 44.4003C43.9562 44.8073 43.0312 45.5843 42.6242 46.1393C41.8472 47.2493 40.8852 50.2463 41.2182 50.6163C41.3292 50.7273 41.9582 50.6533 42.6242 50.4683C43.4382 50.2463 43.8822 49.8393 43.9562 49.3583C44.1782 47.9153 46.0282 46.5463 48.0632 46.3243C49.5062 46.2133 50.1352 45.9173 50.8382 45.1033C51.3562 44.5113 51.8002 43.9563 51.8002 43.8453C51.8002 43.7343 50.5052 43.6603 48.9512 43.6603C46.8422 43.6973 45.6952 43.8823 44.6962 44.4003Z" fill="white"/>
<path d="M29.8598 55.3892C29.3048 56.0552 29.0828 56.7212 29.1938 57.6092C29.2678 58.3492 29.8968 58.1642 30.1558 57.3502C30.3038 56.8692 30.8218 56.4992 31.4878 56.3512C32.8198 56.0922 32.8568 55.7592 31.6358 55.2042C30.4518 54.6492 30.5628 54.6492 29.8598 55.3892Z" fill="white"/>
<path d="M22.9403 40.8852C22.6813 41.1812 22.2373 41.4402 21.9783 41.4402C21.6823 41.4402 21.4603 41.6992 21.4603 41.9952C21.4603 42.2912 21.3123 42.5502 21.1273 42.5502C20.4983 42.5502 20.3503 43.7712 20.9053 44.4002C21.2013 44.7332 21.4603 45.2142 21.4603 45.4362C21.4603 45.6952 21.6453 45.8802 21.9043 45.8802C22.1263 45.8802 22.6443 46.1762 23.0143 46.5092C23.6803 47.1012 23.7913 47.1012 25.0123 46.4352C25.6783 46.0652 26.2703 45.5472 26.2703 45.2512C26.2703 44.9922 26.4183 44.7702 26.6033 44.7702C27.2693 44.7702 27.3803 43.5492 26.7883 42.5502C26.1963 41.5882 24.4943 40.3302 23.7543 40.3302C23.5693 40.3302 23.1993 40.5892 22.9403 40.8852ZM24.7163 42.0692C24.7903 42.5872 25.1603 42.9202 25.6413 42.9942C26.7513 43.1422 26.6773 44.1782 25.5303 44.4002C24.9013 44.5112 24.6053 44.8442 24.6053 45.3252C24.6053 45.7322 24.3093 46.1022 23.9763 46.1762C23.4953 46.2872 23.3103 46.0652 23.3103 45.3622C23.3103 44.6222 23.0883 44.4372 22.3113 44.3262C21.0163 44.1782 20.9423 43.2162 22.2003 42.9202C22.7923 42.7722 23.1623 42.4022 23.2363 41.8842C23.3843 40.7742 24.5683 40.9592 24.7163 42.0692Z" fill="white"/>
<path d="M22.94 68.08C22.533 68.487 22.052 68.82 21.904 68.82C21.719 68.82 21.349 69.227 21.09 69.745C20.683 70.522 20.683 70.818 21.275 71.965C22.2 73.63 23.643 74.259 25.16 73.593C25.752 73.297 26.27 72.927 26.27 72.779C26.27 72.594 26.529 72.224 26.825 71.928C27.121 71.595 27.38 71.151 27.38 70.892C27.38 70.152 25.937 68.487 24.753 67.895C23.791 67.377 23.643 67.377 22.94 68.08ZM24.716 69.338C24.827 70.115 25.012 70.3 25.641 70.226C26.159 70.152 26.492 70.337 26.566 70.744C26.677 71.262 26.455 71.41 25.752 71.41C24.975 71.41 24.79 71.595 24.79 72.335C24.79 73.001 24.605 73.26 24.05 73.26C23.495 73.26 23.31 73.001 23.31 72.335C23.31 71.595 23.125 71.41 22.385 71.41C21.793 71.41 21.46 71.188 21.46 70.855C21.46 70.522 21.793 70.3 22.385 70.3C23.125 70.3 23.31 70.115 23.31 69.449C23.31 67.747 24.531 67.636 24.716 69.338Z" fill="white"/>
<path d="M28.9348 72.4094C28.0838 72.7424 27.7138 73.8894 28.1578 74.8884C28.6758 76.0354 29.8968 76.3684 30.9698 75.6284C32.9308 74.3704 31.1548 71.5214 28.9348 72.4094ZM30.7108 73.4454C31.3768 74.2224 30.8958 75.1104 29.7858 75.1104C29.0458 75.1104 28.8608 74.9254 28.8608 74.2594C28.8608 72.8164 29.8228 72.4094 30.7108 73.4454Z" fill="white"/>
<path d="M132.464 51.794C129.748 51.794 127.242 51.164 124.946 49.904C122.678 48.616 120.872 46.838 119.528 44.57C118.212 42.274 117.554 39.698 117.554 36.842C117.554 33.986 118.212 31.424 119.528 29.156C120.872 26.888 122.678 25.124 124.946 23.864C127.242 22.576 129.748 21.932 132.464 21.932C135.208 21.932 137.714 22.576 139.982 23.864C142.278 25.124 144.084 26.888 145.4 29.156C146.716 31.424 147.374 33.986 147.374 36.842C147.374 39.698 146.716 42.274 145.4 44.57C144.084 46.838 142.278 48.616 139.982 49.904C137.714 51.164 135.208 51.794 132.464 51.794ZM132.464 47.636C134.396 47.636 136.118 47.202 137.63 46.334C139.142 45.438 140.318 44.178 141.158 42.554C142.026 40.902 142.46 38.998 142.46 36.842C142.46 34.686 142.026 32.796 141.158 31.172C140.318 29.548 139.142 28.302 137.63 27.434C136.118 26.566 134.396 26.132 132.464 26.132C130.532 26.132 128.81 26.566 127.298 27.434C125.786 28.302 124.596 29.548 123.728 31.172C122.888 32.796 122.468 34.686 122.468 36.842C122.468 38.998 122.888 40.902 123.728 42.554C124.596 44.178 125.786 45.438 127.298 46.334C128.81 47.202 130.532 47.636 132.464 47.636ZM163.762 27.98C165.582 27.98 167.206 28.358 168.634 29.114C170.09 29.87 171.224 30.99 172.036 32.474C172.848 33.958 173.254 35.75 173.254 37.85V51.5H168.508V38.564C168.508 36.492 167.99 34.91 166.954 33.818C165.918 32.698 164.504 32.138 162.712 32.138C160.92 32.138 159.492 32.698 158.428 33.818C157.392 34.91 156.874 36.492 156.874 38.564V51.5H152.086V28.358H156.874V31.004C157.658 30.052 158.652 29.31 159.856 28.778C161.088 28.246 162.39 27.98 163.762 27.98ZM177.765 39.908C177.765 37.528 178.241 35.442 179.193 33.65C180.173 31.83 181.517 30.43 183.225 29.45C184.933 28.47 186.893 27.98 189.105 27.98C191.905 27.98 194.215 28.652 196.035 29.996C197.883 31.312 199.129 33.202 199.773 35.666H194.607C194.187 34.518 193.515 33.622 192.591 32.978C191.667 32.334 190.505 32.012 189.105 32.012C187.145 32.012 185.577 32.712 184.401 34.112C183.253 35.484 182.679 37.416 182.679 39.908C182.679 42.4 183.253 44.346 184.401 45.746C185.577 47.146 187.145 47.846 189.105 47.846C191.877 47.846 193.711 46.628 194.607 44.192H199.773C199.101 46.544 197.841 48.42 195.993 49.82C194.145 51.192 191.849 51.878 189.105 51.878C186.893 51.878 184.933 51.388 183.225 50.408C181.517 49.4 180.173 48 179.193 46.208C178.241 44.388 177.765 42.288 177.765 39.908ZM216.515 27.98C218.279 27.98 219.847 28.358 221.219 29.114C222.619 29.87 223.711 30.99 224.495 32.474C225.307 33.958 225.713 35.75 225.713 37.85V51.5H220.967V38.564C220.967 36.492 220.449 34.91 219.413 33.818C218.377 32.698 216.963 32.138 215.171 32.138C213.379 32.138 211.951 32.698 210.887 33.818C209.851 34.91 209.333 36.492 209.333 38.564V51.5H204.545V20.42H209.333V31.046C210.145 30.066 211.167 29.31 212.399 28.778C213.659 28.246 215.031 27.98 216.515 27.98ZM230.224 39.824C230.224 37.5 230.7 35.442 231.652 33.65C232.632 31.858 233.948 30.472 235.6 29.492C237.28 28.484 239.128 27.98 241.144 27.98C242.964 27.98 244.546 28.344 245.89 29.072C247.262 29.772 248.354 30.654 249.166 31.718V28.358H253.996V51.5H249.166V48.056C248.354 49.148 247.248 50.058 245.848 50.786C244.448 51.514 242.852 51.878 241.06 51.878C239.072 51.878 237.252 51.374 235.6 50.366C233.948 49.33 232.632 47.902 231.652 46.082C230.7 44.234 230.224 42.148 230.224 39.824ZM249.166 39.908C249.166 38.312 248.83 36.926 248.158 35.75C247.514 34.574 246.66 33.678 245.596 33.062C244.532 32.446 243.384 32.138 242.152 32.138C240.92 32.138 239.772 32.446 238.708 33.062C237.644 33.65 236.776 34.532 236.104 35.708C235.46 36.856 235.138 38.228 235.138 39.824C235.138 41.42 235.46 42.82 236.104 44.024C236.776 45.228 237.644 46.152 238.708 46.796C239.8 47.412 240.948 47.72 242.152 47.72C243.384 47.72 244.532 47.412 245.596 46.796C246.66 46.18 247.514 45.284 248.158 44.108C248.83 42.904 249.166 41.504 249.166 39.908ZM262.721 25.292C261.853 25.292 261.125 24.998 260.537 24.41C259.949 23.822 259.655 23.094 259.655 22.226C259.655 21.358 259.949 20.63 260.537 20.042C261.125 19.454 261.853 19.16 262.721 19.16C263.561 19.16 264.275 19.454 264.863 20.042C265.451 20.63 265.745 21.358 265.745 22.226C265.745 23.094 265.451 23.822 264.863 24.41C264.275 24.998 263.561 25.292 262.721 25.292ZM265.073 28.358V51.5H260.285V28.358H265.073ZM283.035 27.98C284.855 27.98 286.479 28.358 287.907 29.114C289.363 29.87 290.497 30.99 291.309 32.474C292.121 33.958 292.527 35.75 292.527 37.85V51.5H287.781V38.564C287.781 36.492 287.263 34.91 286.227 33.818C285.191 32.698 283.777 32.138 281.985 32.138C280.193 32.138 278.765 32.698 277.701 33.818C276.665 34.91 276.147 36.492 276.147 38.564V51.5H271.359V28.358H276.147V31.004C276.931 30.052 277.925 29.31 279.129 28.778C280.361 28.246 281.663 27.98 283.035 27.98ZM128.684 60.31C131.792 60.31 134.508 60.912 136.832 62.116C139.184 63.292 140.99 65 142.25 67.24C143.538 69.452 144.182 72.042 144.182 75.01C144.182 77.978 143.538 80.554 142.25 82.738C140.99 84.922 139.184 86.602 136.832 87.778C134.508 88.926 131.792 89.5 128.684 89.5H119.15V60.31H128.684ZM128.684 85.594C132.1 85.594 134.718 84.67 136.538 82.822C138.358 80.974 139.268 78.37 139.268 75.01C139.268 71.622 138.358 68.976 136.538 67.072C134.718 65.168 132.1 64.216 128.684 64.216H123.938V85.594H128.684ZM153.715 69.718C154.415 68.542 155.339 67.632 156.487 66.988C157.663 66.316 159.049 65.98 160.645 65.98V70.936H159.427C157.551 70.936 156.123 71.412 155.143 72.364C154.191 73.316 153.715 74.968 153.715 77.32V89.5H148.927V66.358H153.715V69.718ZM186.256 77.362C186.256 78.23 186.2 79.014 186.088 79.714H168.406C168.546 81.562 169.232 83.046 170.464 84.166C171.696 85.286 173.208 85.846 175 85.846C177.576 85.846 179.396 84.768 180.46 82.612H185.626C184.926 84.74 183.652 86.49 181.804 87.862C179.984 89.206 177.716 89.878 175 89.878C172.788 89.878 170.8 89.388 169.036 88.408C167.3 87.4 165.928 86 164.92 84.208C163.94 82.388 163.45 80.288 163.45 77.908C163.45 75.528 163.926 73.442 164.878 71.65C165.858 69.83 167.216 68.43 168.952 67.45C170.716 66.47 172.732 65.98 175 65.98C177.184 65.98 179.13 66.456 180.838 67.408C182.546 68.36 183.876 69.704 184.828 71.44C185.78 73.148 186.256 75.122 186.256 77.362ZM181.258 75.85C181.23 74.086 180.6 72.672 179.368 71.608C178.136 70.544 176.61 70.012 174.79 70.012C173.138 70.012 171.724 70.544 170.548 71.608C169.372 72.644 168.672 74.058 168.448 75.85H181.258ZM189.372 77.824C189.372 75.5 189.848 73.442 190.8 71.65C191.78 69.858 193.096 68.472 194.748 67.492C196.428 66.484 198.276 65.98 200.292 65.98C202.112 65.98 203.694 66.344 205.038 67.072C206.41 67.772 207.502 68.654 208.314 69.718V66.358H213.144V89.5H208.314V86.056C207.502 87.148 206.396 88.058 204.996 88.786C203.596 89.514 202 89.878 200.208 89.878C198.22 89.878 196.4 89.374 194.748 88.366C193.096 87.33 191.78 85.902 190.8 84.082C189.848 82.234 189.372 80.148 189.372 77.824ZM208.314 77.908C208.314 76.312 207.978 74.926 207.306 73.75C206.662 72.574 205.808 71.678 204.744 71.062C203.68 70.446 202.532 70.138 201.3 70.138C200.068 70.138 198.92 70.446 197.856 71.062C196.792 71.65 195.924 72.532 195.252 73.708C194.608 74.856 194.286 76.228 194.286 77.824C194.286 79.42 194.608 80.82 195.252 82.024C195.924 83.228 196.792 84.152 197.856 84.796C198.948 85.412 200.096 85.72 201.3 85.72C202.532 85.72 203.68 85.412 204.744 84.796C205.808 84.18 206.662 83.284 207.306 82.108C207.978 80.904 208.314 79.504 208.314 77.908ZM247.447 65.98C249.267 65.98 250.891 66.358 252.319 67.114C253.775 67.87 254.909 68.99 255.721 70.474C256.561 71.958 256.981 73.75 256.981 75.85V89.5H252.235V76.564C252.235 74.492 251.717 72.91 250.681 71.818C249.645 70.698 248.231 70.138 246.439 70.138C244.647 70.138 243.219 70.698 242.155 71.818C241.119 72.91 240.601 74.492 240.601 76.564V89.5H235.855V76.564C235.855 74.492 235.337 72.91 234.301 71.818C233.265 70.698 231.851 70.138 230.059 70.138C228.267 70.138 226.839 70.698 225.775 71.818C224.739 72.91 224.221 74.492 224.221 76.564V89.5H219.433V66.358H224.221V69.004C225.005 68.052 225.999 67.31 227.203 66.778C228.407 66.246 229.695 65.98 231.067 65.98C232.915 65.98 234.567 66.372 236.023 67.156C237.479 67.94 238.599 69.074 239.383 70.558C240.083 69.158 241.175 68.052 242.659 67.24C244.143 66.4 245.739 65.98 247.447 65.98ZM284.284 77.362C284.284 78.23 284.228 79.014 284.116 79.714H266.434C266.574 81.562 267.26 83.046 268.492 84.166C269.724 85.286 271.236 85.846 273.028 85.846C275.604 85.846 277.424 84.768 278.488 82.612H283.654C282.954 84.74 281.68 86.49 279.832 87.862C278.012 89.206 275.744 89.878 273.028 89.878C270.816 89.878 268.828 89.388 267.064 88.408C265.328 87.4 263.956 86 262.948 84.208C261.968 82.388 261.478 80.288 261.478 77.908C261.478 75.528 261.954 73.442 262.906 71.65C263.886 69.83 265.244 68.43 266.98 67.45C268.744 66.47 270.76 65.98 273.028 65.98C275.212 65.98 277.158 66.456 278.866 67.408C280.574 68.36 281.904 69.704 282.856 71.44C283.808 73.148 284.284 75.122 284.284 77.362ZM279.286 75.85C279.258 74.086 278.628 72.672 277.396 71.608C276.164 70.544 274.638 70.012 272.818 70.012C271.166 70.012 269.752 70.544 268.576 71.608C267.4 72.644 266.7 74.058 266.476 75.85H279.286ZM293.784 69.718C294.484 68.542 295.408 67.632 296.556 66.988C297.732 66.316 299.118 65.98 300.714 65.98V70.936H299.496C297.62 70.936 296.192 71.412 295.212 72.364C294.26 73.316 293.784 74.968 293.784 77.32V89.5H288.996V66.358H293.784V69.718ZM313.515 89.878C311.695 89.878 310.057 89.556 308.601 88.912C307.173 88.24 306.039 87.344 305.199 86.224C304.359 85.076 303.911 83.802 303.855 82.402H308.811C308.895 83.382 309.357 84.208 310.197 84.88C311.065 85.524 312.143 85.846 313.431 85.846C314.775 85.846 315.811 85.594 316.539 85.09C317.295 84.558 317.673 83.886 317.673 83.074C317.673 82.206 317.253 81.562 316.413 81.142C315.601 80.722 314.299 80.26 312.507 79.756C310.771 79.28 309.357 78.818 308.265 78.37C307.173 77.922 306.221 77.236 305.409 76.312C304.625 75.388 304.233 74.17 304.233 72.658C304.233 71.426 304.597 70.306 305.325 69.298C306.053 68.262 307.089 67.45 308.433 66.862C309.805 66.274 311.373 65.98 313.137 65.98C315.769 65.98 317.883 66.652 319.479 67.996C321.103 69.312 321.971 71.118 322.083 73.414H317.295C317.211 72.378 316.791 71.552 316.035 70.936C315.279 70.32 314.257 70.012 312.969 70.012C311.709 70.012 310.743 70.25 310.071 70.726C309.399 71.202 309.063 71.832 309.063 72.616C309.063 73.232 309.287 73.75 309.735 74.17C310.183 74.59 310.729 74.926 311.373 75.178C312.017 75.402 312.969 75.696 314.229 76.06C315.909 76.508 317.281 76.97 318.345 77.446C319.437 77.894 320.375 78.566 321.159 79.462C321.943 80.358 322.349 81.548 322.377 83.032C322.377 84.348 322.013 85.524 321.285 86.56C320.557 87.596 319.521 88.408 318.177 88.996C316.861 89.584 315.307 89.878 313.515 89.878Z" fill="white"/>
</svg>
