<?xml version="1.0" encoding="utf-8"?>
<!-- Generator: Adobe Illustrator 26.0.0, SVG Export Plug-In . SVG Version: 6.00 Build 0)  -->
<svg version="1.1" id="a" xmlns="http://www.w3.org/2000/svg" xmlns:xlink="http://www.w3.org/1999/xlink" x="0px" y="0px"
	 viewBox="0 0 569 224.2" style="enable-background:new 0 0 569 224.2;" xml:space="preserve">
<style type="text/css">
	.st0{fill:#FFFFFF;}
</style>
<g>
	<path class="st0" d="M105.1,224.2c12.8,0,23.7-7.6,28.6-18.6c1.2-2.7-0.8-5.7-3.7-5.7H80.2c-2.9,0-4.9,3-3.7,5.7
		C81.3,216.6,92.3,224.2,105.1,224.2z"/>
	<path class="st0" d="M181.4,169.8c-8.1,0-14.7-6.6-14.7-14.7v-53.3c0-28.9-19.8-53.1-46.6-59.8c-1-7.6-7.5-13.5-15.3-13.5
		s-14.4,5.9-15.4,13.6c-24,6.2-42.3,26.6-45.6,51.6c0,0.4-0.1,0.7-0.1,1.1c-0.1,0.5-0.1,1-0.2,1.5s-0.1,1-0.1,1.5
		c0,0.4-0.1,0.8-0.1,1.2c0,0.8-0.1,1.7-0.1,2.6c0,0.1,0,0.2,0,0.2V155c0,8.1-6.5,14.6-14.5,14.7c-3.8,0-7,3-7,6.8v0.1
		c0,3.8,3.1,6.9,6.9,6.9h152.8c3.8,0,6.9-3.1,6.9-6.9C188.3,172.9,185.2,169.8,181.4,169.8z"/>
	<g>
		<path class="st0" d="M149.3,31.5c17.2,3.7,30.3,18.5,31.9,36c0.2,1.9,1.9,3.4,3.9,3.2c0.9-0.1,1.8-0.5,2.4-1.3
			c0.6-0.7,0.9-1.7,0.8-2.6c-0.9-10.2-5.1-19.7-11.9-27.3c-6.8-7.6-15.6-12.8-25.6-14.9c-0.2,0-0.5-0.1-0.7-0.1
			c-1.6,0-3.1,1.1-3.5,2.8C146.1,29.3,147.4,31.1,149.3,31.5z"/>
		<path class="st0" d="M153.2,8.8c26.7,5.7,47.2,28.8,49.7,56c0.2,1.9,1.9,3.4,3.9,3.2c0.9-0.1,1.8-0.5,2.4-1.3
			c0.6-0.7,0.9-1.7,0.8-2.6c-1.4-15-7.5-29-17.6-40.3c-10-11.2-23.1-18.8-37.7-22c-0.2,0-0.5-0.1-0.7-0.1c-1.6,0-3.1,1.1-3.5,2.8
			C150.1,6.5,151.3,8.4,153.2,8.8z"/>
		<path class="st0" d="M60.8,31.5c1.9-0.4,3.1-2.3,2.7-4.2c-0.4-1.7-1.8-2.8-3.5-2.8c-0.2,0-0.5,0-0.7,0.1
			c-9.9,2.1-18.8,7.3-25.6,14.9c-6.9,7.7-11,17.1-11.9,27.4c-0.1,0.9,0.2,1.9,0.8,2.6s1.5,1.2,2.4,1.3c2,0.2,3.7-1.3,3.9-3.2
			C30.5,50,43.6,35.2,60.8,31.5z"/>
		<path class="st0" d="M56.8,8.8c1.9-0.4,3.1-2.3,2.7-4.2c-0.4-1.7-1.8-2.8-3.5-2.8c-0.2,0-0.5,0-0.7,0.1
			C40.7,5,27.7,12.6,17.7,23.8C7.6,35.1,1.5,49,0.1,64.1C0,65,0.3,65.9,0.9,66.7s1.5,1.2,2.4,1.3c2,0.2,3.7-1.3,3.8-3.2
			C9.7,37.5,30.1,14.5,56.8,8.8z"/>
	</g>
</g>
<g>
	<g>
		<g>
			<path class="st0" d="M538.6,65.3c-8.2-0.1-15.9,3.1-21.8,8.8V29.3c0-0.3-0.3-0.6-0.6-0.6h-17.3c-0.3,0-0.6,0.3-0.6,0.6v121
				c0,0.3,0.3,0.6,0.6,0.6h17.3c0.3,0,0.6-0.3,0.6-0.6v-49.1c0-9,7-16.7,16.1-17.2c9.7-0.5,17.8,7.2,17.8,16.7v49.6
				c0,0.3,0.3,0.6,0.6,0.6h17.1c0.3,0,0.6-0.3,0.6-0.6V96.2C569,79.5,555.5,65.4,538.6,65.3L538.6,65.3z"/>
			<path class="st0" d="M407.7,62.2h-17.3c-0.3,0-0.6,0.3-0.6,0.6v53.7c0,9.2-7.8,16.6-17.2,16.2c-8.8-0.4-15.6-7.9-15.6-16.7V62.8
				c0-0.3-0.3-0.6-0.6-0.6h-17.2c-0.3,0-0.6,0.3-0.6,0.6v53c0,18.7,14.8,34.6,33.8,35.1c19.7,0.6,35.9-15.1,35.9-34.4V62.8
				C408.2,62.4,408,62.2,407.7,62.2L407.7,62.2z"/>
			<path class="st0" d="M419.9,131.6c3.3,7.3,11.8,19.5,31.7,19.5c22.7,0,32.9-13.4,32.9-26.7c0-14.6-9.6-23.4-29.5-26.9
				c-10.1-1.7-14.4-4.9-14.4-10.7c0-5.4,4.8-9,11.9-9c6.4,0,11.8,3.6,13.8,9.2c0,0.1,0.1,0.2,0.3,0.3s0.2,0.1,0.4,0l14.3-6.4
				c0.2-0.1,0.3-0.4,0.2-0.6c-4.4-11.3-15.3-18-29.1-18c-19.6,0-29.9,12.4-29.9,24.7c0,14.5,9.5,23.2,28.9,26.7
				c10.4,2.1,14.8,5.4,14.8,11c0,6.1-5.4,9.7-14.4,9.7c-6.9,0-13.1-3.9-16-10c-0.1-0.2-0.2-0.3-0.4-0.3c-0.1,0-0.1,0-0.2,0l-15,6.8
				C419.9,131.1,419.8,131.3,419.9,131.6L419.9,131.6z"/>
		</g>
		<path class="st0" d="M290.8,28.9h-43.2c-0.6,0-1.1,0.5-1.1,1.2v120c0,0.6,0.5,1.1,1.1,1.1h16c0.6,0,1.1-0.5,1.1-1.1l0.1-47.1
			c0-0.6,0.5-1.2,1.1-1.2h24.8c20.1,0,35.8-16,35.8-36.5C326.6,44.8,310.8,28.9,290.8,28.9L290.8,28.9z M291.1,83.5h-11.2
			c-4.7,0-8.8,3.1-10.2,7.6l-0.5,1.8c-0.1,0.4-0.5,0.7-0.9,0.7h-2.6c-0.5,0-0.9-0.4-0.9-0.9V48.1c0-0.6,0.5-1.1,1.1-1.1h23.9
			c9.4,0,17.5,6.9,18.5,16.3C309.5,74.3,301.7,83.2,291.1,83.5z"/>
	</g>
</g>
<g>
	<path class="st0" d="M246.4,198.4v-20.5h7.9c3.8,0,7,3,7,6.8c0,3.7-2.8,7-7,7h-3.8v6.7H246.4z M250.5,187.9h2.9
		c2,0,3.5-1.3,3.5-3.3c0-1.9-1.5-3.2-3.5-3.2h-2.9V187.9z"/>
	<path class="st0" d="M284.3,198.4h-5.2l-6.4-7.3h-0.1v7.3h-4.1v-20.5h7.8c4,0,6.9,2.8,6.9,6.5c0,3.3-2.3,6.2-5.9,6.6L284.3,198.4z
		 M272.7,181.5v5.8h3.1c1.8,0,3.2-1.1,3.2-3c0-1.8-1.4-2.8-3.2-2.8H272.7z"/>
	<path class="st0" d="M291.3,198.4v-20.5h13.2v3.7h-9.2v4.4h8.3v3.7h-8.3v5h9.2v3.7L291.3,198.4L291.3,198.4z"/>
	<path class="st0" d="M318.9,198.5l-8.1-20.6h4.5l5.5,15.1l5.5-15.1h4.5l-7.8,20.6H318.9z"/>
	<path class="st0" d="M346.7,181.5h-2.5v13.2h2.5v3.7h-9.2v-3.7h2.5v-13.2h-2.5v-3.7h9.2V181.5z"/>
	<path class="st0" d="M353.9,188.1c0-6,4.7-10.5,10.8-10.5c6.1,0,10.8,4.6,10.8,10.5s-4.7,10.5-10.8,10.5
		C358.6,198.7,353.9,194.1,353.9,188.1z M371.2,188.1c0-3.7-2.7-6.5-6.5-6.5c-3.7,0-6.4,2.9-6.4,6.5s2.7,6.5,6.4,6.5
		C368.5,194.7,371.2,191.8,371.2,188.1z"/>
	<path class="st0" d="M383.4,190.3v-12.4h4.1v12.2c0,2.7,1.6,4.6,4.2,4.6s4.2-1.8,4.2-4.6v-12.2h4.1v12.4c0,5-3.4,8.3-8.3,8.3
		C386.8,198.7,383.4,195.3,383.4,190.3z"/>
	<path class="st0" d="M407.7,193.6l3.3-1.9c0.5,1.5,2,3,4.4,3c2.1,0,3.5-0.9,3.5-2.4c0-1.4-1-2.2-2.6-2.5l-2-0.4
		c-2.9-0.6-5.4-2.4-5.4-5.9c0-2.7,2.3-5.9,7-5.9c3.3,0,5.5,1.7,6.6,3.9l-3.4,2.1c-0.4-1.2-1.6-2.3-3.3-2.3c-1.6,0-2.8,1-2.8,2.1
		c0,1.2,0.8,1.9,2.2,2.1l2.1,0.4c3.9,0.8,5.9,3.1,5.9,6.3c0,3.3-2.7,6.4-7.8,6.4C410.8,198.7,408.6,195.9,407.7,193.6z"/>
	<path class="st0" d="M430.9,198.4v-20.5h4v16.7h8.7v3.8H430.9z"/>
	<path class="st0" d="M454.3,198.4v-7.3l-7.8-13.2h4.7l5.2,9.1l5-9.1h4.7l-7.6,13.1v7.4H454.3z"/>
	<path class="st0" d="M484.6,198.4v-20.5h13.2v3.7h-9.2v4.4h8.3v3.7h-8.3v5h9.2v3.7L484.6,198.4L484.6,198.4z"/>
	<path class="st0" d="M506.3,198.4v-20.5h7.9c3.8,0,7,3,7,6.8c0,3.7-2.8,7-7,7h-3.8v6.7H506.3z M510.4,187.9h2.9
		c2,0,3.5-1.3,3.5-3.3c0-1.9-1.5-3.2-3.5-3.2h-2.9V187.9z"/>
	<path class="st0" d="M542.4,198.5l-10-13.8v13.6h-4v-20.5h3.9l9.4,13v-13h4v20.6L542.4,198.5L542.4,198.5z"/>
	<path class="st0" d="M553.5,193.6l3.3-1.9c0.5,1.5,2,3,4.4,3c2.1,0,3.5-0.9,3.5-2.4c0-1.4-1-2.2-2.6-2.5l-2-0.4
		c-2.9-0.6-5.4-2.4-5.4-5.9c0-2.7,2.3-5.9,7-5.9c3.3,0,5.5,1.7,6.6,3.9l-3.4,2.1c-0.4-1.2-1.6-2.3-3.3-2.3c-1.6,0-2.8,1-2.8,2.1
		c0,1.2,0.8,1.9,2.2,2.1l2.1,0.4c3.9,0.8,5.9,3.1,5.9,6.3c0,3.3-2.7,6.4-7.8,6.4C556.6,198.7,554.3,195.9,553.5,193.6z"/>
</g>
</svg>
