<svg width="1200" height="137" viewBox="0 0 1200 137" fill="none" xmlns="http://www.w3.org/2000/svg">
<path d="M39.089 133.312H61.6206V32.0905H100.539V13.8262H0V32.0905H39.089V133.312Z" fill="#FAFAFB"/>
<path d="M151.243 115.731H151.584V119.315C151.584 128.191 157.217 133.312 167.459 133.312H182.139V115.731H178.554C173.945 115.731 172.238 114.024 172.238 109.415V69.1311C172.238 50.1841 160.973 36.5286 132.467 36.5286C104.302 36.5286 91.1587 49.672 89.7931 69.8139H112.325C113.008 59.4016 120.689 53.598 132.808 53.598C142.879 53.598 150.731 57.6946 150.731 66.2293C150.731 72.7157 146.464 76.471 137.075 76.471H121.884C103.278 76.471 86.2086 84.6643 86.2086 106.172C86.2086 125.802 100.376 136.214 118.64 136.214C133.149 136.214 145.269 129.728 151.243 115.731ZM109.252 105.318C109.252 97.9785 114.032 92.3456 125.298 92.0042L132.296 91.6628C142.026 91.3214 147.488 88.4196 150.39 82.616H150.731V91.3214C150.731 110.781 138.1 118.803 125.298 118.803C114.032 118.803 109.252 112.658 109.252 105.318Z" fill="#FAFAFB"/>
<path d="M192.98 133.312H214.488V0H192.98V133.312Z" fill="#FAFAFB"/>
<path d="M274.235 136.214C297.449 136.214 313.836 123.241 317.933 104.465H295.742C292.841 113.512 284.989 119.145 274.576 119.145C260.238 119.145 251.191 108.562 250.508 92.5162H319.127V82.7867C319.127 52.5738 299.839 36.5286 274.064 36.5286C246.924 36.5286 227.635 55.1342 227.635 86.3713C227.635 117.438 246.412 136.214 274.235 136.214ZM250.679 76.9831C252.045 63.8396 259.726 53.598 274.576 53.598C289.256 53.598 297.449 63.3275 297.449 76.9831H250.679Z" fill="#FAFAFB"/>
<path d="M332.09 133.312H353.597V79.5435C353.597 60.7671 364.18 53.7687 374.934 53.7687C385.517 53.7687 392.686 60.5964 392.686 76.9831V133.312H414.193V74.4227C414.193 49.5013 401.562 36.5286 382.444 36.5286C369.472 36.5286 359.23 42.6735 353.597 53.7687H353.256V39.4304H332.09V133.312Z" fill="#FAFAFB"/>
<path d="M464.736 133.312H489.658V115.731H472.076C464.907 115.731 460.81 112.658 460.81 104.636V57.0119H489.146V39.4304H460.81V13.8262H439.132V39.4304H421.039V57.0119H439.132V107.879C439.132 124.948 448.008 133.312 464.736 133.312Z" fill="#FAFAFB"/>
<path d="M536.01 133.312H558.542V88.2489H589.779C613.676 88.2489 630.916 74.9347 630.916 51.2082C630.916 27.6525 613.676 13.8262 589.779 13.8262H536.01V133.312ZM558.542 69.9846V32.0905H585C598.997 32.0905 607.702 39.601 607.702 51.2082C607.702 62.8155 598.997 69.9846 585 69.9846H558.542Z" fill="#FAFAFB"/>
<path d="M642.98 133.312H664.487V79.3728C664.487 64.0103 670.461 57.0119 683.434 57.0119H696.407V39.4304H687.36C674.899 39.4304 668.925 44.8926 664.487 54.2807H664.146V39.4304H642.98V133.312Z" fill="#FAFAFB"/>
<path d="M745.261 136.214C771.719 136.214 792.885 118.462 792.885 86.3713C792.885 54.2808 771.719 36.5286 745.261 36.5286C718.804 36.5286 697.638 54.2808 697.638 86.3713C697.638 118.462 718.804 136.214 745.261 136.214ZM720.681 86.3713C720.681 64.6931 730.411 53.598 745.261 53.598C760.112 53.598 769.841 64.6931 769.841 86.3713C769.841 108.049 760.112 119.145 745.261 119.145C730.411 119.145 720.681 108.049 720.681 86.3713Z" fill="#FAFAFB"/>
<path d="M838.596 133.312H863.518V115.731H845.936C838.767 115.731 834.671 112.658 834.671 104.636V57.0119H863.006V39.4304H834.671V13.8262H812.992V39.4304H794.899V57.0119H812.992V107.879C812.992 124.948 821.868 133.312 838.596 133.312Z" fill="#FAFAFB"/>
<path d="M914.042 136.214C940.5 136.214 961.666 118.462 961.666 86.3713C961.666 54.2808 940.5 36.5286 914.042 36.5286C887.584 36.5286 866.418 54.2808 866.418 86.3713C866.418 118.462 887.584 136.214 914.042 136.214ZM889.462 86.3713C889.462 64.6931 899.192 53.598 914.042 53.598C928.892 53.598 938.622 64.6931 938.622 86.3713C938.622 108.049 928.892 119.145 914.042 119.145C899.192 119.145 889.462 108.049 889.462 86.3713Z" fill="#FAFAFB"/>
<path d="M1018.35 136.214C1044.47 136.214 1059.66 119.486 1062.39 99.344H1040.2C1039.01 108.22 1032.18 119.145 1018.35 119.145C1003.5 119.145 993.772 106.684 993.772 86.3713C993.772 67.2535 1002.14 53.598 1018.35 53.598C1032.52 53.598 1039.35 63.6689 1040.2 75.2761H1062.39C1060.34 53.2566 1045.32 36.5286 1018.35 36.5286C988.481 36.5286 970.728 56.1584 970.728 86.3713C970.728 116.584 989.846 136.214 1018.35 136.214Z" fill="#FAFAFB"/>
<path d="M1117.66 136.214C1144.12 136.214 1165.29 118.462 1165.29 86.3713C1165.29 54.2808 1144.12 36.5286 1117.66 36.5286C1091.2 36.5286 1070.04 54.2808 1070.04 86.3713C1070.04 118.462 1091.2 136.214 1117.66 136.214ZM1093.08 86.3713C1093.08 64.6931 1102.81 53.598 1117.66 53.598C1132.51 53.598 1142.24 64.6931 1142.24 86.3713C1142.24 108.049 1132.51 119.145 1117.66 119.145C1102.81 119.145 1093.08 108.049 1093.08 86.3713Z" fill="#FAFAFB"/>
<path d="M1178.49 133.312H1200V0H1178.49V133.312Z" fill="#FAFAFB"/>
</svg>
