<svg width="600" height="210" viewBox="0 0 600 210" fill="none" xmlns="http://www.w3.org/2000/svg">
<mask id="mask0_15_78" style="mask-type:luminance" maskUnits="userSpaceOnUse" x="70" y="46" width="450" height="119">
<path d="M520 46H70V164.172H520V46Z" fill="white"/>
</mask>
<g mask="url(#mask0_15_78)">
<path d="M139.216 162.846H70L104.957 100.76H70V79.5719H139.216L104.259 141.657H139.216V162.846Z" fill="white"/>
<path d="M172.312 162.846H150.997V46.2312H172.312V119.768L203.859 79.5719H228.196L200.681 114.315L228.196 162.846H203.859L187.039 132.543L172.312 152.173V162.846Z" fill="white"/>
<path d="M328.759 129.118C328.759 133.74 327.881 138.076 326.123 142.127C324.367 146.178 321.964 149.735 318.915 152.799C315.918 155.811 312.404 158.2 308.374 159.966C304.343 161.731 300.029 162.614 295.43 162.614H239.856V50.9076H295.43C300.029 50.9076 304.343 51.7905 308.374 53.5562C312.404 55.3219 315.918 57.7367 318.915 60.8007C321.964 63.8128 324.367 67.3442 326.123 71.3949C327.881 75.4457 328.759 79.7819 328.759 84.4039C328.759 86.4814 328.475 88.6105 327.906 90.7917C327.338 92.9729 326.537 95.076 325.503 97.1015C324.47 99.127 323.23 100.97 321.783 102.632C320.336 104.294 318.734 105.67 316.978 106.761C318.786 107.748 320.414 109.098 321.861 110.812C323.307 112.473 324.548 114.317 325.581 116.343C326.614 118.368 327.39 120.497 327.906 122.73C328.475 124.911 328.759 127.04 328.759 129.118ZM262.101 140.257H295.43C296.98 140.257 298.427 139.972 299.771 139.4C301.114 138.829 302.276 138.05 303.258 137.064C304.292 136.025 305.093 134.83 305.661 133.48C306.23 132.13 306.514 130.676 306.514 129.118C306.514 127.56 306.23 126.106 305.661 124.756C305.093 123.405 304.292 122.237 303.258 121.25C302.276 120.212 301.114 119.407 299.771 118.835C298.427 118.264 296.98 117.978 295.43 117.978H262.101V140.257ZM262.101 95.6214H295.43C296.98 95.6214 298.427 95.3357 299.771 94.7647C301.114 94.1933 302.276 93.4142 303.258 92.4275C304.292 91.3891 305.093 90.1943 305.661 88.8442C306.23 87.4421 306.514 85.962 306.514 84.4039C306.514 82.8461 306.23 81.392 305.661 80.0416C305.093 78.6915 304.292 77.523 303.258 76.5363C302.276 75.4976 301.114 74.6927 299.771 74.1214C298.427 73.5501 296.98 73.2645 295.43 73.2645H262.101V95.6214Z" fill="white"/>
<path d="M423.553 120.16C423.553 126.391 422.441 132.208 420.221 137.609C417.997 142.958 414.976 147.606 411.15 151.553C407.327 155.448 402.832 158.538 397.665 160.823C392.55 163.056 387.047 164.172 381.156 164.172C375.315 164.172 369.812 163.056 364.647 160.823C359.53 158.538 355.034 155.448 351.159 151.553C347.335 147.606 344.312 142.958 342.091 137.609C339.869 132.208 338.758 126.391 338.758 120.16C338.758 113.824 339.869 107.955 342.091 102.554C344.312 97.1536 347.335 92.5055 351.159 88.6106C355.034 84.6636 359.53 81.5737 364.647 79.3406C369.812 77.1077 375.315 75.991 381.156 75.991C387.047 75.991 392.55 77.0557 397.665 79.1849C402.832 81.262 407.327 84.2483 411.15 88.1432C414.976 91.9862 417.997 96.6342 420.221 102.087C422.441 107.488 423.553 113.512 423.553 120.16ZM402.238 120.16C402.238 116.732 401.671 113.642 400.532 110.89C399.447 108.085 397.95 105.696 396.038 103.723C394.126 101.698 391.877 100.165 389.294 99.127C386.762 98.0363 384.05 97.4909 381.156 97.4909C378.262 97.4909 375.524 98.0363 372.938 99.127C370.406 100.165 368.185 101.698 366.274 103.723C364.412 105.696 362.941 108.085 361.855 110.89C360.77 113.642 360.228 116.732 360.228 120.16C360.228 123.379 360.77 126.365 361.855 129.118C362.941 131.87 364.412 134.259 366.274 136.285C368.185 138.31 370.406 139.92 372.938 141.114C375.524 142.257 378.262 142.828 381.156 142.828C384.05 142.828 386.762 142.283 389.294 141.192C391.877 140.101 394.126 138.57 396.038 136.596C397.95 134.623 399.447 132.234 400.532 129.429C401.671 126.625 402.238 123.535 402.238 120.16Z" fill="white"/>
<path d="M518.347 120.16C518.347 126.703 517.235 132.675 515.015 138.076C512.791 143.477 509.768 148.125 505.944 152.02C502.121 155.863 497.627 158.849 492.459 160.978C487.344 163.108 481.838 164.172 475.95 164.172C470.109 164.172 464.606 163.082 459.438 160.901C454.324 158.72 449.829 155.681 445.953 151.786C442.129 147.891 439.106 143.269 436.885 137.92C434.662 132.52 433.55 126.599 433.55 120.16V46H454.788V84.9493C455.927 83.4952 457.294 82.1971 458.897 81.0543C460.55 79.9119 462.306 78.9772 464.168 78.2501C466.079 77.523 468.044 76.9777 470.059 76.6143C472.074 76.1986 474.038 75.9909 475.95 75.9909C481.838 75.9909 487.344 77.1077 492.459 79.3405C497.627 81.5217 502.121 84.5859 505.944 88.5326C509.768 92.4795 512.791 97.1535 515.015 102.554C517.235 107.903 518.347 113.772 518.347 120.16ZM497.032 120.16C497.032 116.94 496.462 113.953 495.326 111.201C494.241 108.397 492.741 105.982 490.829 103.957C488.918 101.931 486.671 100.347 484.088 99.2047C481.556 98.0623 478.844 97.4909 475.95 97.4909C473.056 97.4909 470.318 98.1403 467.732 99.4384C465.2 100.685 462.979 102.373 461.068 104.502C459.156 106.579 457.656 108.994 456.571 111.746C455.485 114.447 454.944 117.251 454.944 120.16C454.944 123.379 455.485 126.365 456.571 129.118C457.656 131.87 459.156 134.259 461.068 136.284C462.979 138.31 465.2 139.92 467.732 141.114C470.318 142.257 473.056 142.828 475.95 142.828C478.844 142.828 481.556 142.257 484.088 141.114C486.671 139.92 488.918 138.31 490.829 136.284C492.741 134.259 494.241 131.87 495.326 129.118C496.462 126.365 497.032 123.379 497.032 120.16Z" fill="white"/>
</g>
</svg>
