<svg width="164" height="40" viewBox="0 0 164 40" fill="none" xmlns="http://www.w3.org/2000/svg">
<g clip-path="url(#clip0_3421_599)">
<path d="M20 40C31.0457 40 40 31.0457 40 20C40 8.9543 31.0457 0 20 0C8.9543 0 0 8.9543 0 20C0 31.0457 8.9543 40 20 40Z" fill="#222222"/>
<mask id="mask0_3421_599" style="mask-type:luminance" maskUnits="userSpaceOnUse" x="2" y="2" width="36" height="36">
<path d="M20.0727 37.9222C29.9309 37.9222 37.9227 29.9305 37.9227 20.0722C37.9227 10.2139 29.9309 2.22217 20.0727 2.22217C10.2144 2.22217 2.22266 10.2139 2.22266 20.0722C2.22266 29.9305 10.2144 37.9222 20.0727 37.9222Z" fill="white"/>
</mask>
<g mask="url(#mask0_3421_599)">
<path d="M2.94824 23.0759V18.5205C2.94824 18.1112 3.17331 17.735 3.53402 17.5415L5.27065 16.6097C6.01086 16.2125 6.90709 16.7487 6.90709 17.5887V24.2283H7.90189C8.51554 24.2283 9.013 24.7257 9.013 25.3394V27.4145H10.0659V31.6629H12.1718V20.4374C12.1718 20.1443 12.2876 19.8632 12.4939 19.6551L13.4305 18.7103C14.1291 18.0057 15.3307 18.5004 15.3307 19.4926V31.6629H16.3836V24.8765C16.3836 24.0922 17.2104 23.5832 17.9107 23.9364C18.2657 24.1154 18.4895 24.479 18.4895 24.8765V31.6629H19.5425V17.2511C19.5425 16.9581 19.6582 16.6769 19.8645 16.4688L22.7013 13.6074V8.75406L25.013 6.42238C25.7115 5.71775 26.9131 6.21244 26.9131 7.20465V31.6629H27.9661V27.4145H30.072V17.7028C30.072 16.8372 31.0179 16.3041 31.7584 16.7522L34.8009 18.5936C35.1336 18.7949 35.3368 19.1554 35.3368 19.5442V23.1662L36.6679 25.3865C34.4664 32.6496 27.871 37.9225 20.077 37.9225C15.4574 37.9225 11.2589 36.0701 8.14681 33.0487L6.74232 31.4556C6.56474 31.2542 6.39088 31.0498 6.2208 30.8424C4.57173 28.6063 3.42364 25.9587 2.94824 23.0759Z" fill="white"/>
<path d="M2.94824 23.0759V18.5205C2.94824 18.1112 3.17331 17.735 3.53402 17.5415L5.27065 16.6097C6.01086 16.2125 6.90709 16.7487 6.90709 17.5887V24.2283H7.90189C8.51554 24.2283 9.013 24.7257 9.013 25.3394V27.4145H10.0659V31.6629H12.1718V20.4374C12.1718 20.1443 12.2876 19.8632 12.4939 19.6551L13.4305 18.7103C14.1291 18.0057 15.3307 18.5004 15.3307 19.4926V31.6629H16.3836V24.8765C16.3836 24.0922 17.2104 23.5832 17.9107 23.9364C18.2657 24.1154 18.4895 24.479 18.4895 24.8765V31.6629H19.5425V17.2511C19.5425 16.9581 19.6582 16.6769 19.8645 16.4688L22.7013 13.6074V8.75406L25.013 6.42238C25.7115 5.71775 26.9131 6.21244 26.9131 7.20465V31.6629H27.9661V27.4145H30.072V17.7028C30.072 16.8372 31.0179 16.3041 31.7584 16.7522L34.8009 18.5936C35.1336 18.7949 35.3368 19.1554 35.3368 19.5442V23.1662L36.6679 25.3865C34.4664 32.6496 27.871 37.9225 20.077 37.9225C15.4574 37.9225 11.2589 36.0701 8.14681 33.0487L6.74232 31.4556C6.56474 31.2542 6.39088 31.0498 6.2208 30.8424C4.57173 28.6063 3.42364 25.9587 2.94824 23.0759Z" fill="white"/>
</g>
<path d="M123.786 28.052C123.338 28.052 123.002 27.964 122.778 27.788C122.57 27.612 122.466 27.324 122.466 26.924V26.108C121.938 26.636 121.274 27.1 120.474 27.5C119.69 27.9 118.898 28.1 118.098 28.1C116.61 28.1 115.554 27.7 114.93 26.9C114.306 26.1 113.994 24.78 113.994 22.94V15.98L112.65 15.596V14.54L116.01 14.228H116.034L116.49 14.516V22.748C116.49 23.676 116.554 24.404 116.682 24.932C116.826 25.444 117.066 25.828 117.402 26.084C117.754 26.324 118.258 26.444 118.914 26.444C119.554 26.444 120.154 26.308 120.714 26.036C121.274 25.764 121.762 25.444 122.178 25.076V15.98L120.45 15.596V14.54L124.098 14.228H124.122L124.674 14.516V26.612H126.114L126.09 27.692C125.642 27.804 125.25 27.892 124.914 27.956C124.594 28.02 124.218 28.052 123.786 28.052Z" fill="white"/>
<path d="M106.625 9.93169L104.681 9.66769V8.63569L108.545 8.17969H108.593L109.121 8.53969V26.4677L111.161 26.6597V27.8357H104.681V26.6597L106.625 26.4437V9.93169Z" fill="white"/>
<path d="M91.4199 24.236C91.4199 22.732 92.1719 21.628 93.6759 20.924C95.1799 20.204 97.0839 19.82 99.3879 19.772V19.1C99.3879 18.348 99.3079 17.756 99.1479 17.324C98.9879 16.892 98.7079 16.58 98.3079 16.388C97.9239 16.18 97.3719 16.076 96.6519 16.076C95.8359 16.076 95.0999 16.196 94.4439 16.436C93.8039 16.66 93.1639 16.94 92.5239 17.276L91.9239 16.028C92.1319 15.852 92.5159 15.62 93.0759 15.332C93.6359 15.044 94.2839 14.788 95.0199 14.564C95.7559 14.34 96.4919 14.228 97.2279 14.228C98.3639 14.228 99.2599 14.388 99.9159 14.708C100.588 15.012 101.068 15.508 101.356 16.196C101.644 16.884 101.788 17.804 101.788 18.956V26.66H103.204V27.716C102.884 27.796 102.476 27.876 101.98 27.956C101.5 28.036 101.076 28.076 100.708 28.076C100.26 28.076 99.9559 28.004 99.7959 27.86C99.6359 27.732 99.5559 27.436 99.5559 26.972V26.18C99.0759 26.66 98.4839 27.1 97.7799 27.5C97.0919 27.9 96.3079 28.1 95.4279 28.1C94.2759 28.1 93.3159 27.772 92.5479 27.116C91.7959 26.444 91.4199 25.484 91.4199 24.236ZM96.4599 26.468C96.8759 26.468 97.3559 26.34 97.8999 26.084C98.4439 25.828 98.9399 25.524 99.3879 25.172V21.044C97.6439 21.044 96.3239 21.316 95.4279 21.86C94.5479 22.388 94.1079 23.084 94.1079 23.948C94.1079 24.812 94.3159 25.452 94.7319 25.868C95.1639 26.268 95.7399 26.468 96.4599 26.468Z" fill="white"/>
<path d="M80.5555 16.0521L80.1235 18.3321H78.6595V14.5161H88.8595L89.3395 15.5481L82.2835 25.0041L80.6275 26.4921L87.0835 26.2761L88.0915 23.5881L89.4835 23.7561L89.0515 27.8361H78.2755L77.7715 26.7801L84.9475 17.4201L86.5315 15.8841L80.5555 16.0521Z" fill="white"/>
<path d="M73.887 28.052C73.439 28.052 73.103 27.964 72.879 27.788C72.671 27.612 72.567 27.324 72.567 26.924V26.108C72.039 26.636 71.375 27.1 70.575 27.5C69.791 27.9 68.999 28.1 68.199 28.1C66.711 28.1 65.655 27.7 65.031 26.9C64.407 26.1 64.095 24.78 64.095 22.94V15.98L62.751 15.596V14.54L66.111 14.228H66.135L66.591 14.516V22.748C66.591 23.676 66.655 24.404 66.783 24.932C66.927 25.444 67.167 25.828 67.503 26.084C67.855 26.324 68.359 26.444 69.015 26.444C69.655 26.444 70.255 26.308 70.815 26.036C71.375 25.764 71.863 25.444 72.279 25.076V15.98L70.551 15.596V14.54L74.199 14.228H74.223L74.775 14.516V26.612H76.215L76.191 27.692C75.743 27.804 75.351 27.892 75.015 27.956C74.695 28.02 74.319 28.052 73.887 28.052Z" fill="white"/>
<path d="M57.704 11.1557L50.6 11.4197L49.376 14.6117L48.008 14.4197L48.536 9.93164H60.176L60.728 10.9637L51.608 24.7877L50 26.5637L58.304 26.1317L59.552 22.3637L60.968 22.6757L60.416 27.8357H47.648L47 26.7797L56.312 12.8597L57.704 11.1557Z" fill="white"/>
<path d="M156.481 31.8201C156.3 31.8201 156.119 31.8094 155.937 31.7881C155.767 31.7667 155.644 31.7347 155.569 31.6921V30.3001C155.633 30.3427 155.756 30.3747 155.937 30.3961C156.129 30.4174 156.311 30.4281 156.481 30.4281C156.993 30.4281 157.441 30.2467 157.825 29.8841C158.22 29.5321 158.599 28.8494 158.961 27.8361H158.193L155.153 19.9161L154.417 19.7081V18.9561H158.273V19.7081L157.041 19.9001L158.609 24.6201L159.345 26.9561L160.033 24.6041L161.457 19.9001L160.385 19.7081V18.9561H163.601V19.7081L162.801 19.9001C161.233 24.7001 160.311 27.4254 160.033 28.0761C159.671 28.9934 159.34 29.7081 159.041 30.2201C158.743 30.7427 158.391 31.1374 157.985 31.4041C157.58 31.6814 157.079 31.8201 156.481 31.8201Z" fill="white"/>
<path d="M151.406 27.9959C150.798 27.9959 150.344 27.8572 150.046 27.5799C149.747 27.3025 149.598 26.8279 149.598 26.1559V20.0119H148.446V19.2919C148.499 19.2812 148.648 19.2439 148.894 19.1799C149.139 19.1159 149.304 19.0572 149.39 19.0039C149.56 18.9079 149.694 18.7159 149.79 18.4279C149.875 18.2252 149.976 17.8999 150.094 17.4519C150.211 17.0039 150.28 16.7372 150.302 16.6519H151.246L151.278 18.9559H153.95V20.0119H151.278V24.9239C151.278 25.5319 151.294 25.9585 151.326 26.2039C151.368 26.4492 151.448 26.6092 151.566 26.6839C151.694 26.7585 151.907 26.7959 152.206 26.7959C152.494 26.7959 152.808 26.7585 153.15 26.6839C153.502 26.6092 153.774 26.5292 153.966 26.4439L154.206 27.1639C153.95 27.3559 153.534 27.5425 152.958 27.7239C152.392 27.9052 151.875 27.9959 151.406 27.9959Z" fill="white"/>
<path d="M145.23 17.3559C144.888 17.3559 144.632 17.2599 144.462 17.0679C144.291 16.8759 144.206 16.6306 144.206 16.3319C144.206 15.9906 144.307 15.7079 144.51 15.4839C144.723 15.2599 145.011 15.1479 145.374 15.1479C145.736 15.1479 146.003 15.2439 146.174 15.4359C146.344 15.6279 146.43 15.8733 146.43 16.1719C146.43 16.5346 146.323 16.8226 146.11 17.0359C145.907 17.2493 145.619 17.3559 145.246 17.3559H145.23ZM144.59 20.188L143.374 19.9V19.052L145.854 18.7479H145.886L146.254 19.0359V26.924L147.534 27.052V27.8359H143.294V27.052L144.59 26.9079V20.188Z" fill="white"/>
<path d="M134.946 23.4523C134.946 22.5669 135.117 21.7669 135.458 21.0523C135.81 20.3376 136.322 19.7723 136.994 19.3563C137.677 18.9296 138.493 18.7163 139.442 18.7163C139.901 18.7163 140.296 18.7589 140.626 18.8443C140.957 18.9296 141.352 19.0469 141.81 19.1963L141.746 21.6603H140.706L140.354 20.0283C140.29 19.7296 139.885 19.5803 139.138 19.5803C138.392 19.5803 137.8 19.8843 137.362 20.4923C136.936 21.0896 136.722 21.9429 136.722 23.0523C136.722 24.3109 136.962 25.2709 137.442 25.9323C137.933 26.5829 138.568 26.9083 139.346 26.9083C139.794 26.9083 140.216 26.8389 140.61 26.7003C141.016 26.5616 141.362 26.3963 141.65 26.2043L141.954 26.8443C141.666 27.1429 141.24 27.4149 140.674 27.6603C140.12 27.8949 139.554 28.0123 138.978 28.0123C138.104 28.0123 137.362 27.8149 136.754 27.4203C136.157 27.0256 135.704 26.4869 135.394 25.8043C135.096 25.1109 134.946 24.3269 134.946 23.4523Z" fill="white"/>
<path d="M132.216 27.9962C131.939 27.9962 131.699 27.9002 131.496 27.7082C131.293 27.5162 131.192 27.2708 131.192 26.9722C131.192 26.6415 131.309 26.3642 131.544 26.1402C131.789 25.9162 132.072 25.8042 132.392 25.8042C132.723 25.8042 132.973 25.9055 133.144 26.1082C133.325 26.3002 133.416 26.5402 133.416 26.8282C133.416 27.1802 133.299 27.4628 133.064 27.6762C132.829 27.8895 132.547 27.9962 132.216 27.9962Z" fill="white"/>
</g>
<defs>
<clipPath id="clip0_3421_599">
<rect width="164" height="40" fill="white"/>
</clipPath>
</defs>
</svg>
