<svg width="2090" height="769" viewBox="0 0 2090 769" fill="none" xmlns="http://www.w3.org/2000/svg">
<path d="M904.841 522.4C876.841 522.4 856.974 514.933 845.241 500C833.774 484.8 828.041 461.2 828.041 429.2C828.041 417.733 828.707 406.133 830.041 394.4C831.374 382.667 832.974 371.067 834.841 359.6C839.907 329.2 847.774 303.733 858.441 283.2C869.107 262.667 883.107 247.2 900.441 236.8C918.041 226.4 939.241 221.2 964.041 221.2C988.574 221.2 1008.57 222.667 1024.04 225.6C1039.51 228.267 1053.37 231.467 1065.64 235.2L1058.44 281.2C1049.64 279.6 1038.04 278.133 1023.64 276.8C1009.24 275.2 991.641 274.4 970.841 274.4C953.774 274.4 940.174 277.733 930.041 284.4C919.907 290.8 912.174 301.2 906.841 315.6C901.507 330 896.841 349.067 892.841 372.8C889.641 394.4 888.041 411.6 888.041 424.4C888.041 438.533 890.974 449.333 896.841 456.8C902.707 464 912.307 467.6 925.641 467.6C930.707 467.6 936.041 467.333 941.641 466.8C947.507 466.267 953.241 465.6 958.841 464.8C964.707 463.733 969.907 462.8 974.441 462C978.974 460.933 982.707 460 985.641 459.2L994.841 401.2H941.641L949.241 354.4C956.174 353.6 965.241 352.8 976.441 352C987.907 351.2 1001.11 350.8 1016.04 350.8C1020.31 350.8 1025.24 350.933 1030.84 351.2C1036.44 351.2 1041.77 351.333 1046.84 351.6C1052.17 351.6 1056.44 351.6 1059.64 351.6L1033.24 520H988.441L983.641 500C979.907 502.133 974.841 504.533 968.441 507.2C962.041 509.867 955.107 512.4 947.641 514.8C940.174 516.933 932.707 518.667 925.241 520C917.774 521.6 910.974 522.4 904.841 522.4ZM1079.72 520L1126.52 224H1185.72L1166.12 347.2H1277.72L1297.32 224H1356.52L1309.72 520H1250.52L1269.32 400.4H1157.72L1138.92 520H1079.72ZM1469.88 522.4C1454.68 522.4 1440.82 521.2 1428.28 518.8C1415.75 516.133 1404.95 511.467 1395.88 504.8C1386.82 497.867 1379.88 488.4 1375.08 476.4C1370.28 464.133 1367.88 448.267 1367.88 428.8C1367.88 419.467 1368.42 409.2 1369.48 398C1370.55 386.8 1372.02 375.467 1373.88 364C1378.42 336.267 1384.42 313.2 1391.88 294.8C1399.35 276.4 1408.82 261.867 1420.28 251.2C1431.75 240.533 1445.48 232.933 1461.48 228.4C1477.75 223.867 1496.68 221.6 1518.28 221.6C1532.95 221.6 1546.42 222.933 1558.68 225.6C1571.22 228.267 1582.02 233.2 1591.08 240.4C1600.42 247.333 1607.62 257.2 1612.68 270C1617.75 282.8 1620.28 299.333 1620.28 319.6C1620.28 328.133 1619.75 338 1618.68 349.2C1617.62 360.4 1616.02 371.867 1613.88 383.6C1609.62 412.4 1603.62 435.867 1595.88 454C1588.42 472.133 1578.95 486.133 1567.48 496C1556.02 505.867 1542.28 512.8 1526.28 516.8C1510.28 520.533 1491.48 522.4 1469.88 522.4ZM1479.48 468.8C1491.22 468.8 1501.22 467.2 1509.48 464C1518.02 460.8 1525.08 455.6 1530.68 448.4C1536.55 440.933 1541.35 431.333 1545.08 419.6C1549.08 407.6 1552.42 392.933 1555.08 375.6C1556.68 364.667 1558.02 354.4 1559.08 344.8C1560.15 334.933 1560.68 326.8 1560.68 320.4C1560.68 307.6 1558.82 298 1555.08 291.6C1551.35 285.2 1545.75 280.8 1538.28 278.4C1530.82 276 1521.22 274.8 1509.48 274.8C1498.28 274.8 1488.42 276.267 1479.88 279.2C1471.62 282.133 1464.55 287.2 1458.68 294.4C1452.82 301.333 1447.75 311.067 1443.48 323.6C1439.48 336.133 1436.02 352.267 1433.08 372C1431.22 382.667 1429.75 392.8 1428.68 402.4C1427.62 411.733 1427.08 419.467 1427.08 425.6C1427.08 437.067 1428.82 446 1432.28 452.4C1436.02 458.533 1441.75 462.8 1449.48 465.2C1457.22 467.6 1467.22 468.8 1479.48 468.8ZM1716.79 522.4C1707.99 522.4 1699.59 522.133 1691.59 521.6C1683.59 521.333 1675.86 520.8 1668.39 520C1660.92 519.2 1653.99 518.133 1647.59 516.8C1641.46 515.467 1635.99 514.133 1631.19 512.8L1636.79 478H1730.39C1737.32 478 1742.92 476.667 1747.19 474C1751.72 471.333 1754.52 467.467 1755.59 462.4L1756.79 453.6C1757.06 452.267 1757.19 451.333 1757.19 450.8C1757.19 450 1757.19 449.333 1757.19 448.8C1757.19 440.8 1751.59 436.8 1740.39 436.8H1708.39C1696.66 436.8 1686.12 435.333 1676.79 432.4C1667.46 429.2 1660.12 424.4 1654.79 418C1649.72 411.6 1647.19 403.333 1647.19 393.2C1647.19 390.533 1647.32 387.733 1647.59 384.8C1647.86 381.6 1648.26 378.4 1648.79 375.2L1651.19 360C1653.32 348.8 1657.32 338.933 1663.19 330.4C1669.32 321.867 1678.39 315.2 1690.39 310.4C1702.66 305.333 1719.06 302.8 1739.59 302.8C1748.12 302.8 1757.32 303.333 1767.19 304.4C1777.32 305.2 1787.19 306.4 1796.79 308C1806.39 309.333 1814.66 310.933 1821.59 312.8L1815.59 347.6H1727.99C1720.26 347.6 1714.52 348.933 1710.79 351.6C1707.32 354 1705.06 358.133 1703.99 364L1702.79 370C1702.26 371.867 1701.86 373.467 1701.59 374.8C1701.59 376.133 1701.59 377.333 1701.59 378.4C1701.59 381.867 1702.92 384.533 1705.59 386.4C1708.26 388.267 1713.06 389.2 1719.99 389.2H1755.99C1773.06 389.2 1786.66 393.067 1796.79 400.8C1807.19 408.267 1812.39 418.667 1812.39 432C1812.39 434.667 1812.26 437.467 1811.99 440.4C1811.99 443.333 1811.72 446.267 1811.19 449.2L1808.39 468C1805.19 488 1795.59 502.133 1779.59 510.4C1763.59 518.4 1742.66 522.4 1716.79 522.4ZM1927.48 520C1905.88 520 1889.61 516 1878.68 508C1868.01 500 1862.68 487.733 1862.68 471.2C1862.68 466.4 1862.94 460.933 1863.48 454.8C1864.01 448.4 1864.94 441.467 1866.28 434L1881.08 352.8H1847.88L1853.88 314.8L1890.68 305.2L1908.28 245.2H1955.08L1945.48 305.2H1995.88L1988.68 352.8H1937.88L1925.08 434.4C1924.54 436.8 1923.88 440 1923.08 444C1922.54 448 1922.28 451.6 1922.28 454.8C1922.28 461.2 1923.88 465.867 1927.08 468.8C1930.54 471.467 1935.74 473.067 1942.68 473.6L1967.08 476L1959.88 520H1927.48Z" fill="#C9B3F9"/>
<path d="M396 84C467.608 84 536.284 112.491 586.919 163.206C637.554 213.921 666 282.705 666 354.427V579.783C666.011 602.257 658.833 624.143 645.52 642.233C632.206 660.324 613.457 673.666 592.02 680.306C570.583 686.945 547.587 686.532 526.402 679.127C505.217 671.722 486.957 657.714 474.3 639.157C466.463 653.059 455.08 664.626 441.314 672.675C427.548 680.724 411.895 684.965 395.955 684.965C380.015 684.965 364.362 680.724 350.596 672.675C336.83 664.626 325.447 653.059 317.61 639.157C305.221 657.271 287.481 671.047 266.88 678.552C246.278 686.058 223.848 686.917 202.734 681.009C181.62 675.101 162.882 662.722 149.148 645.609C135.414 628.495 127.372 607.505 126.15 585.582L126 579.753V354.427C126 282.705 154.446 213.921 205.081 163.206C255.716 112.491 324.392 84 396 84ZM396 144.095C341.551 144.094 289.229 165.275 250.073 203.17C210.917 241.066 187.987 292.712 186.12 347.216L186 354.427V578.161L186.06 582.307C186.577 591.315 189.781 599.96 195.258 607.123C200.735 614.286 208.232 619.639 216.78 622.487C225.327 625.335 234.532 625.549 243.202 623.099C251.872 620.65 259.608 615.651 265.41 608.749L268.05 605.263C273.795 596.827 281.591 589.996 290.703 585.415C299.815 580.834 309.942 578.654 320.128 579.081C330.315 579.508 340.225 582.528 348.922 587.855C357.62 593.183 364.819 600.643 369.84 609.53C372.442 614.167 376.228 618.028 380.809 620.717C385.391 623.407 390.603 624.83 395.914 624.839C401.224 624.848 406.442 623.444 411.032 620.77C415.623 618.096 419.422 614.248 422.04 609.62C426.842 601.082 433.657 593.849 441.889 588.553C450.122 583.257 459.523 580.057 469.273 579.234C479.023 578.41 488.826 579.987 497.828 583.828C506.83 587.668 514.757 593.655 520.92 601.267L523.83 605.173C529.042 612.822 536.479 618.677 545.131 621.943C553.782 625.208 563.228 625.725 572.184 623.424C581.139 621.122 589.169 616.114 595.182 609.08C601.195 602.046 604.899 593.327 605.79 584.11L606 579.783V354.427C606 298.644 583.875 245.145 544.492 205.7C505.11 166.255 451.695 144.095 396 144.095ZM396 384.475C429.15 384.475 456 418.128 456 459.593C456 501.059 429.15 534.712 396 534.712C362.85 534.712 336 501.059 336 459.593C336 418.128 362.85 384.475 396 384.475Z" fill="#C9B3F9"/>
<path d="M298.031 256.122V243.097C298.031 241.348 298.355 239.728 299.003 238.237C299.715 236.682 300.655 235.354 301.821 234.252C302.988 233.086 304.349 232.179 305.904 231.531C307.459 230.818 309.111 230.461 310.861 230.461C312.611 230.461 314.231 230.818 315.721 231.531C317.276 232.179 318.605 233.086 319.706 234.252C320.873 235.354 321.78 236.682 322.428 238.237C323.076 239.728 323.4 241.348 323.4 243.097V256.122H298.031ZM323.4 364.792V380.052C323.4 381.867 323.076 383.519 322.428 385.009C321.78 386.565 320.873 387.893 319.706 388.995C318.605 390.161 317.309 391.068 315.818 391.716C314.328 392.364 312.708 392.688 310.958 392.688C309.209 392.688 307.524 392.364 305.904 391.716C304.349 391.068 302.988 390.161 301.821 388.995C300.655 387.893 299.715 386.565 299.003 385.009C298.355 383.519 298.031 381.867 298.031 380.052V364.792H323.4ZM312.902 328.633C305.191 327.273 298.387 325.491 292.49 323.287C286.593 321.084 281.669 318.363 277.716 315.123C273.763 311.818 270.782 307.962 268.773 303.556C266.765 299.149 265.76 294.095 265.76 288.393C265.76 282.69 266.894 277.377 269.162 272.452C271.495 267.462 274.67 263.153 278.688 259.524C282.77 255.831 287.533 252.947 292.976 250.873C298.419 248.8 304.316 247.763 310.667 247.763C314.555 247.763 318.443 248.152 322.331 248.929C326.219 249.707 329.912 250.873 333.411 252.429C336.911 253.984 340.086 255.928 342.937 258.261C345.788 260.529 348.121 263.185 349.935 266.231C350.778 267.592 351.264 269.017 351.393 270.508C351.588 271.998 351.523 273.456 351.199 274.882C350.94 276.243 350.454 277.539 349.741 278.77C349.028 279.936 348.218 280.941 347.311 281.783C346.339 282.82 345.108 283.695 343.617 284.407C342.192 285.055 340.637 285.477 338.952 285.671C337.267 285.865 335.517 285.768 333.703 285.379C331.953 284.991 330.269 284.245 328.649 283.144C326.964 282.431 325.571 281.751 324.469 281.103C323.432 280.455 322.331 279.904 321.164 279.45C320.063 278.932 318.734 278.543 317.179 278.284C315.624 277.96 313.583 277.798 311.055 277.798C308.269 277.798 305.904 278.089 303.96 278.673C302.081 279.256 300.525 280.033 299.294 281.005C298.063 281.977 297.188 283.079 296.67 284.31C296.151 285.541 295.892 286.805 295.892 288.101C295.892 289.98 296.346 291.503 297.253 292.669C298.225 293.771 299.78 294.711 301.919 295.488C304.057 296.266 306.811 296.979 310.181 297.627C313.55 298.275 317.665 299.052 322.525 299.959C326.737 300.737 330.852 301.936 334.869 303.556C338.952 305.111 342.581 307.249 345.756 309.971C348.996 312.693 351.588 316.095 353.532 320.177C355.541 324.195 356.545 329.022 356.545 334.66C356.545 339.909 355.411 344.931 353.143 349.726C350.875 354.521 347.7 358.765 343.617 362.459C339.535 366.088 334.643 368.971 328.94 371.11C323.238 373.248 316.952 374.317 310.083 374.317C304.899 374.317 299.975 373.669 295.309 372.373C290.643 371.013 286.367 369.231 282.479 367.027C278.655 364.759 275.286 362.135 272.37 359.154C269.454 356.109 267.186 352.933 265.566 349.629C264.399 347.231 263.719 344.995 263.525 342.922C263.395 340.783 263.622 338.839 264.205 337.09C264.853 335.34 265.793 333.817 267.024 332.521C268.255 331.161 269.648 330.027 271.203 329.119C275.027 327.046 278.558 326.592 281.798 327.759C285.103 328.925 288.473 331.647 291.907 335.923C293.268 337.349 294.629 338.613 295.989 339.714C297.35 340.751 298.776 341.626 300.266 342.339C301.821 342.987 303.474 343.473 305.223 343.797C307.038 344.121 309.047 344.283 311.25 344.283C313.194 344.283 315.073 344.088 316.887 343.699C318.767 343.311 320.419 342.76 321.845 342.047C323.27 341.334 324.404 340.524 325.247 339.617C326.154 338.645 326.607 337.576 326.607 336.409C326.607 335.049 326.186 333.947 325.344 333.105C324.501 332.197 323.4 331.452 322.039 330.869C320.743 330.286 319.285 329.832 317.665 329.508C316.045 329.184 314.457 328.893 312.902 328.633Z" fill="#C9B3F9"/>
<path d="M480.617 256.122V243.097C480.617 241.348 480.941 239.728 481.589 238.237C482.302 236.682 483.241 235.354 484.408 234.252C485.574 233.086 486.935 232.179 488.49 231.531C490.045 230.818 491.698 230.461 493.447 230.461C495.197 230.461 496.817 230.818 498.307 231.531C499.863 232.179 501.191 233.086 502.293 234.252C503.459 235.354 504.366 236.682 505.014 238.237C505.662 239.728 505.986 241.348 505.986 243.097V256.122H480.617ZM505.986 364.792V380.052C505.986 381.867 505.662 383.519 505.014 385.009C504.366 386.565 503.459 387.893 502.293 388.995C501.191 390.161 499.895 391.068 498.405 391.716C496.914 392.364 495.294 392.688 493.545 392.688C491.795 392.688 490.11 392.364 488.49 391.716C486.935 391.068 485.574 390.161 484.408 388.995C483.241 387.893 482.302 386.565 481.589 385.009C480.941 383.519 480.617 381.867 480.617 380.052V364.792H505.986ZM495.489 328.633C487.777 327.273 480.973 325.491 475.077 323.287C469.18 321.084 464.255 318.363 460.302 315.123C456.349 311.818 453.369 307.962 451.36 303.556C449.351 299.149 448.347 294.095 448.347 288.393C448.347 282.69 449.481 277.377 451.749 272.452C454.081 267.462 457.257 263.153 461.274 259.524C465.357 255.831 470.119 252.947 475.563 250.873C481.006 248.8 486.903 247.763 493.253 247.763C497.141 247.763 501.029 248.152 504.917 248.929C508.805 249.707 512.499 250.873 515.998 252.429C519.497 253.984 522.672 255.928 525.523 258.261C528.375 260.529 530.707 263.185 532.522 266.231C533.364 267.592 533.85 269.017 533.98 270.508C534.174 271.998 534.109 273.456 533.785 274.882C533.526 276.243 533.04 277.539 532.327 278.77C531.615 279.936 530.805 280.941 529.897 281.783C528.925 282.82 527.694 283.695 526.204 284.407C524.778 285.055 523.223 285.477 521.538 285.671C519.853 285.865 518.104 285.768 516.289 285.379C514.54 284.991 512.855 284.245 511.235 283.144C509.55 282.431 508.157 281.751 507.055 281.103C506.019 280.455 504.917 279.904 503.751 279.45C502.649 278.932 501.321 278.543 499.765 278.284C498.21 277.96 496.169 277.798 493.642 277.798C490.855 277.798 488.49 278.089 486.546 278.673C484.667 279.256 483.112 280.033 481.881 281.005C480.649 281.977 479.775 283.079 479.256 284.31C478.738 285.541 478.479 286.805 478.479 288.101C478.479 289.98 478.932 291.503 479.839 292.669C480.811 293.771 482.367 294.711 484.505 295.488C486.643 296.266 489.397 296.979 492.767 297.627C496.137 298.275 500.251 299.052 505.111 299.959C509.323 300.737 513.438 301.936 517.456 303.556C521.538 305.111 525.167 307.249 528.342 309.971C531.582 312.693 534.174 316.095 536.118 320.177C538.127 324.195 539.131 329.022 539.131 334.66C539.131 339.909 537.997 344.931 535.729 349.726C533.461 354.521 530.286 358.765 526.204 362.459C522.121 366.088 517.229 368.971 511.527 371.11C505.824 373.248 499.539 374.317 492.67 374.317C487.486 374.317 482.561 373.669 477.895 372.373C473.23 371.013 468.953 369.231 465.065 367.027C461.242 364.759 457.872 362.135 454.956 359.154C452.04 356.109 449.772 352.933 448.152 349.629C446.986 347.231 446.305 344.995 446.111 342.922C445.981 340.783 446.208 338.839 446.791 337.09C447.439 335.34 448.379 333.817 449.61 332.521C450.841 331.161 452.235 330.027 453.79 329.119C457.613 327.046 461.145 326.592 464.385 327.759C467.689 328.925 471.059 331.647 474.493 335.923C475.854 337.349 477.215 338.613 478.576 339.714C479.937 340.751 481.362 341.626 482.853 342.339C484.408 342.987 486.06 343.473 487.81 343.797C489.624 344.121 491.633 344.283 493.836 344.283C495.78 344.283 497.659 344.088 499.474 343.699C501.353 343.311 503.005 342.76 504.431 342.047C505.857 341.334 506.991 340.524 507.833 339.617C508.74 338.645 509.194 337.576 509.194 336.409C509.194 335.049 508.773 333.947 507.93 333.105C507.088 332.197 505.986 331.452 504.625 330.869C503.329 330.286 501.871 329.832 500.251 329.508C498.631 329.184 497.044 328.893 495.489 328.633Z" fill="#C9B3F9"/>
</svg>
