<svg width="47" height="49" viewBox="0 0 47 49" fill="none" xmlns="http://www.w3.org/2000/svg">
<g id="LOGO" clip-path="url(#clip0_94_15350)">
<path id="Vector" d="M46.4362 24.0176C46.2967 23.5744 46.1309 23.1399 45.9403 22.716C45.8795 22.5806 45.8162 22.4465 45.7504 22.3136C45.7181 22.2483 45.6852 22.1833 45.6516 22.1186C45.3291 21.4956 44.951 20.8982 44.5216 20.333C44.4526 20.2423 44.3824 20.1526 44.311 20.0635C44.2044 19.9307 44.0947 19.7997 43.9824 19.6709C43.8956 19.5715 43.8072 19.473 43.7169 19.3761C43.6612 19.3161 43.605 19.2564 43.548 19.1973C43.2408 18.8788 42.9151 18.574 42.5722 18.2842C42.3625 18.1073 42.1475 17.9369 41.9277 17.7734C42.3744 17.0525 42.7493 16.2935 43.048 15.5033C43.5514 14.1728 43.8248 12.7942 43.8608 11.4057C43.8778 10.7551 43.8423 10.1137 43.7555 9.48408C43.7389 9.36435 43.7204 9.24525 43.7003 9.12646C43.6753 8.97923 43.6474 8.83293 43.6166 8.68725C43.4988 8.12894 43.3395 7.58157 43.1383 7.04765C42.8405 6.25832 42.4587 5.51745 41.997 4.82973C41.6061 4.24734 41.1588 3.70279 40.6554 3.20075C40.3485 2.89471 40.025 2.60961 39.6874 2.34515C37.7474 0.825273 35.3256 0 32.7421 0C31.0814 0 29.4423 0.334486 27.8691 0.993767C26.2695 1.6643 24.8248 2.6365 23.5744 3.88316C23.5421 3.91536 23.5101 3.94756 23.4781 3.98007C23.4462 3.94756 23.4142 3.91536 23.3819 3.88316C22.1315 2.63619 20.6868 1.66399 19.0872 0.993767C17.5143 0.334173 15.8752 0 14.2148 0C11.1811 0 8.37065 1.13694 6.30088 3.20106C4.21825 5.278 3.07852 8.09893 3.09168 11.1437C3.09356 11.5857 3.11989 12.0274 3.17005 12.4669C3.18415 12.592 3.20045 12.7167 3.21863 12.8414C3.23243 12.9352 3.24716 13.029 3.26283 13.1228C3.28258 13.2394 3.30389 13.3557 3.32678 13.4717C3.33242 13.5001 3.33837 13.5289 3.34402 13.5573C3.3669 13.668 3.39104 13.7786 3.41674 13.889C3.4415 13.9943 3.46752 14.0994 3.49479 14.2044C3.55748 14.4442 3.62707 14.6827 3.70387 14.919C3.7186 14.9646 3.73365 15.0103 3.74901 15.0556C3.82486 15.281 3.9073 15.5045 3.9957 15.7261C4.27781 16.432 4.62293 17.1175 5.02886 17.7731C4.80819 17.9372 4.59253 18.1082 4.38188 18.2861C2.54595 19.8375 1.2103 21.82 0.519435 24.0192C0.162718 25.1571 -0.0121918 26.3262 0.000659995 27.4935C0.00316767 27.7179 0.0125714 27.9418 0.0288713 28.1643C0.035454 28.2531 0.042977 28.3416 0.0517539 28.4304C0.0649192 28.5638 0.0805921 28.697 0.0984593 28.8299C0.10128 28.8508 0.104102 28.8714 0.107236 28.8924C0.166793 29.3125 0.251427 29.7283 0.360511 30.1387C0.371169 30.1784 0.381826 30.2181 0.392798 30.2578C0.421636 30.3613 0.452041 30.4642 0.483701 30.567C0.535735 30.7346 0.591531 30.9012 0.651715 31.0665C0.715974 31.2425 0.785249 31.4163 0.858285 31.5883C1.26704 32.5499 1.8112 33.4445 2.482 34.2535C2.71773 34.538 2.96787 34.8103 3.2318 35.0701C3.45404 35.2889 3.68631 35.4986 3.92736 35.699C4.12296 35.8616 4.32452 36.0179 4.53171 36.1679C4.64456 36.2495 4.75929 36.3295 4.87558 36.4074C4.96993 36.4705 5.06522 36.533 5.16177 36.5937C5.18496 36.6081 5.20847 36.6221 5.23167 36.6365C5.37743 36.7265 5.52507 36.8138 5.67427 36.8972C5.75703 36.9435 5.84009 36.9891 5.9241 37.0335C7.69953 37.9726 9.71602 38.4659 11.8087 38.4659C11.8582 38.4659 11.908 38.4659 11.9576 38.4649C11.846 38.5647 11.7325 38.6631 11.6175 38.7597L8.00892 41.7373C8.00892 41.7373 9.75332 43.3644 12.019 44.7945C15.4417 46.9674 19.4038 48.1159 23.4769 48.1159C27.55 48.1159 31.3983 47 34.7862 44.8886C37.0716 43.4963 38.816 41.8692 38.816 41.8692L35.2401 38.8588C35.088 38.7291 34.9395 38.5962 34.7937 38.4609C34.9113 38.464 35.0291 38.4656 35.147 38.4656C37.5446 38.4656 39.8423 37.8185 41.792 36.5943C42.8154 35.9519 43.7176 35.1645 44.4724 34.2545C45.2636 33.3007 45.8795 32.2282 46.3036 31.0669C46.7227 29.9187 46.9418 28.7161 46.9553 27.4929C46.9562 27.42 46.9562 27.3469 46.9553 27.274C46.9453 26.1793 46.7707 25.0852 46.4353 24.018L46.4362 24.0176ZM14.043 41.6272C14.0935 41.585 14.1433 41.5425 14.1932 41.4997C14.2104 41.485 14.2273 41.4703 14.2443 41.4553C14.2781 41.4259 14.312 41.3968 14.3455 41.3675C14.3656 41.35 14.3853 41.3321 14.4054 41.3143C14.4358 41.2874 14.4662 41.2602 14.4966 41.233C14.5176 41.2143 14.5383 41.1952 14.5593 41.1765C14.5884 41.1502 14.6173 41.1236 14.6461 41.0971C14.6674 41.0777 14.6884 41.058 14.7094 41.0383C14.7379 41.0117 14.7662 40.9855 14.7947 40.9586C14.8157 40.9389 14.8364 40.9192 14.8574 40.8995C14.8859 40.8723 14.9144 40.8451 14.943 40.8176C14.963 40.7982 14.9831 40.7788 15.0031 40.7594C15.0326 40.7307 15.0621 40.7016 15.0915 40.6729C15.11 40.6547 15.1285 40.6363 15.147 40.6181C15.1799 40.5853 15.2128 40.5525 15.2454 40.5194C15.2599 40.5047 15.2746 40.49 15.2893 40.4753C15.3363 40.4275 15.383 40.3796 15.4294 40.3312C15.4379 40.3224 15.4461 40.3137 15.4542 40.3052C15.4924 40.2652 15.5304 40.2255 15.568 40.1852C15.5846 40.1677 15.6009 40.1499 15.6175 40.1321C15.647 40.1005 15.6761 40.0689 15.7053 40.0373C15.7238 40.0173 15.742 39.9973 15.7601 39.977C15.7871 39.9473 15.8141 39.9176 15.841 39.8876C15.8598 39.8666 15.8786 39.8454 15.8974 39.8241C15.9235 39.7948 15.9495 39.7657 15.9752 39.736C15.994 39.7144 16.0131 39.6925 16.0319 39.671C16.0576 39.6416 16.083 39.6119 16.1084 39.5825C16.1269 39.5609 16.1454 39.539 16.1639 39.5175C16.1896 39.4871 16.2153 39.4565 16.2407 39.4262C16.2582 39.4049 16.2761 39.384 16.2936 39.3627C16.3203 39.3305 16.3469 39.298 16.3736 39.2655C16.3896 39.2458 16.4059 39.2261 16.4219 39.2064C16.4529 39.168 16.4836 39.1295 16.5143 39.0908C16.5253 39.0767 16.5366 39.0629 16.5479 39.0489C16.5896 38.9964 16.6309 38.9432 16.6717 38.8904C16.682 38.8773 16.6921 38.8638 16.7021 38.8507C16.7328 38.8107 16.7635 38.7703 16.7939 38.73C16.809 38.71 16.8237 38.69 16.8388 38.6703C16.8641 38.6362 16.8895 38.6022 16.9149 38.5681C16.9312 38.5462 16.9472 38.524 16.9632 38.5018C16.9867 38.4696 17.0102 38.4371 17.0337 38.4046C17.0503 38.3815 17.067 38.358 17.0836 38.3349C17.1061 38.303 17.1287 38.2711 17.1513 38.2389C17.1679 38.2155 17.1842 38.1917 17.2005 38.1683C17.2231 38.1361 17.2453 38.1036 17.2676 38.0711C17.2836 38.0476 17.2995 38.0245 17.3155 38.001C17.3381 37.9676 17.3607 37.9341 17.3829 37.9004C17.398 37.8779 17.413 37.8554 17.4281 37.8325C17.4519 37.7966 17.4754 37.7603 17.4989 37.7241C17.5121 37.7037 17.5255 37.6834 17.5387 37.6631C17.5682 37.6175 17.5973 37.5715 17.6262 37.5256C17.6331 37.5143 17.6403 37.5034 17.6475 37.4921C17.6832 37.4352 17.7186 37.378 17.7537 37.3205C17.7644 37.3033 17.7747 37.2858 17.7851 37.2686C17.8095 37.2283 17.834 37.1876 17.8584 37.147C17.8719 37.1245 17.8851 37.102 17.8982 37.0795C17.9192 37.0438 17.9406 37.0079 17.9613 36.9719C17.9754 36.9476 17.9891 36.9232 18.0033 36.8991C18.023 36.8647 18.0427 36.83 18.0625 36.7953C18.0766 36.7703 18.0907 36.7453 18.1048 36.72C18.1239 36.6856 18.1431 36.6512 18.1619 36.6168C18.1757 36.5915 18.1894 36.5665 18.2032 36.5412C18.2224 36.5062 18.2412 36.4711 18.2597 36.4361C18.2728 36.4111 18.2863 36.3864 18.2995 36.3614C18.3186 36.3252 18.3377 36.2886 18.3565 36.2523C18.3687 36.2286 18.3813 36.2048 18.3935 36.1807C18.4139 36.141 18.4339 36.101 18.4543 36.061C18.4647 36.0404 18.4753 36.0197 18.4857 35.9988C18.5142 35.9416 18.5424 35.8844 18.5703 35.8269C18.5719 35.8234 18.5738 35.82 18.5753 35.8166C18.6048 35.7556 18.6339 35.6943 18.6628 35.6331C18.6722 35.6131 18.6816 35.5927 18.691 35.5724C18.7101 35.5308 18.7295 35.4896 18.7483 35.448C18.7593 35.4236 18.7703 35.3992 18.7813 35.3748C18.7982 35.337 18.8151 35.2995 18.832 35.2614C18.8436 35.2354 18.8549 35.2095 18.8662 35.1835C18.8822 35.147 18.8982 35.1104 18.9139 35.0735C18.9251 35.0469 18.9367 35.02 18.9477 34.9935C18.9631 34.9569 18.9784 34.9203 18.9935 34.8838C19.0044 34.8572 19.0154 34.8303 19.0264 34.8034C19.0414 34.7662 19.0565 34.729 19.0715 34.6915C19.0822 34.6652 19.0925 34.639 19.1029 34.6124C19.1182 34.5733 19.1333 34.5343 19.1483 34.4952C19.1577 34.4705 19.1674 34.4458 19.1768 34.4211C19.1938 34.377 19.2101 34.3326 19.2267 34.2886C19.2342 34.2685 19.2417 34.2488 19.2489 34.2292C19.2725 34.1651 19.2956 34.1007 19.3185 34.036C19.3217 34.0269 19.3248 34.0178 19.3279 34.0091C19.3474 33.9534 19.3668 33.8978 19.3859 33.8422C19.3938 33.8193 19.4013 33.7962 19.4091 33.7734C19.4232 33.7312 19.4373 33.689 19.4511 33.6468C19.4596 33.6205 19.4681 33.5943 19.4765 33.568C19.4891 33.5286 19.5019 33.4892 19.5141 33.4498C19.5226 33.4223 19.5311 33.3951 19.5398 33.3676C19.5517 33.3292 19.5637 33.2904 19.5753 33.2516C19.5837 33.2235 19.5922 33.1957 19.6003 33.1676C19.6116 33.1291 19.6229 33.0903 19.6342 33.0516C19.6423 33.0238 19.6502 32.9956 19.6583 32.9678C19.6696 32.9284 19.6806 32.8887 19.6912 32.8493C19.6988 32.8221 19.7063 32.7949 19.7135 32.7677C19.7248 32.7262 19.7357 32.6843 19.7467 32.6424C19.7533 32.6171 19.7599 32.5921 19.7665 32.5667C19.779 32.518 19.7912 32.4689 19.8035 32.4198C19.8078 32.4017 19.8125 32.3835 19.8169 32.3654C19.8332 32.2982 19.8495 32.2307 19.8652 32.1632C19.869 32.1475 19.8724 32.1319 19.8759 32.116C19.8878 32.0641 19.8997 32.0119 19.911 31.9597C19.9163 31.9346 19.9216 31.9096 19.927 31.8849C19.9364 31.8418 19.9454 31.7987 19.9545 31.7552C19.9602 31.7274 19.9658 31.6999 19.9715 31.6721C19.9796 31.6311 19.9878 31.5905 19.9959 31.5495C20.0016 31.5208 20.0069 31.492 20.0125 31.4629C20.0201 31.4226 20.0276 31.3826 20.0348 31.3423C20.0401 31.3132 20.0454 31.2841 20.0505 31.2547C20.0536 31.2369 20.057 31.2194 20.0599 31.2016C20.0605 31.1988 20.0605 31.1963 20.0608 31.1935C20.1423 30.7211 20.2053 30.2425 20.2483 29.758C20.0298 30.1747 19.774 30.5767 19.4837 30.9599C19.4768 30.969 19.4696 30.9781 19.4627 30.9875C19.4314 31.0284 19.4 31.069 19.3681 31.1094C19.3552 31.1256 19.3424 31.1416 19.3292 31.1578C19.3016 31.1922 19.2737 31.2263 19.2455 31.2604C19.2323 31.2763 19.2188 31.2926 19.2057 31.3085C19.1728 31.3479 19.1392 31.387 19.1054 31.4257C19.0975 31.4348 19.0897 31.4442 19.0819 31.4532C19.0402 31.5008 18.9982 31.5476 18.9552 31.5945C18.9433 31.6073 18.9314 31.6202 18.9198 31.633C18.8881 31.6674 18.8559 31.7014 18.8236 31.7355C18.8085 31.7511 18.7938 31.7668 18.7788 31.7821C18.7471 31.8149 18.7151 31.8471 18.6831 31.8796C18.6694 31.8934 18.6559 31.9074 18.6418 31.9209C18.5963 31.9659 18.5506 32.0106 18.5038 32.0547C18.5007 32.0575 18.4979 32.0603 18.4948 32.0631C18.4512 32.1044 18.407 32.1453 18.3622 32.1863C18.3471 32.2 18.3318 32.2138 18.3164 32.2272C18.2825 32.2576 18.2487 32.2879 18.2142 32.3179C18.1979 32.3323 18.1813 32.3467 18.1647 32.3607C18.1274 32.3929 18.0898 32.4245 18.0518 32.4561C18.0393 32.4664 18.0271 32.477 18.0145 32.4873C17.9644 32.5286 17.9139 32.5692 17.8628 32.6099C17.8509 32.6192 17.839 32.6283 17.8271 32.6377C17.7873 32.669 17.7472 32.6999 17.7064 32.7305C17.6889 32.7437 17.6713 32.7571 17.6534 32.7702C17.6164 32.7977 17.5795 32.8249 17.5422 32.8521C17.5249 32.8646 17.5077 32.8771 17.4904 32.8893C17.4431 32.9231 17.3955 32.9566 17.3475 32.9894C17.3409 32.9941 17.3343 32.9987 17.3277 33.0031C17.2732 33.0403 17.218 33.0769 17.1626 33.1132C17.1463 33.1238 17.1293 33.1344 17.113 33.1451C17.0729 33.171 17.0325 33.1966 16.9917 33.2219C16.9726 33.2338 16.9532 33.246 16.9337 33.2579C16.8924 33.2832 16.8507 33.3082 16.809 33.3332C16.7924 33.3429 16.7761 33.3529 16.7591 33.3629C16.7015 33.3967 16.6432 33.4301 16.5845 33.463C16.5754 33.468 16.566 33.473 16.557 33.478C16.5068 33.5058 16.4566 33.533 16.4059 33.5599C16.3864 33.5702 16.3667 33.5805 16.3469 33.5908C16.3049 33.6127 16.2626 33.6346 16.22 33.6558C16.1996 33.6662 16.1795 33.6762 16.1592 33.6865C16.1106 33.7105 16.062 33.734 16.0128 33.7574C15.9996 33.7637 15.9868 33.7699 15.9736 33.7762C15.9119 33.8053 15.8495 33.8337 15.7868 33.8615C15.7702 33.869 15.7536 33.8759 15.7369 33.8831C15.6899 33.9037 15.6426 33.9241 15.5949 33.9441C15.5733 33.9531 15.5517 33.9622 15.5301 33.9709C15.4846 33.9897 15.4388 34.0081 15.3931 34.026C15.373 34.0338 15.353 34.0419 15.3329 34.0497C15.268 34.0747 15.2031 34.0994 15.1373 34.1232C15.1373 34.1232 15.1367 34.1232 15.1364 34.1235C14.0295 34.5252 12.903 34.7156 11.8102 34.7156C10.1144 34.7156 8.50042 34.2573 7.16759 33.4201C6.70273 33.1282 6.27204 32.7902 5.88398 32.4092C5.5188 32.0509 5.19186 31.6546 4.90943 31.2232C4.87495 31.1703 4.8411 31.1172 4.80787 31.0631C4.56212 30.6645 4.35336 30.2378 4.18785 29.7842C3.07193 26.7264 4.2217 23.3402 6.81464 21.1492C7.6591 20.4358 8.65653 19.8494 9.7784 19.4421C9.77902 19.4421 9.77965 19.4418 9.77996 19.4414C9.85269 19.4149 9.92572 19.3896 9.99876 19.3652C10.0232 19.357 10.0477 19.3492 10.0721 19.3411C10.1213 19.3248 10.1708 19.3089 10.2201 19.2936C10.2489 19.2845 10.2777 19.2761 10.3066 19.2673C10.3517 19.2536 10.3969 19.2401 10.4423 19.2273C10.4727 19.2186 10.5031 19.2101 10.5335 19.202C10.5774 19.1898 10.6216 19.1779 10.6655 19.1667C10.9219 19.0998 11.1786 19.0432 11.435 18.9979C11.2181 18.8644 11.005 18.7212 10.7959 18.5683C10.7611 18.543 10.7266 18.5174 10.6921 18.4914C10.6783 18.4811 10.6645 18.4708 10.6508 18.4602C10.61 18.4292 10.5696 18.3983 10.5294 18.3664C10.5244 18.3623 10.5194 18.3586 10.5144 18.3545C10.4693 18.3192 10.4247 18.2829 10.3802 18.2467C10.3677 18.2364 10.3555 18.226 10.3429 18.216C10.3097 18.1885 10.2762 18.1607 10.2433 18.1326C10.2301 18.1213 10.2169 18.1101 10.2038 18.0988C10.1624 18.0635 10.1213 18.0278 10.0803 17.9916C10.0774 17.9891 10.0746 17.9869 10.0721 17.9844C10.0285 17.9459 9.98559 17.9066 9.94265 17.8672C9.93011 17.8556 9.91789 17.8444 9.90535 17.8328C9.87337 17.8031 9.8414 17.7731 9.80974 17.7428C9.7972 17.7309 9.78467 17.719 9.77213 17.7068C9.72981 17.6662 9.68749 17.6249 9.6458 17.5833C9.41008 17.3482 9.18941 17.1047 8.98346 16.854C7.57979 15.1463 6.86228 13.1012 6.85413 11.1284C6.84567 9.16429 7.5403 7.27179 8.96183 5.85413C10.3746 4.44491 12.2588 3.75187 14.2157 3.75187C16.4952 3.75187 18.8737 4.69218 20.7231 6.53623C21.5522 7.36307 22.1992 8.2965 22.6606 9.27933C22.6606 9.27964 22.6606 9.27995 22.6609 9.28026C22.6879 9.33778 22.7142 9.3953 22.7399 9.45313C22.7484 9.47251 22.7565 9.49158 22.765 9.51096C22.7819 9.55004 22.7992 9.58912 22.8155 9.62819C22.8252 9.65132 22.8346 9.67446 22.844 9.69759C22.8587 9.73291 22.8732 9.76855 22.8873 9.80419C22.897 9.82888 22.9067 9.85389 22.9161 9.87859C22.9293 9.91266 22.9424 9.94673 22.9553 9.98112C22.9647 10.0068 22.9741 10.0324 22.9835 10.058C22.9957 10.0918 23.0079 10.1255 23.0195 10.1593C23.0286 10.1853 23.0374 10.2112 23.0462 10.2371C23.0575 10.2709 23.0688 10.3044 23.0797 10.3381C23.0882 10.3641 23.0967 10.3903 23.1048 10.4166C23.1155 10.4503 23.1258 10.4844 23.1362 10.5182C23.144 10.5441 23.1518 10.5701 23.1597 10.596C23.3208 11.1453 23.4277 11.7014 23.4788 12.2562C23.5299 11.7014 23.6364 11.1449 23.7979 10.5957C23.8054 10.5701 23.8132 10.5441 23.8211 10.5185C23.8314 10.4844 23.8421 10.4503 23.8527 10.4163C23.8609 10.3903 23.8693 10.3644 23.8778 10.3384C23.8888 10.3047 23.9001 10.2706 23.9116 10.2368C23.9204 10.2109 23.9292 10.1853 23.9383 10.1596C23.9502 10.1255 23.9624 10.0918 23.9747 10.0577C23.9837 10.0324 23.9931 10.0071 24.0026 9.98175C24.0154 9.94736 24.0286 9.91266 24.042 9.87827C24.0515 9.85358 24.0609 9.8292 24.0706 9.8045C24.0847 9.76886 24.0994 9.73291 24.1141 9.69728C24.1235 9.67446 24.1329 9.65132 24.1424 9.6285C24.159 9.58912 24.1762 9.54973 24.1931 9.51034C24.2013 9.49127 24.2094 9.47251 24.2179 9.45345C24.2439 9.3953 24.2702 9.33716 24.2975 9.27933C24.7589 8.2965 25.4059 7.36307 26.235 6.53623C28.0838 4.69218 30.4626 3.75187 32.7421 3.75187C34.6994 3.75187 36.5829 4.44491 37.9963 5.85413C38.6167 6.47277 39.0981 7.18207 39.4436 7.94795C39.4658 7.99734 39.4874 8.04673 39.5084 8.09643C39.5373 8.16427 39.5649 8.23242 39.5915 8.30119C39.6084 8.34464 39.6247 8.38809 39.641 8.43186C39.7128 8.62723 39.7761 8.82574 39.831 9.02705C39.8398 9.05894 39.8482 9.09051 39.8564 9.1224C39.8802 9.21399 39.9021 9.3059 39.9225 9.39812C39.9282 9.42406 39.9338 9.45001 39.9391 9.47595C39.9858 9.69978 40.0225 9.92579 40.0495 10.154C40.0655 10.2893 40.078 10.4256 40.0868 10.5626C40.0946 10.6826 40.0999 10.803 40.1024 10.9236C40.1037 10.9886 40.1043 11.054 40.1043 11.119C40.1043 11.1821 40.1031 11.2456 40.1015 11.3091C40.0517 13.2259 39.3351 15.1988 37.9741 16.8546C37.7684 17.105 37.5478 17.3482 37.3123 17.583C37.2707 17.6246 37.2283 17.6659 37.186 17.7065C37.1735 17.7184 37.1613 17.7303 37.1487 17.7421C37.1167 17.7725 37.0848 17.8025 37.0528 17.8325C37.0406 17.8437 37.0284 17.8553 37.0161 17.8665C36.9732 17.9059 36.9299 17.9453 36.8864 17.9838C36.8839 17.986 36.881 17.9885 36.8785 17.9907C36.8375 18.0269 36.7961 18.0629 36.7547 18.0985C36.7419 18.1098 36.7287 18.1207 36.7155 18.1316C36.6823 18.1598 36.6488 18.1876 36.6152 18.2154C36.6027 18.2257 36.5905 18.236 36.5779 18.246C36.5334 18.2823 36.4886 18.3186 36.4434 18.3539C36.4384 18.3576 36.4334 18.3617 36.4287 18.3655C36.3883 18.397 36.3478 18.4286 36.3071 18.4596C36.2933 18.4699 36.2798 18.4802 36.266 18.4905C36.2315 18.5164 36.1967 18.5421 36.1623 18.5674C35.9532 18.7203 35.74 18.8634 35.5234 18.9969C35.7798 19.0422 36.0366 19.0988 36.293 19.1657C36.3369 19.1773 36.3811 19.1892 36.4249 19.2014C36.4554 19.2098 36.4858 19.2182 36.5159 19.2267C36.561 19.2395 36.6061 19.2529 36.6516 19.2667C36.6804 19.2755 36.7093 19.2839 36.7381 19.293C36.7873 19.3083 36.8368 19.3245 36.886 19.3405C36.9105 19.3486 36.9349 19.3561 36.9594 19.3645C37.0327 19.3892 37.1061 19.4149 37.1794 19.4414H37.1798C38.301 19.8485 39.2978 20.4346 40.1419 21.1473C41.7688 22.5212 42.828 24.3659 43.116 26.305C43.1286 26.3891 43.1396 26.4731 43.1493 26.5572C43.1505 26.5679 43.1518 26.5788 43.153 26.5894C43.1628 26.6776 43.1706 26.7661 43.1772 26.8545C43.1778 26.8614 43.1781 26.8683 43.1787 26.8752C43.185 26.9677 43.1897 27.0602 43.1928 27.1527C43.1928 27.1556 43.1928 27.1587 43.1928 27.1615C43.2189 28.0387 43.0841 28.924 42.7706 29.7833C42.2058 31.3307 41.1425 32.5705 39.7893 33.4198C38.4571 34.2564 36.8434 34.7143 35.1485 34.7143C34.0558 34.7143 32.9292 34.5239 31.8221 34.1222C31.8221 34.1222 31.8221 34.1222 31.8218 34.1222C31.7553 34.0982 31.6898 34.0732 31.6243 34.0478C31.6039 34.04 31.5836 34.0319 31.5632 34.0238C31.5171 34.0056 31.4713 33.9872 31.4256 33.9684C31.4036 33.9594 31.3814 33.9503 31.3594 33.9409C31.3124 33.9212 31.2657 33.9009 31.219 33.8806C31.2011 33.8728 31.1833 33.8653 31.1654 33.8572C31.1021 33.829 31.0391 33.8003 30.977 33.7709C30.966 33.7659 30.9554 33.7606 30.9444 33.7553C30.8927 33.7306 30.8413 33.7059 30.7902 33.6805C30.7698 33.6705 30.7498 33.6602 30.7297 33.6499C30.6871 33.6283 30.6448 33.6064 30.6024 33.5846C30.5821 33.5739 30.5617 33.5633 30.5413 33.5524C30.4943 33.5274 30.4476 33.502 30.4012 33.4761C30.3877 33.4686 30.3742 33.4614 30.3608 33.4539C30.3015 33.4208 30.2429 33.387 30.1846 33.3529C30.1699 33.3442 30.1551 33.3354 30.1407 33.3267C30.0968 33.3007 30.0533 33.2742 30.01 33.2476C29.9906 33.2357 29.9711 33.2235 29.9517 33.2113C29.9119 33.1863 29.8724 33.1613 29.8329 33.1357C29.8147 33.1238 29.7965 33.1122 29.7784 33.1003C29.7288 33.0678 29.6796 33.035 29.631 33.0019C29.6244 32.9975 29.6179 32.9931 29.6113 32.9887C29.5564 32.9509 29.5019 32.9128 29.448 32.874C29.432 32.8625 29.4163 32.8509 29.4006 32.8393C29.3621 32.8112 29.3238 32.7831 29.2859 32.7546C29.2677 32.7409 29.2495 32.7274 29.2317 32.7137C29.1941 32.6852 29.1571 32.6561 29.1201 32.6271C29.1047 32.6149 29.0891 32.6027 29.0737 32.5905C29.0223 32.5495 28.9712 32.5083 28.9207 32.4664C28.916 32.4623 28.911 32.4583 28.9063 32.4542C28.8605 32.4161 28.8154 32.3779 28.7709 32.3392C28.7552 32.3254 28.7395 32.3116 28.7239 32.2979C28.6894 32.2679 28.6555 32.2372 28.6217 32.2069C28.6054 32.1922 28.5888 32.1772 28.5728 32.1622C28.5371 32.1294 28.5016 32.0963 28.4665 32.0631C28.4543 32.0516 28.4418 32.04 28.4295 32.0281C28.3828 31.9834 28.3368 31.9384 28.2913 31.8931C28.2816 31.8834 28.2719 31.8734 28.2621 31.8637C28.2261 31.8274 28.1904 31.7908 28.1553 31.7543C28.1405 31.739 28.1258 31.7233 28.1111 31.7077C28.0803 31.6752 28.0499 31.6427 28.0195 31.6095C28.0051 31.5939 27.9907 31.5783 27.9766 31.5626C27.9415 31.5239 27.907 31.4851 27.8725 31.4457C27.8647 31.4367 27.8565 31.4279 27.8487 31.4188C27.807 31.3707 27.7659 31.3223 27.7252 31.2735C27.7142 31.26 27.7033 31.2466 27.6923 31.2332C27.6625 31.1969 27.633 31.1606 27.6039 31.1241C27.5904 31.1072 27.5772 31.0903 27.5638 31.0734C27.5362 31.0384 27.5089 31.0031 27.4819 30.9675C27.47 30.9518 27.4578 30.9359 27.4462 30.9202C27.1588 30.537 26.9058 30.135 26.6905 29.7186C26.7268 30.1963 26.7826 30.6683 26.8563 31.1344C26.8566 31.1372 26.8569 31.1397 26.8572 31.1422C26.861 31.1666 26.8654 31.191 26.8694 31.2153C26.8742 31.2441 26.8789 31.2726 26.8836 31.3013C26.8908 31.3438 26.898 31.386 26.9055 31.4282C26.9102 31.4554 26.9149 31.4826 26.9199 31.5095C26.9281 31.5551 26.9368 31.6011 26.9453 31.6467C26.9497 31.6702 26.9541 31.6933 26.9585 31.7168C26.9704 31.778 26.9826 31.8393 26.9951 31.9003C26.9967 31.9078 26.9983 31.9156 26.9998 31.9231C27.014 31.9915 27.0287 32.06 27.0434 32.1285C27.0481 32.1494 27.0528 32.17 27.0575 32.191C27.0682 32.2385 27.0785 32.2857 27.0895 32.3329C27.0955 32.3589 27.1017 32.3848 27.108 32.4107C27.118 32.4526 27.1277 32.4945 27.1381 32.5364C27.145 32.5642 27.1519 32.5921 27.1588 32.6199C27.1688 32.6599 27.1788 32.6999 27.1892 32.7399C27.1964 32.7684 27.2039 32.7965 27.2114 32.8249C27.2218 32.8643 27.2321 32.9034 27.2428 32.9425C27.2503 32.9709 27.2581 32.9991 27.266 33.0275C27.2769 33.0669 27.2879 33.1063 27.2989 33.1457C27.3067 33.1732 27.3146 33.201 27.3224 33.2285C27.334 33.2688 27.3459 33.3092 27.3578 33.3495C27.3657 33.3757 27.3732 33.402 27.3813 33.4283C27.3945 33.472 27.408 33.5155 27.4215 33.5589C27.4283 33.5814 27.4352 33.6039 27.4421 33.6265C27.4609 33.6862 27.4801 33.7459 27.4995 33.8053C27.5014 33.8115 27.5033 33.8175 27.5055 33.8237C27.5271 33.8894 27.5487 33.9547 27.571 34.02C27.5779 34.0403 27.5851 34.0607 27.592 34.081C27.6073 34.1257 27.623 34.1707 27.6387 34.2154C27.6475 34.2404 27.6565 34.2654 27.6656 34.2904C27.6801 34.3301 27.6942 34.3698 27.7089 34.4095C27.7186 34.4361 27.7286 34.463 27.7387 34.4896C27.7528 34.5277 27.7672 34.5655 27.7816 34.6033C27.792 34.6305 27.8023 34.6574 27.813 34.6846C27.8274 34.7221 27.8421 34.7593 27.8565 34.7965C27.8672 34.8234 27.8778 34.8506 27.8885 34.8775C27.9036 34.915 27.9186 34.9525 27.934 34.9897C27.9446 35.016 27.9556 35.0425 27.9662 35.0688C27.9822 35.1073 27.9982 35.1454 28.0145 35.1838C28.0252 35.2089 28.0355 35.2339 28.0462 35.2586C28.064 35.3001 28.0819 35.3414 28.1001 35.3827C28.1095 35.4039 28.1186 35.4255 28.128 35.4468C28.1531 35.5036 28.1788 35.5605 28.2045 35.6171C28.207 35.6227 28.2095 35.6284 28.212 35.6337C28.2402 35.6959 28.269 35.7575 28.2979 35.8194C28.3073 35.8391 28.3167 35.8588 28.3261 35.8788C28.3458 35.9207 28.3659 35.9622 28.386 36.0041C28.3976 36.0282 28.4095 36.0519 28.4211 36.076C28.4396 36.1135 28.4577 36.1507 28.4766 36.1882C28.4891 36.2136 28.5019 36.2386 28.5145 36.2636C28.5327 36.2995 28.5508 36.3352 28.5693 36.3711C28.5825 36.3967 28.5957 36.4224 28.6091 36.448C28.6273 36.483 28.6458 36.518 28.6643 36.5531C28.6778 36.5787 28.6916 36.6043 28.7051 36.63C28.7239 36.665 28.7427 36.7 28.7618 36.735C28.7753 36.76 28.7891 36.785 28.8026 36.8097C28.8223 36.8456 28.8424 36.8816 28.8624 36.9175C28.8756 36.941 28.8888 36.9647 28.9019 36.9882C28.9239 37.0273 28.9464 37.066 28.9687 37.1048C28.9803 37.1248 28.9916 37.1448 29.0032 37.1648C29.0351 37.2198 29.0674 37.2745 29.1 37.3292C29.1022 37.333 29.1044 37.3364 29.1066 37.3402C29.1414 37.3983 29.1765 37.4565 29.2119 37.5143C29.2235 37.5331 29.2351 37.5515 29.2467 37.5703C29.2709 37.6093 29.295 37.6481 29.3191 37.6869C29.3332 37.7094 29.3477 37.7319 29.3621 37.7544C29.3843 37.7891 29.4063 37.8238 29.4285 37.8585C29.4439 37.8822 29.4593 37.9057 29.4746 37.9294C29.4962 37.9626 29.5182 37.996 29.5401 38.0292C29.5561 38.0532 29.5721 38.0773 29.5881 38.1011C29.61 38.1339 29.632 38.1664 29.6539 38.1989C29.6702 38.2227 29.6862 38.2467 29.7025 38.2705C29.7248 38.303 29.7473 38.3358 29.7702 38.3683C29.7865 38.3915 29.8025 38.4149 29.8188 38.438C29.8423 38.4715 29.8661 38.505 29.8899 38.5381C29.9056 38.56 29.921 38.5818 29.9366 38.6034C29.963 38.6397 29.9893 38.6759 30.0156 38.7122C30.0291 38.7306 30.0426 38.7491 30.0561 38.7675C30.094 38.8188 30.1319 38.8698 30.1705 38.9207C30.1727 38.9238 30.1752 38.927 30.1774 38.9301C30.2181 38.9839 30.2592 39.0373 30.3003 39.0908C30.3137 39.1083 30.3275 39.1258 30.3413 39.143C30.3692 39.1789 30.3974 39.2146 30.4256 39.2502C30.4419 39.2708 30.4589 39.2915 30.4752 39.3124C30.5009 39.3446 30.5266 39.3765 30.5526 39.4084C30.5705 39.4303 30.5883 39.4521 30.6062 39.4737C30.6313 39.5043 30.6564 39.535 30.6817 39.5653C30.7002 39.5875 30.7184 39.6094 30.7369 39.6316C30.762 39.6616 30.7874 39.6916 30.8128 39.7213C30.8313 39.7432 30.8501 39.7651 30.8689 39.7869C30.8946 39.8169 30.9206 39.8466 30.9466 39.8767C30.9651 39.8979 30.9836 39.9192 31.0024 39.9404C31.0294 39.9711 31.0566 40.0017 31.0839 40.0323C31.1018 40.0523 31.1193 40.0723 31.1372 40.092C31.167 40.1252 31.1971 40.1583 31.2275 40.1911C31.2428 40.208 31.2582 40.2249 31.2739 40.2418C31.3178 40.2896 31.3619 40.3368 31.4065 40.384C31.4083 40.3859 31.4099 40.3878 31.4118 40.3896C31.4579 40.4387 31.5046 40.4875 31.5513 40.5359C31.567 40.5522 31.5826 40.5681 31.598 40.5841C31.6293 40.6166 31.661 40.6488 31.6926 40.681C31.7111 40.6997 31.7299 40.7185 31.7488 40.7373C31.7779 40.7663 31.8067 40.7954 31.8359 40.8245C31.856 40.8442 31.876 40.8639 31.8958 40.8835C31.924 40.9114 31.9525 40.9392 31.981 40.9667C32.0017 40.9867 32.0224 41.0064 32.0431 41.0264C32.0713 41.0536 32.0998 41.0805 32.1284 41.1074C32.1494 41.1271 32.17 41.1468 32.191 41.1665C32.2199 41.1937 32.249 41.2205 32.2782 41.2474C32.2989 41.2665 32.3196 41.2856 32.3403 41.3046C32.3707 41.3325 32.4011 41.36 32.4315 41.3875C32.4512 41.4053 32.471 41.4231 32.4907 41.4409C32.5243 41.4709 32.5581 41.5006 32.592 41.5306C32.6089 41.5456 32.6258 41.5606 32.6427 41.5753C32.6929 41.6191 32.7434 41.6629 32.7938 41.706C32.7945 41.7066 32.7951 41.7069 32.7957 41.7076C30.0937 43.3916 26.9008 44.3647 23.48 44.3647C20.0592 44.3647 16.7695 43.3616 14.0421 41.63C14.0433 41.6291 14.0443 41.6282 14.0455 41.6272H14.043Z" fill="#EBFAF8"/>
<path id="Vector_2" d="M17.2799 26.6435C18.9392 26.6435 20.2844 24.1002 20.2844 20.9629C20.2844 17.8255 18.9392 15.2822 17.2799 15.2822C15.6206 15.2822 14.2754 17.8255 14.2754 20.9629C14.2754 24.1002 15.6206 26.6435 17.2799 26.6435Z" fill="#EBFAF8"/>
<path id="Vector_3" d="M29.6783 26.6435C31.3377 26.6435 32.6828 24.1002 32.6828 20.9629C32.6828 17.8255 31.3377 15.2822 29.6783 15.2822C28.019 15.2822 26.6738 17.8255 26.6738 20.9629C26.6738 24.1002 28.019 26.6435 29.6783 26.6435Z" fill="#EBFAF8"/>
</g>
<defs>
<clipPath id="clip0_94_15350">
<rect width="46.9565" height="48.1159" fill="white"/>
</clipPath>
</defs>
</svg>
