<svg width="65" height="63" viewBox="0 0 65 63" fill="none" xmlns="http://www.w3.org/2000/svg">
<g id="Fiore">
<path id="Union" fill-rule="evenodd" clip-rule="evenodd" d="M37.1371 26.921C35.6794 27.4418 34.109 27.7255 32.4723 27.7255C30.8117 27.7255 29.2193 27.4335 27.7437 26.8981C27.7498 27.0665 27.7528 27.2357 27.7528 27.4056C27.7528 30.5743 26.6897 33.4947 24.9006 35.8296C28.0203 36.7407 30.6847 38.719 32.4721 41.3426C34.2497 38.7333 36.8949 36.7623 39.9926 35.8446C38.1965 33.5073 37.1288 30.5811 37.1288 27.4056C37.1288 27.2434 37.1316 27.0819 37.1371 26.921ZM46.3267 14.3473C46.3322 14.1865 46.335 14.0249 46.335 13.8627C46.335 6.20656 40.1285 0 32.4723 0C24.8161 0 18.6096 6.20656 18.6096 13.8627C18.6096 14.0326 18.6126 14.2018 18.6187 14.3703C17.143 13.8349 15.5507 13.5429 13.8901 13.5429C6.2339 13.5429 0.0273438 19.7494 0.0273438 27.4056C0.0273438 33.7101 4.23583 39.0316 9.99673 40.7142C8.20768 43.049 7.14453 45.9694 7.14453 49.1381C7.14453 56.7943 13.3511 63.0009 21.0073 63.0009C25.773 63.0009 29.977 60.596 32.4721 56.9336C34.9672 60.596 39.1712 63.0009 43.937 63.0009C51.5931 63.0009 57.7997 56.7943 57.7997 49.1381C57.7997 45.9626 56.732 43.0365 54.936 40.6991C60.6707 39.0002 64.8543 33.6915 64.8543 27.4056C64.8543 19.7494 58.6477 13.5429 50.9916 13.5429C49.3549 13.5429 47.7844 13.8265 46.3267 14.3473Z" fill="#FCA453"/>
<path id="Vector" d="M32.5608 46.2193C39.8647 46.2193 45.7857 40.2983 45.7857 32.9944C45.7857 25.6905 39.8647 19.7695 32.5608 19.7695C25.2569 19.7695 19.3359 25.6905 19.3359 32.9944C19.3359 40.2983 25.2569 46.2193 32.5608 46.2193Z" fill="#040404"/>
</g>
</svg>
