<svg width="140" height="56" viewBox="0 0 140 56" fill="none" xmlns="http://www.w3.org/2000/svg">
<g id="Relume / Black">
<path id="Vector" d="M49.6152 37.0475H53.7738V29.9184H55.5819L59.9989 37.0475H64.4416L59.5598 29.1952C61.7295 28.5495 63.3568 27.0771 63.3568 24.2875V24.1842C63.3568 20.3614 60.593 18.5791 56.2277 18.5791H49.6152V37.0475ZM53.7738 27.0771V21.782H56.1244C58.1391 21.782 59.2757 22.4278 59.2757 24.3133V24.4167C59.2757 26.199 58.2167 27.0771 56.1244 27.0771H53.7738Z" fill="#EBFAF8"/>
<path id="Vector_2" d="M71.579 37.3316C75.2726 37.3316 77.5973 35.7044 78.0364 32.7855H74.4977C74.2652 33.9221 73.4129 34.6712 71.6823 34.6712C69.6417 34.6712 68.4277 33.3797 68.3244 31.1325H78.0623V30.0993C78.0623 25.269 74.9627 23.2285 71.4756 23.2285C67.5495 23.2285 64.5273 25.9923 64.5273 30.2542V30.4608C64.5273 34.7745 67.4978 37.3316 71.579 37.3316ZM68.376 28.8336C68.6601 26.9222 69.7967 25.8115 71.4756 25.8115C73.2579 25.8115 74.2911 26.793 74.4203 28.8336H68.376Z" fill="#EBFAF8"/>
<path id="Vector_3" d="M79.8428 37.0477H83.5623V17.417H79.8428V37.0477Z" fill="#EBFAF8"/>
<path id="Vector_4" d="M90.6982 37.3312C92.9198 37.3312 94.2883 36.298 94.9857 34.9291V37.0471H98.7053V23.5381H94.9857V31.4679C94.9857 33.4568 93.7458 34.4383 92.1708 34.4383C90.5696 34.4383 89.8197 33.5601 89.8197 31.7262V23.5381H86.1006V32.2428C86.1006 35.7814 88.0636 37.3312 90.6982 37.3312Z" fill="#EBFAF8"/>
<path id="Vector_5" d="M101.244 37.0475H104.99V29.0661C104.99 27.2322 106.152 26.3022 107.598 26.3022C108.916 26.3022 109.717 27.0771 109.717 28.8078V37.0475H113.436V29.0661C113.436 27.2322 114.598 26.3022 116.045 26.3022C117.388 26.3022 118.163 27.0771 118.163 28.8078V37.0475H121.883V28.3945C121.883 24.8041 119.946 23.2285 117.44 23.2285C115.735 23.2285 113.979 23.9517 112.894 25.579C112.248 23.9776 110.905 23.2285 109.123 23.2285C107.108 23.2285 105.661 24.3392 104.99 25.6048V23.5384H101.244V37.0475Z" fill="#EBFAF8"/>
<path id="Vector_6" d="M130.532 37.3316C134.226 37.3316 136.551 35.7044 136.99 32.7855H133.451C133.218 33.9221 132.366 34.6712 130.635 34.6712C128.595 34.6712 127.381 33.3797 127.278 31.1325H137.016V30.0993C137.016 25.269 133.916 23.2285 130.429 23.2285C126.503 23.2285 123.48 25.9923 123.48 30.2542V30.4608C123.48 34.7745 126.451 37.3316 130.532 37.3316ZM127.33 28.8336C127.614 26.9222 128.751 25.8115 130.429 25.8115C132.211 25.8115 133.245 26.793 133.374 28.8336H127.33Z" fill="#EBFAF8"/>
<path id="Vector_7" fill-rule="evenodd" clip-rule="evenodd" d="M35.303 19.684L35.0519 19.2356C34.728 18.6932 34.2712 18.2425 33.7246 17.9261L21.6885 10.9843C21.1435 10.6682 20.5249 10.5011 19.8948 10.5H19.3746C18.7445 10.5011 18.1259 10.6682 17.5808 10.9843L5.54487 17.9441C5.00132 18.2584 4.5498 18.7099 4.23544 19.2535L3.98431 19.7019C3.66816 20.2469 3.50112 20.8656 3.5 21.4956V35.3972C3.50112 36.0273 3.66816 36.6459 3.98431 37.1909L4.23544 37.6393C4.55793 38.1766 5.00762 38.6263 5.54487 38.9488L17.5988 45.8905C18.1411 46.2132 18.7616 46.3808 19.3925 46.3748H19.8948C20.5249 46.3737 21.1435 46.2066 21.6885 45.8905L33.7246 38.9309C34.2735 38.6236 34.7267 38.1704 35.0339 37.6214L35.303 37.173C35.6154 36.6264 35.7822 36.0087 35.7873 35.3792V21.4777C35.7863 20.8477 35.6192 20.229 35.303 19.684ZM19.3746 14.0874H19.8948L30.4062 20.1503L19.6437 26.3566L8.88125 20.1503L19.3746 14.0874ZM21.4374 41.8906L31.9308 35.8277L32.1998 35.3793V23.2536L21.4374 29.4779V41.8906Z" fill="#EBFAF8"/>
</g>
</svg>
