<svg width="47" height="49" viewBox="0 0 47 49" fill="none" xmlns="http://www.w3.org/2000/svg">
<g id="LOGO" clip-path="url(#clip0_94_15371)">
<path id="Vector" d="M46.4362 24.3873C46.2967 23.944 46.1309 23.5095 45.9403 23.0856C45.8795 22.9502 45.8162 22.8161 45.7504 22.6833C45.7181 22.6179 45.6852 22.5529 45.6516 22.4882C45.3291 21.8652 44.951 21.2678 44.5216 20.7026C44.4526 20.612 44.3824 20.5222 44.311 20.4332C44.2044 20.3003 44.0947 20.1693 43.9824 20.0405C43.8956 19.9411 43.8072 19.8426 43.7169 19.7457C43.6612 19.6857 43.605 19.626 43.548 19.5669C43.2408 19.2484 42.9151 18.9436 42.5722 18.6538C42.3625 18.4769 42.1475 18.3065 41.9277 18.143C42.3744 17.4222 42.7493 16.6632 43.048 15.8729C43.5514 14.5425 43.8248 13.1639 43.8608 11.7753C43.8778 11.1248 43.8423 10.4833 43.7555 9.85371C43.7389 9.73398 43.7204 9.61488 43.7003 9.49609C43.6753 9.34886 43.6474 9.20256 43.6166 9.05688C43.4988 8.49857 43.3395 7.9512 43.1383 7.41728C42.8405 6.62795 42.4587 5.88708 41.997 5.19935C41.6061 4.61697 41.1588 4.07242 40.6554 3.57038C40.3485 3.26434 40.025 2.97924 39.6874 2.71478C37.7474 1.1949 35.3256 0.369629 32.7421 0.369629C31.0814 0.369629 29.4423 0.704115 27.8691 1.3634C26.2695 2.03393 24.8248 3.00613 23.5744 4.25279C23.5421 4.28499 23.5101 4.31719 23.4781 4.3497C23.4462 4.31719 23.4142 4.28499 23.3819 4.25279C22.1315 3.00582 20.6868 2.03362 19.0872 1.3634C17.5143 0.703802 15.8752 0.369629 14.2148 0.369629C11.1811 0.369629 8.37065 1.50657 6.30088 3.57069C4.21825 5.64763 3.07852 8.46856 3.09168 11.5133C3.09356 11.9553 3.11989 12.3971 3.17005 12.8366C3.18415 12.9616 3.20045 13.0863 3.21863 13.2111C3.23243 13.3049 3.24716 13.3986 3.26283 13.4924C3.28258 13.609 3.30389 13.7253 3.32678 13.8413C3.33242 13.8697 3.33837 13.8985 3.34402 13.9269C3.3669 14.0376 3.39104 14.1483 3.41674 14.2586C3.4415 14.364 3.46752 14.469 3.49479 14.574C3.55748 14.8138 3.62707 15.0523 3.70387 15.2886C3.7186 15.3343 3.73365 15.3799 3.74901 15.4252C3.82486 15.6506 3.9073 15.8741 3.9957 16.0958C4.27781 16.8016 4.62293 17.4872 5.02886 18.1427C4.80819 18.3068 4.59253 18.4778 4.38188 18.6557C2.54595 20.2071 1.2103 22.1897 0.519435 24.3888C0.162718 25.5267 -0.0121918 26.6959 0.000659995 27.8631C0.00316767 28.0876 0.0125714 28.3114 0.0288713 28.534C0.035454 28.6227 0.042977 28.7112 0.0517539 28.8C0.0649192 28.9335 0.0805921 29.0666 0.0984593 29.1995C0.10128 29.2204 0.104102 29.2411 0.107236 29.262C0.166793 29.6822 0.251427 30.0979 0.360511 30.5084C0.371169 30.5481 0.381826 30.5878 0.392798 30.6275C0.421636 30.7309 0.452041 30.8338 0.483701 30.9366C0.535735 31.1042 0.591531 31.2708 0.651715 31.4362C0.715974 31.6122 0.785249 31.786 0.858285 31.9579C1.26704 32.9195 1.8112 33.8142 2.482 34.6232C2.71773 34.9076 2.96787 35.1799 3.2318 35.4397C3.45404 35.6585 3.68631 35.8683 3.92736 36.0686C4.12296 36.2312 4.32452 36.3875 4.53171 36.5376C4.64456 36.6191 4.75929 36.6992 4.87558 36.777C4.96993 36.8402 5.06522 36.9027 5.16177 36.9633C5.18496 36.9777 5.20847 36.9918 5.23167 37.0061C5.37743 37.0962 5.52507 37.1834 5.67427 37.2669C5.75703 37.3131 5.84009 37.3588 5.9241 37.4032C7.69953 38.3422 9.71602 38.8355 11.8087 38.8355C11.8582 38.8355 11.908 38.8355 11.9576 38.8346C11.846 38.9343 11.7325 39.0328 11.6175 39.1293L8.00892 42.1069C8.00892 42.1069 9.75332 43.734 12.019 45.1642C15.4417 47.3371 19.4038 48.4856 23.4769 48.4856C27.55 48.4856 31.3983 47.3696 34.7862 45.2583C37.0716 43.8659 38.816 42.2388 38.816 42.2388L35.2401 39.2284C35.088 39.0987 34.9395 38.9659 34.7937 38.8305C34.9113 38.8336 35.0291 38.8352 35.147 38.8352C37.5446 38.8352 39.8423 38.1881 41.792 36.9639C42.8154 36.3215 43.7176 35.5341 44.4724 34.6241C45.2636 33.6704 45.8795 32.5978 46.3036 31.4365C46.7227 30.2883 46.9418 29.0857 46.9553 27.8625C46.9562 27.7897 46.9562 27.7165 46.9553 27.6437C46.9453 26.5489 46.7707 25.4548 46.4353 24.3876L46.4362 24.3873ZM14.043 41.9969C14.0935 41.9547 14.1433 41.9121 14.1932 41.8693C14.2104 41.8546 14.2273 41.8399 14.2443 41.8249C14.2781 41.7955 14.312 41.7665 14.3455 41.7371C14.3656 41.7196 14.3853 41.7018 14.4054 41.6839C14.4358 41.6571 14.4662 41.6299 14.4966 41.6027C14.5176 41.5839 14.5383 41.5648 14.5593 41.5461C14.5884 41.5198 14.6173 41.4933 14.6461 41.4667C14.6674 41.4473 14.6884 41.4276 14.7094 41.4079C14.7379 41.3813 14.7662 41.3551 14.7947 41.3282C14.8157 41.3085 14.8364 41.2888 14.8574 41.2691C14.8859 41.2419 14.9144 41.2147 14.943 41.1872C14.963 41.1678 14.9831 41.1485 15.0031 41.1291C15.0326 41.1003 15.0621 41.0712 15.0915 41.0425C15.11 41.0244 15.1285 41.0059 15.147 40.9878C15.1799 40.955 15.2128 40.9221 15.2454 40.889C15.2599 40.8743 15.2746 40.8596 15.2893 40.8449C15.3363 40.7971 15.383 40.7493 15.4294 40.7008C15.4379 40.6921 15.4461 40.6833 15.4542 40.6749C15.4924 40.6348 15.5304 40.5951 15.568 40.5548C15.5846 40.5373 15.6009 40.5195 15.6175 40.5017C15.647 40.4701 15.6761 40.4385 15.7053 40.407C15.7238 40.387 15.742 40.3669 15.7601 40.3466C15.7871 40.3169 15.8141 40.2872 15.841 40.2572C15.8598 40.2363 15.8786 40.215 15.8974 40.1938C15.9235 40.1644 15.9495 40.1353 15.9752 40.1056C15.994 40.084 16.0131 40.0622 16.0319 40.0406C16.0576 40.0112 16.083 39.9815 16.1084 39.9521C16.1269 39.9305 16.1454 39.9087 16.1639 39.8871C16.1896 39.8568 16.2153 39.8261 16.2407 39.7958C16.2582 39.7746 16.2761 39.7536 16.2936 39.7324C16.3203 39.7002 16.3469 39.6677 16.3736 39.6351C16.3896 39.6154 16.4059 39.5958 16.4219 39.5761C16.4529 39.5376 16.4836 39.4992 16.5143 39.4604C16.5253 39.4463 16.5366 39.4326 16.5479 39.4185C16.5896 39.366 16.6309 39.3128 16.6717 39.26C16.682 39.2469 16.6921 39.2334 16.7021 39.2203C16.7328 39.1803 16.7635 39.14 16.7939 39.0997C16.809 39.0796 16.8237 39.0596 16.8388 39.0399C16.8641 39.0059 16.8895 38.9718 16.9149 38.9377C16.9312 38.9158 16.9472 38.8936 16.9632 38.8715C16.9867 38.8393 17.0102 38.8067 17.0337 38.7742C17.0503 38.7511 17.067 38.7277 17.0836 38.7045C17.1061 38.6726 17.1287 38.6408 17.1513 38.6086C17.1679 38.5851 17.1842 38.5613 17.2005 38.5379C17.2231 38.5057 17.2453 38.4732 17.2676 38.4407C17.2836 38.4172 17.2995 38.3941 17.3155 38.3707C17.3381 38.3372 17.3607 38.3038 17.3829 38.27C17.398 38.2475 17.413 38.225 17.4281 38.2022C17.4519 38.1662 17.4754 38.13 17.4989 38.0937C17.5121 38.0734 17.5255 38.0531 17.5387 38.0327C17.5682 37.9871 17.5973 37.9411 17.6262 37.8952C17.6331 37.8839 17.6403 37.873 17.6475 37.8617C17.6832 37.8048 17.7186 37.7476 17.7537 37.6901C17.7644 37.6729 17.7747 37.6554 17.7851 37.6382C17.8095 37.5979 17.834 37.5573 17.8584 37.5166C17.8719 37.4941 17.8851 37.4716 17.8982 37.4491C17.9192 37.4135 17.9406 37.3775 17.9613 37.3416C17.9754 37.3172 17.9891 37.2928 18.0033 37.2687C18.023 37.2343 18.0427 37.1996 18.0625 37.165C18.0766 37.1399 18.0907 37.1149 18.1048 37.0896C18.1239 37.0552 18.1431 37.0208 18.1619 36.9865C18.1757 36.9611 18.1894 36.9361 18.2032 36.9108C18.2224 36.8758 18.2412 36.8408 18.2597 36.8058C18.2728 36.7808 18.2863 36.7561 18.2995 36.7311C18.3186 36.6948 18.3377 36.6582 18.3565 36.622C18.3687 36.5982 18.3813 36.5744 18.3935 36.5504C18.4139 36.5107 18.4339 36.4707 18.4543 36.4306C18.4647 36.41 18.4753 36.3894 18.4857 36.3684C18.5142 36.3112 18.5424 36.254 18.5703 36.1965C18.5719 36.1931 18.5738 36.1896 18.5753 36.1862C18.6048 36.1252 18.6339 36.064 18.6628 36.0027C18.6722 35.9827 18.6816 35.9624 18.691 35.942C18.7101 35.9005 18.7295 35.8592 18.7483 35.8176C18.7593 35.7932 18.7703 35.7689 18.7813 35.7445C18.7982 35.7067 18.8151 35.6691 18.832 35.631C18.8436 35.6051 18.8549 35.5791 18.8662 35.5532C18.8822 35.5166 18.8982 35.48 18.9139 35.4431C18.9251 35.4166 18.9367 35.3897 18.9477 35.3631C18.9631 35.3265 18.9784 35.29 18.9935 35.2534C19.0044 35.2268 19.0154 35.1999 19.0264 35.173C19.0414 35.1358 19.0565 35.0986 19.0715 35.0611C19.0822 35.0349 19.0925 35.0086 19.1029 34.982C19.1182 34.943 19.1333 34.9039 19.1483 34.8648C19.1577 34.8401 19.1674 34.8154 19.1768 34.7907C19.1938 34.7466 19.2101 34.7023 19.2267 34.6582C19.2342 34.6382 19.2417 34.6185 19.2489 34.5988C19.2725 34.5347 19.2956 34.4703 19.3185 34.4056C19.3217 34.3965 19.3248 34.3875 19.3279 34.3787C19.3474 34.3231 19.3668 34.2674 19.3859 34.2118C19.3938 34.189 19.4013 34.1658 19.4091 34.143C19.4232 34.1008 19.4373 34.0586 19.4511 34.0164C19.4596 33.9901 19.4681 33.9639 19.4765 33.9376C19.4891 33.8982 19.5019 33.8589 19.5141 33.8195C19.5226 33.792 19.5311 33.7648 19.5398 33.7373C19.5517 33.6988 19.5637 33.66 19.5753 33.6213C19.5837 33.5931 19.5922 33.5653 19.6003 33.5372C19.6116 33.4987 19.6229 33.46 19.6342 33.4212C19.6423 33.3934 19.6502 33.3652 19.6583 33.3374C19.6696 33.298 19.6806 33.2583 19.6912 33.219C19.6988 33.1918 19.7063 33.1646 19.7135 33.1374C19.7248 33.0958 19.7357 33.0539 19.7467 33.012C19.7533 32.9867 19.7599 32.9617 19.7665 32.9364C19.779 32.8876 19.7912 32.8385 19.8035 32.7894C19.8078 32.7713 19.8125 32.7532 19.8169 32.735C19.8332 32.6678 19.8495 32.6003 19.8652 32.5328C19.869 32.5172 19.8724 32.5015 19.8759 32.4856C19.8878 32.4337 19.8997 32.3815 19.911 32.3293C19.9163 32.3043 19.9216 32.2793 19.927 32.2546C19.9364 32.2114 19.9454 32.1683 19.9545 32.1248C19.9602 32.097 19.9658 32.0695 19.9715 32.0417C19.9796 32.0007 19.9878 31.9601 19.9959 31.9191C20.0016 31.8904 20.0069 31.8616 20.0125 31.8326C20.0201 31.7922 20.0276 31.7522 20.0348 31.7119C20.0401 31.6828 20.0454 31.6537 20.0505 31.6244C20.0536 31.6065 20.057 31.589 20.0599 31.5712C20.0605 31.5684 20.0605 31.5659 20.0608 31.5631C20.1423 31.0907 20.2053 30.6122 20.2483 30.1276C20.0298 30.5443 19.774 30.9463 19.4837 31.3296C19.4768 31.3386 19.4696 31.3477 19.4627 31.3571C19.4314 31.398 19.4 31.4387 19.3681 31.479C19.3552 31.4953 19.3424 31.5112 19.3292 31.5275C19.3016 31.5618 19.2737 31.5959 19.2455 31.63C19.2323 31.6459 19.2188 31.6622 19.2057 31.6781C19.1728 31.7175 19.1392 31.7566 19.1054 31.7954C19.0975 31.8044 19.0897 31.8138 19.0819 31.8229C19.0402 31.8704 18.9982 31.9173 18.9552 31.9642C18.9433 31.977 18.9314 31.9898 18.9198 32.0026C18.8881 32.037 18.8559 32.0711 18.8236 32.1051C18.8085 32.1208 18.7938 32.1364 18.7788 32.1517C18.7471 32.1845 18.7151 32.2167 18.6831 32.2493C18.6694 32.263 18.6559 32.2771 18.6418 32.2905C18.5963 32.3355 18.5506 32.3802 18.5038 32.4243C18.5007 32.4271 18.4979 32.4299 18.4948 32.4328C18.4512 32.474 18.407 32.515 18.3622 32.5559C18.3471 32.5697 18.3318 32.5834 18.3164 32.5969C18.2825 32.6272 18.2487 32.6575 18.2142 32.6875C18.1979 32.7019 18.1813 32.7163 18.1647 32.7304C18.1274 32.7626 18.0898 32.7941 18.0518 32.8257C18.0393 32.836 18.0271 32.8466 18.0145 32.857C17.9644 32.8982 17.9139 32.9389 17.8628 32.9795C17.8509 32.9889 17.839 32.9979 17.8271 33.0073C17.7873 33.0386 17.7472 33.0695 17.7064 33.1002C17.6889 33.1133 17.6713 33.1267 17.6534 33.1399C17.6164 33.1674 17.5795 33.1946 17.5422 33.2218C17.5249 33.2343 17.5077 33.2468 17.4904 33.259C17.4431 33.2927 17.3955 33.3262 17.3475 33.359C17.3409 33.3637 17.3343 33.3684 17.3277 33.3728C17.2732 33.41 17.218 33.4465 17.1626 33.4828C17.1463 33.4934 17.1293 33.504 17.113 33.5147C17.0729 33.5406 17.0325 33.5663 16.9917 33.5916C16.9726 33.6035 16.9532 33.6156 16.9337 33.6275C16.8924 33.6528 16.8507 33.6779 16.809 33.7029C16.7924 33.7126 16.7761 33.7226 16.7591 33.7326C16.7015 33.7663 16.6432 33.7998 16.5845 33.8326C16.5754 33.8376 16.566 33.8426 16.557 33.8476C16.5068 33.8754 16.4566 33.9026 16.4059 33.9295C16.3864 33.9398 16.3667 33.9501 16.3469 33.9604C16.3049 33.9823 16.2626 34.0042 16.22 34.0255C16.1996 34.0358 16.1795 34.0458 16.1592 34.0561C16.1106 34.0802 16.062 34.1036 16.0128 34.1271C15.9996 34.1333 15.9868 34.1396 15.9736 34.1458C15.9119 34.1749 15.8495 34.2033 15.7868 34.2312C15.7702 34.2387 15.7536 34.2455 15.7369 34.2527C15.6899 34.2734 15.6426 34.2937 15.5949 34.3137C15.5733 34.3228 15.5517 34.3318 15.5301 34.3406C15.4846 34.3593 15.4388 34.3778 15.3931 34.3956C15.373 34.4034 15.353 34.4115 15.3329 34.4193C15.268 34.4444 15.2031 34.4691 15.1373 34.4928C15.1373 34.4928 15.1367 34.4928 15.1364 34.4931C14.0295 34.8948 12.903 35.0852 11.8102 35.0852C10.1144 35.0852 8.50042 34.6269 7.16759 33.7898C6.70273 33.4978 6.27204 33.1599 5.88398 32.7788C5.5188 32.4206 5.19186 32.0242 4.90943 31.5928C4.87495 31.54 4.8411 31.4868 4.80787 31.4327C4.56212 31.0342 4.35336 30.6075 4.18785 30.1539C3.07193 27.096 4.2217 23.7099 6.81464 21.5188C7.6591 20.8055 8.65653 20.219 9.7784 19.8117C9.77902 19.8117 9.77965 19.8114 9.77996 19.8111C9.85269 19.7845 9.92572 19.7592 9.99876 19.7348C10.0232 19.7267 10.0477 19.7189 10.0721 19.7107C10.1213 19.6945 10.1708 19.6785 10.2201 19.6632C10.2489 19.6541 10.2777 19.6457 10.3066 19.637C10.3517 19.6232 10.3969 19.6098 10.4423 19.5969C10.4727 19.5882 10.5031 19.5797 10.5335 19.5716C10.5774 19.5594 10.6216 19.5475 10.6655 19.5363C10.9219 19.4694 11.1786 19.4128 11.435 19.3675C11.2181 19.234 11.005 19.0908 10.7959 18.938C10.7611 18.9126 10.7266 18.887 10.6921 18.8611C10.6783 18.8508 10.6645 18.8404 10.6508 18.8298C10.61 18.7989 10.5696 18.7679 10.5294 18.736C10.5244 18.732 10.5194 18.7282 10.5144 18.7241C10.4693 18.6888 10.4247 18.6526 10.3802 18.6163C10.3677 18.606 10.3555 18.5957 10.3429 18.5857C10.3097 18.5582 10.2762 18.5303 10.2433 18.5022C10.2301 18.4909 10.2169 18.4797 10.2038 18.4684C10.1624 18.4331 10.1213 18.3975 10.0803 18.3612C10.0774 18.3587 10.0746 18.3565 10.0721 18.354C10.0285 18.3156 9.98559 18.2762 9.94265 18.2368C9.93011 18.2252 9.91789 18.214 9.90535 18.2024C9.87337 18.1727 9.8414 18.1427 9.80974 18.1124C9.7972 18.1005 9.78467 18.0886 9.77213 18.0764C9.72981 18.0358 9.68749 17.9945 9.6458 17.953C9.41008 17.7179 9.18941 17.4744 8.98346 17.2237C7.57979 15.5159 6.86228 13.4708 6.85413 11.498C6.84567 9.53392 7.5403 7.64141 8.96183 6.22376C10.3746 4.81454 12.2588 4.1215 14.2157 4.1215C16.4952 4.1215 18.8737 5.06181 20.7231 6.90586C21.5522 7.73269 22.1992 8.66613 22.6606 9.64895C22.6606 9.64927 22.6606 9.64958 22.6609 9.64989C22.6879 9.70741 22.7142 9.76493 22.7399 9.82276C22.7484 9.84214 22.7565 9.86121 22.765 9.88059C22.7819 9.91967 22.7992 9.95874 22.8155 9.99782C22.8252 10.021 22.8346 10.0441 22.844 10.0672C22.8587 10.1025 22.8732 10.1382 22.8873 10.1738C22.897 10.1985 22.9067 10.2235 22.9161 10.2482C22.9293 10.2823 22.9424 10.3164 22.9553 10.3507C22.9647 10.3764 22.9741 10.402 22.9835 10.4276C22.9957 10.4614 23.0079 10.4952 23.0195 10.5289C23.0286 10.5549 23.0374 10.5808 23.0462 10.6068C23.0575 10.6405 23.0688 10.674 23.0797 10.7077C23.0882 10.7337 23.0967 10.7599 23.1048 10.7862C23.1155 10.82 23.1258 10.854 23.1362 10.8878C23.144 10.9137 23.1518 10.9397 23.1597 10.9656C23.3208 11.5149 23.4277 12.071 23.4788 12.6259C23.5299 12.071 23.6364 11.5146 23.7979 10.9653C23.8054 10.9397 23.8132 10.9137 23.8211 10.8881C23.8314 10.854 23.8421 10.82 23.8527 10.7859C23.8609 10.7599 23.8693 10.734 23.8778 10.7081C23.8888 10.6743 23.9001 10.6402 23.9116 10.6065C23.9204 10.5805 23.9292 10.5549 23.9383 10.5292C23.9502 10.4952 23.9624 10.4614 23.9747 10.4273C23.9837 10.402 23.9931 10.3767 24.0026 10.3514C24.0154 10.317 24.0286 10.2823 24.042 10.2479C24.0515 10.2232 24.0609 10.1988 24.0706 10.1741C24.0847 10.1385 24.0994 10.1025 24.1141 10.0669C24.1235 10.0441 24.1329 10.021 24.1424 9.99813C24.159 9.95875 24.1762 9.91936 24.1931 9.87997C24.2013 9.8609 24.2094 9.84214 24.2179 9.82307C24.2439 9.76493 24.2702 9.70679 24.2975 9.64895C24.7589 8.66613 25.4059 7.73269 26.235 6.90586C28.0838 5.06181 30.4626 4.1215 32.7421 4.1215C34.6994 4.1215 36.5829 4.81454 37.9963 6.22376C38.6167 6.8424 39.0981 7.5517 39.4436 8.31758C39.4658 8.36697 39.4874 8.41636 39.5084 8.46606C39.5373 8.5339 39.5649 8.60204 39.5915 8.67082C39.6084 8.71427 39.6247 8.75772 39.641 8.80149C39.7128 8.99686 39.7761 9.19537 39.831 9.39668C39.8398 9.42857 39.8482 9.46014 39.8564 9.49203C39.8802 9.58362 39.9021 9.67553 39.9225 9.76774C39.9282 9.79369 39.9338 9.81964 39.9391 9.84558C39.9858 10.0694 40.0225 10.2954 40.0495 10.5236C40.0655 10.659 40.078 10.7953 40.0868 10.9322C40.0946 11.0522 40.0999 11.1726 40.1024 11.2932C40.1037 11.3583 40.1043 11.4236 40.1043 11.4886C40.1043 11.5518 40.1031 11.6152 40.1015 11.6787C40.0517 13.5956 39.3351 15.5684 37.9741 17.2243C37.7684 17.4747 37.5478 17.7179 37.3123 17.9526C37.2707 17.9942 37.2283 18.0355 37.186 18.0761C37.1735 18.088 37.1613 18.0999 37.1487 18.1118C37.1167 18.1421 37.0848 18.1721 37.0528 18.2021C37.0406 18.2134 37.0284 18.2249 37.0161 18.2362C36.9732 18.2756 36.9299 18.315 36.8864 18.3534C36.8839 18.3556 36.881 18.3581 36.8785 18.3603C36.8375 18.3965 36.7961 18.4325 36.7547 18.4681C36.7419 18.4794 36.7287 18.4903 36.7155 18.5013C36.6823 18.5294 36.6488 18.5572 36.6152 18.585C36.6027 18.5954 36.5905 18.6057 36.5779 18.6157C36.5334 18.6519 36.4886 18.6882 36.4434 18.7235C36.4384 18.7273 36.4334 18.7313 36.4287 18.7351C36.3883 18.7667 36.3478 18.7982 36.3071 18.8292C36.2933 18.8395 36.2798 18.8498 36.266 18.8601C36.2315 18.8861 36.1967 18.9117 36.1623 18.937C35.9532 19.0899 35.74 19.2331 35.5234 19.3666C35.7798 19.4119 36.0366 19.4685 36.293 19.5354C36.3369 19.5469 36.3811 19.5588 36.4249 19.571C36.4554 19.5794 36.4858 19.5879 36.5159 19.5963C36.561 19.6091 36.6061 19.6226 36.6516 19.6363C36.6804 19.6451 36.7093 19.6535 36.7381 19.6626C36.7873 19.6779 36.8368 19.6942 36.886 19.7101C36.9105 19.7182 36.9349 19.7257 36.9594 19.7342C37.0327 19.7589 37.1061 19.7845 37.1794 19.8111H37.1798C38.301 20.2181 39.2978 20.8042 40.1419 21.5169C41.7688 22.8908 42.828 24.7355 43.116 26.6746C43.1286 26.7587 43.1396 26.8428 43.1493 26.9269C43.1505 26.9375 43.1518 26.9484 43.153 26.9591C43.1628 27.0472 43.1706 27.1357 43.1772 27.2242C43.1778 27.231 43.1781 27.2379 43.1787 27.2448C43.185 27.3373 43.1897 27.4298 43.1928 27.5224C43.1928 27.5252 43.1928 27.5283 43.1928 27.5311C43.2189 28.4083 43.0841 29.2936 42.7706 30.1529C42.2058 31.7003 41.1425 32.9401 39.7893 33.7895C38.4571 34.626 36.8434 35.0839 35.1485 35.0839C34.0558 35.0839 32.9292 34.8936 31.8221 34.4919C31.8221 34.4919 31.8221 34.4919 31.8218 34.4919C31.7553 34.4678 31.6898 34.4428 31.6243 34.4175C31.6039 34.4097 31.5836 34.4015 31.5632 34.3934C31.5171 34.3753 31.4713 34.3568 31.4256 34.3381C31.4036 34.329 31.3814 34.3199 31.3594 34.3106C31.3124 34.2909 31.2657 34.2705 31.219 34.2502C31.2011 34.2424 31.1833 34.2349 31.1654 34.2268C31.1021 34.1987 31.0391 34.1699 30.977 34.1405C30.966 34.1355 30.9554 34.1302 30.9444 34.1249C30.8927 34.1002 30.8413 34.0755 30.7902 34.0502C30.7698 34.0402 30.7498 34.0298 30.7297 34.0195C30.6871 33.998 30.6448 33.9761 30.6024 33.9542C30.5821 33.9436 30.5617 33.9329 30.5413 33.922C30.4943 33.897 30.4476 33.8717 30.4012 33.8457C30.3877 33.8382 30.3742 33.831 30.3608 33.8235C30.3015 33.7904 30.2429 33.7566 30.1846 33.7226C30.1699 33.7138 30.1551 33.7051 30.1407 33.6963C30.0968 33.6704 30.0533 33.6438 30.01 33.6172C29.9906 33.6053 29.9711 33.5931 29.9517 33.5809C29.9119 33.5559 29.8724 33.5309 29.8329 33.5053C29.8147 33.4934 29.7965 33.4819 29.7784 33.47C29.7288 33.4375 29.6796 33.4046 29.631 33.3715C29.6244 33.3671 29.6179 33.3628 29.6113 33.3584C29.5564 33.3205 29.5019 33.2824 29.448 33.2436C29.432 33.2321 29.4163 33.2205 29.4006 33.209C29.3621 33.1808 29.3238 33.1527 29.2859 33.1242C29.2677 33.1105 29.2495 33.097 29.2317 33.0833C29.1941 33.0548 29.1571 33.0258 29.1201 32.9967C29.1047 32.9845 29.0891 32.9723 29.0737 32.9601C29.0223 32.9192 28.9712 32.8779 28.9207 32.836C28.916 32.8319 28.911 32.8279 28.9063 32.8238C28.8605 32.7857 28.8154 32.7475 28.7709 32.7088C28.7552 32.695 28.7395 32.6813 28.7239 32.6675C28.6894 32.6375 28.6555 32.6069 28.6217 32.5766C28.6054 32.5619 28.5888 32.5469 28.5728 32.5318C28.5371 32.499 28.5016 32.4659 28.4665 32.4328C28.4543 32.4212 28.4418 32.4096 28.4295 32.3977C28.3828 32.353 28.3368 32.308 28.2913 32.2627C28.2816 32.253 28.2719 32.243 28.2621 32.2333C28.2261 32.1971 28.1904 32.1605 28.1553 32.1239C28.1405 32.1086 28.1258 32.093 28.1111 32.0773C28.0803 32.0448 28.0499 32.0123 28.0195 31.9792C28.0051 31.9635 27.9907 31.9479 27.9766 31.9323C27.9415 31.8935 27.907 31.8548 27.8725 31.8154C27.8647 31.8063 27.8565 31.7975 27.8487 31.7885C27.807 31.7403 27.7659 31.6919 27.7252 31.6431C27.7142 31.6297 27.7033 31.6162 27.6923 31.6028C27.6625 31.5665 27.633 31.5303 27.6039 31.4937C27.5904 31.4768 27.5772 31.4599 27.5638 31.4431C27.5362 31.408 27.5089 31.3727 27.4819 31.3371C27.47 31.3214 27.4578 31.3055 27.4462 31.2899C27.1588 30.9066 26.9058 30.5046 26.6905 30.0882C26.7268 30.5659 26.7826 31.0379 26.8563 31.504C26.8566 31.5068 26.8569 31.5093 26.8572 31.5118C26.861 31.5362 26.8654 31.5606 26.8694 31.585C26.8742 31.6137 26.8789 31.6422 26.8836 31.6709C26.8908 31.7135 26.898 31.7557 26.9055 31.7979C26.9102 31.8251 26.9149 31.8522 26.9199 31.8791C26.9281 31.9248 26.9368 31.9707 26.9453 32.0164C26.9497 32.0398 26.9541 32.0629 26.9585 32.0864C26.9704 32.1477 26.9826 32.2089 26.9951 32.2699C26.9967 32.2774 26.9983 32.2852 26.9998 32.2927C27.014 32.3612 27.0287 32.4296 27.0434 32.4981C27.0481 32.519 27.0528 32.5397 27.0575 32.5606C27.0682 32.6081 27.0785 32.6553 27.0895 32.7025C27.0955 32.7285 27.1017 32.7544 27.108 32.7804C27.118 32.8223 27.1277 32.8641 27.1381 32.906C27.145 32.9339 27.1519 32.9617 27.1588 32.9895C27.1688 33.0295 27.1788 33.0695 27.1892 33.1095C27.1964 33.138 27.2039 33.1661 27.2114 33.1946C27.2218 33.234 27.2321 33.273 27.2428 33.3121C27.2503 33.3406 27.2581 33.3687 27.266 33.3971C27.2769 33.4365 27.2879 33.4759 27.2989 33.5153C27.3067 33.5428 27.3146 33.5706 27.3224 33.5981C27.334 33.6385 27.3459 33.6788 27.3578 33.7191C27.3657 33.7454 27.3732 33.7716 27.3813 33.7979C27.3945 33.8417 27.408 33.8851 27.4215 33.9286C27.4283 33.9511 27.4352 33.9736 27.4421 33.9961C27.4609 34.0558 27.4801 34.1155 27.4995 34.1749C27.5014 34.1811 27.5033 34.1871 27.5055 34.1933C27.5271 34.259 27.5487 34.3243 27.571 34.3897C27.5779 34.41 27.5851 34.4303 27.592 34.4506C27.6073 34.4953 27.623 34.5403 27.6387 34.585C27.6475 34.61 27.6565 34.635 27.6656 34.6601C27.6801 34.6998 27.6942 34.7395 27.7089 34.7792C27.7186 34.8057 27.7286 34.8326 27.7387 34.8592C27.7528 34.8973 27.7672 34.9351 27.7816 34.973C27.792 35.0002 27.8023 35.0271 27.813 35.0542C27.8274 35.0918 27.8421 35.129 27.8565 35.1662C27.8672 35.193 27.8778 35.2202 27.8885 35.2471C27.9036 35.2846 27.9186 35.3222 27.934 35.3594C27.9446 35.3856 27.9556 35.4122 27.9662 35.4384C27.9822 35.4769 27.9982 35.515 28.0145 35.5535C28.0252 35.5785 28.0355 35.6035 28.0462 35.6282C28.064 35.6698 28.0819 35.711 28.1001 35.7523C28.1095 35.7735 28.1186 35.7951 28.128 35.8164C28.1531 35.8733 28.1788 35.9302 28.2045 35.9867C28.207 35.9924 28.2095 35.998 28.212 36.0033C28.2402 36.0655 28.269 36.1271 28.2979 36.189C28.3073 36.2087 28.3167 36.2284 28.3261 36.2484C28.3458 36.2903 28.3659 36.3319 28.386 36.3737C28.3976 36.3978 28.4095 36.4216 28.4211 36.4456C28.4396 36.4832 28.4577 36.5204 28.4766 36.5579C28.4891 36.5832 28.5019 36.6082 28.5145 36.6332C28.5327 36.6692 28.5508 36.7048 28.5693 36.7407C28.5825 36.7664 28.5957 36.792 28.6091 36.8176C28.6273 36.8527 28.6458 36.8877 28.6643 36.9227C28.6778 36.9483 28.6916 36.9739 28.7051 36.9996C28.7239 37.0346 28.7427 37.0696 28.7618 37.1046C28.7753 37.1296 28.7891 37.1546 28.8026 37.1793C28.8223 37.2153 28.8424 37.2512 28.8624 37.2872C28.8756 37.3106 28.8888 37.3344 28.9019 37.3578C28.9239 37.3969 28.9464 37.4357 28.9687 37.4744C28.9803 37.4944 28.9916 37.5144 29.0032 37.5344C29.0351 37.5895 29.0674 37.6442 29.1 37.6989C29.1022 37.7026 29.1044 37.7061 29.1066 37.7098C29.1414 37.768 29.1765 37.8261 29.2119 37.8839C29.2235 37.9027 29.2351 37.9211 29.2467 37.9399C29.2709 37.979 29.295 38.0177 29.3191 38.0565C29.3332 38.079 29.3477 38.1015 29.3621 38.124C29.3843 38.1587 29.4063 38.1934 29.4285 38.2281C29.4439 38.2519 29.4593 38.2753 29.4746 38.2991C29.4962 38.3322 29.5182 38.3657 29.5401 38.3988C29.5561 38.4229 29.5721 38.4469 29.5881 38.4707C29.61 38.5035 29.632 38.536 29.6539 38.5685C29.6702 38.5923 29.6862 38.6164 29.7025 38.6401C29.7248 38.6726 29.7473 38.7055 29.7702 38.738C29.7865 38.7611 29.8025 38.7845 29.8188 38.8077C29.8423 38.8411 29.8661 38.8746 29.8899 38.9077C29.9056 38.9296 29.921 38.9515 29.9366 38.973C29.963 39.0093 29.9893 39.0456 30.0156 39.0818C30.0291 39.1003 30.0426 39.1187 30.0561 39.1372C30.094 39.1884 30.1319 39.2394 30.1705 39.2903C30.1727 39.2935 30.1752 39.2966 30.1774 39.2997C30.2181 39.3535 30.2592 39.4069 30.3003 39.4604C30.3137 39.4779 30.3275 39.4954 30.3413 39.5126C30.3692 39.5486 30.3974 39.5842 30.4256 39.6198C30.4419 39.6405 30.4589 39.6611 30.4752 39.682C30.5009 39.7142 30.5266 39.7461 30.5526 39.778C30.5705 39.7999 30.5883 39.8218 30.6062 39.8433C30.6313 39.874 30.6564 39.9046 30.6817 39.9349C30.7002 39.9571 30.7184 39.979 30.7369 40.0012C30.762 40.0312 30.7874 40.0612 30.8128 40.0909C30.8313 40.1128 30.8501 40.1347 30.8689 40.1566C30.8946 40.1866 30.9206 40.2163 30.9466 40.2463C30.9651 40.2675 30.9836 40.2888 31.0024 40.3101C31.0294 40.3407 31.0566 40.3713 31.0839 40.402C31.1018 40.422 31.1193 40.442 31.1372 40.4617C31.167 40.4948 31.1971 40.5279 31.2275 40.5608C31.2428 40.5776 31.2582 40.5945 31.2739 40.6114C31.3178 40.6592 31.3619 40.7064 31.4065 40.7536C31.4083 40.7555 31.4099 40.7574 31.4118 40.7593C31.4579 40.8083 31.5046 40.8571 31.5513 40.9056C31.567 40.9218 31.5826 40.9378 31.598 40.9537C31.6293 40.9862 31.661 41.0184 31.6926 41.0506C31.7111 41.0694 31.7299 41.0881 31.7488 41.1069C31.7779 41.136 31.8067 41.165 31.8359 41.1941C31.856 41.2138 31.876 41.2335 31.8958 41.2532C31.924 41.281 31.9525 41.3088 31.981 41.3363C32.0017 41.3563 32.0224 41.376 32.0431 41.396C32.0713 41.4232 32.0998 41.4501 32.1284 41.477C32.1494 41.4967 32.17 41.5164 32.191 41.5361C32.2199 41.5633 32.249 41.5902 32.2782 41.617C32.2989 41.6361 32.3196 41.6552 32.3403 41.6743C32.3707 41.7021 32.4011 41.7296 32.4315 41.7571C32.4512 41.7749 32.471 41.7927 32.4907 41.8106C32.5243 41.8406 32.5581 41.8703 32.592 41.9003C32.6089 41.9153 32.6258 41.9303 32.6427 41.945C32.6929 41.9887 32.7434 42.0325 32.7938 42.0756C32.7945 42.0763 32.7951 42.0766 32.7957 42.0772C30.0937 43.7612 26.9008 44.7343 23.48 44.7343C20.0592 44.7343 16.7695 43.7312 14.0421 41.9997C14.0433 41.9987 14.0443 41.9978 14.0455 41.9969H14.043Z" fill="#10D63F"/>
<path id="Vector_2" d="M17.2799 27.0131C18.9392 27.0131 20.2844 24.4698 20.2844 21.3325C20.2844 18.1952 18.9392 15.6519 17.2799 15.6519C15.6206 15.6519 14.2754 18.1952 14.2754 21.3325C14.2754 24.4698 15.6206 27.0131 17.2799 27.0131Z" fill="#10D63F"/>
<path id="Vector_3" d="M29.6783 27.0131C31.3377 27.0131 32.6828 24.4698 32.6828 21.3325C32.6828 18.1952 31.3377 15.6519 29.6783 15.6519C28.019 15.6519 26.6738 18.1952 26.6738 21.3325C26.6738 24.4698 28.019 27.0131 29.6783 27.0131Z" fill="#10D63F"/>
</g>
<defs>
<clipPath id="clip0_94_15371">
<rect width="46.9565" height="48.1159" fill="white" transform="translate(0 0.369629)"/>
</clipPath>
</defs>
</svg>
