<svg width="122" height="40" viewBox="0 0 122 40" fill="none" xmlns="http://www.w3.org/2000/svg">
<g clip-path="url(#clip0_15_33)">
<mask id="mask0_15_33" style="mask-type:luminance" maskUnits="userSpaceOnUse" x="0" y="0" width="122" height="40">
<path d="M122 0H0V40H122V0Z" fill="white"/>
</mask>
<g mask="url(#mask0_15_33)">
<path d="M41.884 19.3925C41.8516 18.5044 42 17.6189 42.3204 16.7892C42.6408 15.9595 43.1266 15.2028 43.7485 14.5645C44.3704 13.9262 45.1156 13.4194 45.9394 13.0747C46.7633 12.7299 47.6487 12.5543 48.5425 12.5583C51.9103 12.5583 53.9036 14.5231 54.505 16.8297L52.3915 17.5387C52.2055 16.6788 51.7139 15.9143 51.007 15.3855C50.3 14.8567 49.425 14.5991 48.5425 14.6598C46.3602 14.6598 44.178 16.2402 44.178 19.4352C44.178 22.6302 46.3087 24.1508 48.5682 24.1508C49.4556 24.1764 50.326 23.9049 51.0396 23.3797C51.7532 22.8545 52.2686 22.1062 52.5032 21.2548L54.5565 21.9212C54.205 23.221 53.4167 24.362 52.3226 25.1546C51.2285 25.9472 49.8945 26.3436 48.5425 26.2779C47.6406 26.2947 46.745 26.1261 45.9118 25.7825C45.0786 25.4389 44.3258 24.9279 43.7007 24.2814C43.0755 23.6349 42.5914 22.8669 42.2788 22.0256C41.9662 21.1843 41.8318 20.2879 41.884 19.3925Z" fill="white"/>
<path d="M58.6289 25.9619H56.4639V12.5241H58.6289V17.795C58.9443 17.4242 59.34 17.1294 59.7864 16.9326C60.2329 16.7358 60.7184 16.6422 61.2064 16.6588C63.4488 16.6588 64.5313 18.2563 64.5313 20.2468V25.9619H62.4264V20.6141C62.4659 20.354 62.4459 20.0883 62.3679 19.8369C62.2899 19.5855 62.156 19.3548 61.9761 19.1619C61.7961 18.9691 61.5748 18.819 61.3285 18.7228C61.0822 18.6267 60.8173 18.5869 60.5534 18.6066C60.2916 18.6068 60.0327 18.6611 59.793 18.766C59.5534 18.871 59.3383 19.0243 59.1614 19.2163C58.9845 19.4082 58.8497 19.6346 58.7654 19.8812C58.6811 20.1277 58.6493 20.3889 58.6719 20.6483L58.6289 25.9619Z" fill="white"/>
<path d="M69.3684 20.785L71.6967 20.4262C72.2208 20.3578 72.3668 20.093 72.3668 19.7769C72.3668 19.0166 71.8513 18.4015 70.6485 18.4015C70.4166 18.3817 70.183 18.409 69.962 18.4816C69.7409 18.5543 69.537 18.6708 69.3627 18.8242C69.1883 18.9776 69.0472 19.1646 68.9477 19.3739C68.8483 19.5832 68.7926 19.8104 68.7842 20.0417L66.8081 19.5975C66.9713 18.0342 68.3975 16.6417 70.6313 16.6417C73.4322 16.6417 74.4975 18.2221 74.4975 20.0588V24.5438C74.4926 25.0302 74.5299 25.5161 74.6092 25.996H72.5902C72.5209 25.6157 72.4921 25.2291 72.5043 24.8428C72.2027 25.3024 71.7857 25.6758 71.2945 25.926C70.8032 26.1762 70.2548 26.2946 69.7034 26.2694C69.3191 26.3008 68.9322 26.2544 68.5664 26.133C68.2006 26.0116 67.8633 25.8176 67.575 25.5629C67.2867 25.3081 67.0533 24.9979 66.889 24.651C66.7247 24.304 66.6329 23.9275 66.6191 23.5443C66.6191 21.8955 67.8133 21.0071 69.3684 20.785ZM72.3668 22.2372V21.8272L69.9956 22.1774C69.6733 22.1884 69.3677 22.3223 69.1422 22.5513C68.9166 22.7804 68.7884 23.087 68.7842 23.4076C68.7869 23.5731 68.8241 23.7362 68.8935 23.8866C68.9629 24.0371 69.063 24.1715 69.1873 24.2815C69.3117 24.3915 69.4577 24.4747 69.616 24.5257C69.7744 24.5767 69.9416 24.5945 70.1073 24.5779C70.4201 24.6097 70.7362 24.5701 71.0314 24.4622C71.3266 24.3544 71.5933 24.181 71.8111 23.9554C72.0289 23.7298 72.1921 23.4578 72.2884 23.1601C72.3847 22.8624 72.4115 22.5468 72.3668 22.2372Z" fill="white"/>
<path d="M78.1747 12.3362C78.3623 12.3339 78.5485 12.3687 78.7225 12.4386C78.8965 12.5084 79.0548 12.6118 79.1882 12.743C79.3217 12.8741 79.4277 13.0302 79.5 13.2024C79.5723 13.3745 79.6095 13.5592 79.6095 13.7458C79.6095 14.1173 79.4611 14.4737 79.1968 14.7364C78.9326 14.9992 78.5742 15.1468 78.2005 15.1468C77.8268 15.1468 77.4684 14.9992 77.2042 14.7364C76.9399 14.4737 76.7915 14.1173 76.7915 13.7458C76.7914 13.3778 76.936 13.0243 77.1945 12.7609C77.4529 12.4976 77.8047 12.3451 78.1747 12.3362ZM77.118 26.0046V16.9237H79.2573V25.9619L77.118 26.0046Z" fill="white"/>
<path d="M84.2232 25.9619H82.0581V16.9237H84.1716V18.1282C84.4459 17.6658 84.8404 17.2853 85.3135 17.0268C85.7867 16.7682 86.3212 16.6411 86.8608 16.6588C89.0774 16.6588 90.1427 18.2563 90.1427 20.2468V25.9619H87.9777V20.6141C87.9777 19.5036 87.4708 18.6066 86.1133 18.6066C85.8431 18.6082 85.5763 18.6667 85.3304 18.7781C85.0846 18.8895 84.8652 19.0514 84.6867 19.253C84.5082 19.4547 84.3746 19.6917 84.2947 19.9484C84.2148 20.205 84.1905 20.4756 84.2232 20.7423V25.9619Z" fill="white"/>
<path d="M92.7803 25.9619V12.5241H94.9453V25.9619H92.7803Z" fill="white"/>
<path d="M98.8115 12.3362C99.1875 12.3362 99.5481 12.4847 99.8139 12.7491C100.08 13.0134 100.229 13.3719 100.229 13.7458C100.227 14.0221 100.143 14.2918 99.9881 14.5209C99.8326 14.75 99.6125 14.9282 99.3554 15.0332C99.0982 15.1382 98.8157 15.1652 98.5431 15.1109C98.2706 15.0565 98.0203 14.9233 97.8238 14.7278C97.6273 14.5324 97.4933 14.2836 97.4386 14.0126C97.384 13.7416 97.4112 13.4607 97.5167 13.205C97.6223 12.9494 97.8016 12.7305 98.032 12.5759C98.2624 12.4213 98.5336 12.3379 98.8115 12.3362ZM97.7462 26.0046V16.9237H99.894V25.9619L97.7462 26.0046Z" fill="white"/>
<path d="M104.86 25.9619H102.695V16.9237H104.8V18.1282C105.075 17.667 105.47 17.2876 105.943 17.0292C106.416 16.7708 106.95 16.643 107.489 16.6588C109.714 16.6588 110.779 18.2563 110.779 20.2468V25.9619H108.614V20.6141C108.654 20.354 108.634 20.0883 108.556 19.8369C108.478 19.5855 108.344 19.3548 108.164 19.1619C107.984 18.9691 107.763 18.819 107.516 18.7228C107.27 18.6267 107.005 18.5869 106.741 18.6066C106.472 18.6081 106.205 18.6665 105.96 18.778C105.714 18.8895 105.495 19.0515 105.317 19.2534C105.139 19.4552 105.007 19.6923 104.928 19.949C104.849 20.2057 104.826 20.476 104.86 20.7423V25.9619Z" fill="white"/>
<path d="M118.185 20.7423L122 25.9619H119.345L116.673 22.2372L115.556 23.4076V25.9704H113.408V12.5241H115.556V20.5799L119.045 16.9237H121.923L118.185 20.7423Z" fill="white"/>
<path d="M16.2294 8.89348L25.5942 14.2412V24.9794L16.2552 30.3614L6.89042 25.0222V14.2839L16.2294 8.89348ZM16.2294 1L12.7928 2.98191L3.43662 8.37238L0 10.3543V14.301V25.0307V28.9774L3.43662 30.9423L12.8014 36.29L16.238 38.2548L19.6747 36.2729L29.0137 30.8825L32.4503 28.9091V24.9624V14.2241V10.2774L29.0137 8.31258L19.6489 2.96483L16.2123 1H16.2294Z" fill="white"/>
</g>
</g>
<defs>
<clipPath id="clip0_15_33">
<rect width="122" height="40" fill="white"/>
</clipPath>
</defs>
</svg>
