<svg width="97" height="40" viewBox="0 0 97 40" fill="none" xmlns="http://www.w3.org/2000/svg">
<path d="M18.0094 20.901L24.791 14.1557C25.3006 13.6531 25.5862 12.9607 25.5862 12.246L25.5974 6.79609C25.5974 6.5169 25.491 6.24887 25.295 6.04785L12.2863 18.9969C11.2279 20.0411 11.2223 21.7442 12.2695 22.7939C12.2751 22.7995 12.2807 22.8051 12.2863 22.8107L21.459 31.9292C22.5174 32.979 24.231 32.9734 25.2782 31.918C26.331 30.8627 26.3254 29.154 25.267 28.1098L18.0094 20.901Z" fill="#A8A8A8"/>
<path d="M24.5434 5.76444H4.10355C2.45157 5.76444 1.23078 7.00964 1.23078 8.70715V29.9706C1.20838 31.4615 2.41237 32.69 3.90755 32.7123C3.92995 32.7123 3.95795 32.7123 3.97475 32.7123C5.46434 32.7402 6.69633 31.5508 6.72433 30.0655C6.72433 30.032 6.72433 29.9985 6.72433 29.9762V11.0077H20.321L25.2994 6.06597C25.0978 5.86495 24.829 5.75327 24.5434 5.76444Z" fill="white"/>
<path d="M35.9577 12.7759V16.4557H34.3281V6.72852H38.7129C41.0369 6.72852 42.2017 7.82296 42.2017 9.49813C42.2017 10.922 41.1713 11.9215 39.6649 12.2007C40.1185 12.2677 40.4657 12.3738 40.7625 12.5749C41.3113 12.9322 41.6025 13.5855 41.9273 14.7079L42.4201 16.4557H40.6841L40.2305 14.7358C39.8161 13.1221 39.4129 12.7759 37.7049 12.7759H35.9577ZM35.9577 8.14124V11.5921H38.2425C39.7377 11.5921 40.5833 10.9276 40.5833 9.82199C40.5833 8.75547 39.9169 8.14124 38.3097 8.14124H35.9577Z" fill="#F8FCFC"/>
<path d="M47.2067 16.5906C44.6251 16.5906 43.3203 14.9489 43.3203 12.7656C43.3203 10.6493 44.7651 8.8457 47.1563 8.8457C49.5867 8.8457 50.7403 10.5767 50.7403 12.6037V13.1621H44.8939C45.0115 14.4519 45.7899 15.2393 47.1787 15.2393C48.1811 15.2393 48.7579 14.8261 49.1947 14.0555L50.5443 14.8037C49.9227 15.8312 48.8811 16.5906 47.2067 16.5906ZM44.9107 12.1514H49.1499C49.0827 11.0067 48.4835 10.1803 47.1451 10.1803C45.8739 10.1803 45.0955 10.9229 44.9107 12.1514Z" fill="#F8FCFC"/>
<path d="M55.4811 8.90137C56.7131 8.90137 57.5419 9.44859 58.0066 10.5151V8.99071H59.6082V19.3321H57.9898V14.8929C57.4802 15.9594 56.5619 16.5457 55.3411 16.5457C53.5659 16.5457 52.1211 15.2782 52.1211 12.7598C52.1267 10.1912 53.7731 8.90137 55.4811 8.90137ZM58.1298 12.7096C58.1298 11.2578 57.4635 10.1912 55.9403 10.1912C54.5515 10.1912 53.7731 11.2019 53.7731 12.7375C53.7731 14.2842 54.5067 15.2167 55.9403 15.2167C57.4467 15.2167 58.1298 14.1502 58.1298 12.7096Z" fill="#F8FCFC"/>
<path d="M68.509 16.4559H66.8906V14.6858C66.3811 15.9645 65.4627 16.6067 64.3091 16.6067C62.4891 16.6067 61.6211 15.395 61.6211 13.569V8.99023H63.2395V13.1223C63.2395 14.4122 63.6819 15.2386 64.9755 15.2386C66.1403 15.2386 66.8739 14.2503 66.8739 12.6421V8.99023H68.5034L68.509 16.4559Z" fill="#F8FCFC"/>
<path d="M74.1247 16.5906C71.5431 16.5906 70.2383 14.9489 70.2383 12.7656C70.2383 10.6493 71.6831 8.8457 74.0742 8.8457C76.5046 8.8457 77.6582 10.5767 77.6582 12.6037V13.1621H71.8175C71.9351 14.4519 72.7135 15.2393 74.1022 15.2393C75.1046 15.2393 75.6814 14.8261 76.1182 14.0555L77.4678 14.8037C76.835 15.8312 75.7934 16.5906 74.1247 16.5906ZM71.8231 12.1514H76.0622C75.995 11.0067 75.3958 10.1803 74.0574 10.1803C72.7863 10.1803 72.0135 10.9229 71.8231 12.1514Z" fill="#F8FCFC"/>
<path d="M79.9416 14.016C80.5576 14.8312 81.3192 15.2556 82.428 15.2556C83.4864 15.2556 83.9232 14.7475 83.9232 14.217C83.9232 13.4464 82.7752 13.3794 81.3976 13.1505C80.0368 12.9383 79.0456 12.486 79.0456 11.1514C79.0456 9.84482 80.1432 8.81738 82.0136 8.81738C83.5368 8.81738 84.6064 9.28643 85.5024 10.3474L84.2592 11.4027C83.6824 10.5763 82.9656 10.1743 81.9184 10.1743C80.8768 10.1743 80.4624 10.6433 80.4624 11.1626C80.4624 11.8439 81.3304 11.9779 82.6016 12.1621C84.0576 12.3743 85.368 12.7205 85.368 14.217C85.368 15.5906 84.2592 16.6181 82.3888 16.6181C80.692 16.6181 79.5048 16.0429 78.7656 15.1272L79.9416 14.016Z" fill="#F8FCFC"/>
<path d="M91.7095 16.2941C91.3231 16.4783 90.9087 16.5844 90.3488 16.5844C88.7304 16.5844 88.0752 15.7301 88.0752 14.0773V10.3193H86.3672V8.99034H88.092V7.08623L89.604 6.18164V8.99034H91.7151V10.3249H89.604V13.8986C89.604 14.859 89.9904 15.2052 90.7239 15.2052C91.1271 15.2052 91.3679 15.1382 91.7151 14.993L91.7095 16.2941Z" fill="#F8FCFC"/>
<path d="M35.9073 33.0133H34.3281V23.2861H36.2657L40.5049 30.3777L40.9193 31.2711L40.8633 30.3107V23.2861H42.4425V33.0133H40.6225L36.2377 25.6425L35.8121 24.844L35.9073 25.7654V33.0133Z" fill="#F8FCFC"/>
<path d="M48.109 33.1462C45.5274 33.1462 44.2227 31.5046 44.2227 29.3213C44.2227 27.205 45.6674 25.4014 48.0586 25.4014C50.489 25.4014 51.6426 27.1324 51.6426 29.1593V29.7177H45.7962C45.9138 31.0076 46.6922 31.7949 48.081 31.7949C49.0834 31.7949 49.6602 31.3817 50.097 30.6111L51.4466 31.3594C50.825 32.3868 49.7778 33.1462 48.109 33.1462ZM45.813 28.707H50.0522C49.985 27.5623 49.3858 26.7359 48.0474 26.7359C46.7706 26.7359 45.9978 27.4842 45.813 28.707Z" fill="#F8FCFC"/>
<path d="M57.8619 32.8556C57.4755 33.0399 57.0611 33.1515 56.5011 33.1515C54.8827 33.1515 54.2275 32.2972 54.2275 30.6444V26.8864H52.5195V25.5519H54.2443V23.6478L55.7563 22.7432V25.5574H57.8675V26.892H55.7563V30.4657C55.7563 31.4261 56.1427 31.7723 56.8763 31.7723C57.2795 31.7723 57.5203 31.7053 57.8675 31.5601L57.8619 32.8556Z" fill="#F8FCFC"/>
<path d="M62.9618 33.0118H60.957L59.0586 25.5518H60.7274L62.0098 31.0407L62.1722 32.0123L62.385 31.0407L64.0146 25.5518H65.3249L66.9153 31.0296L67.1001 32.0402L67.2737 31.0407L68.6793 25.5518H70.3257L68.2425 33.0118H66.3049L64.8489 27.8132L64.6641 27.0147L64.4905 27.83L62.9618 33.0118Z" fill="#F8FCFC"/>
<path d="M71.2812 29.2834C71.2812 27.0834 72.7092 25.4082 75.1172 25.4082C77.5644 25.4082 78.942 27.1113 78.942 29.2834C78.942 31.4444 77.514 33.1475 75.1172 33.1475C72.6476 33.1475 71.2812 31.5114 71.2812 29.2834ZM77.2844 29.2834C77.2844 27.7758 76.618 26.7539 75.1172 26.7539C73.6444 26.7539 72.9388 27.8204 72.9388 29.2834C72.9388 30.7632 73.5828 31.7738 75.1172 31.7738C76.6292 31.7738 77.2844 30.752 77.2844 29.2834Z" fill="#F8FCFC"/>
<path d="M85.6771 25.7376L85.2235 27.2174C84.8651 26.9884 84.4619 26.8823 83.9523 26.8823C83.0171 26.8823 82.3059 27.6529 82.3059 29.2276V33.0134H80.6875V25.5534H82.3059V27.3514C82.6419 26.0447 83.2803 25.4473 84.3779 25.4473C84.9267 25.4473 85.3411 25.5534 85.6771 25.7376Z" fill="#F8FCFC"/>
<path d="M88.6218 29.7629L92.1217 25.5526H94.0033L91.1698 28.8695L94.1769 33.0127H92.2505L89.8426 29.5339L88.6106 30.9467V33.0127H86.9922V22.4033H88.6106V29.7629H88.6218Z" fill="#F8FCFC"/>
</svg>
