<svg width="208" height="48" viewBox="0 0 208 48" fill="none" xmlns="http://www.w3.org/2000/svg">
<path d="M13.9729 35.2826V11.4244H21.9395V5.66841H0V11.4244H7.88321V35.2826H13.9729ZM30.9072 35.2826V25.1053C30.9072 21.1011 32.9093 19.1825 35.537 19.1825C37.9145 19.1825 39.2075 21.0177 39.2075 24.0209V35.2826H44.9218V23.0615C44.9218 17.6392 41.9187 13.9687 36.8718 13.9687C34.1606 13.9687 31.9917 15.1366 30.9072 16.805V4H25.1929V35.2826H30.9072ZM59.7706 35.7414C65.0678 35.7414 69.1971 32.6966 70.4484 28.4838H64.4838C63.8165 29.902 62.0647 30.7779 60.0626 30.7779C56.5172 30.7779 54.682 28.6507 54.4317 26.1898H70.6987C70.9906 18.3483 65.9437 13.9687 59.8123 13.9687C53.4724 13.9687 48.8426 18.5985 48.8426 24.8133C48.8426 31.1533 53.389 35.7414 59.7706 35.7414ZM64.4421 22.4359H54.6403C55.1825 20.1418 57.0177 18.5985 59.6455 18.5985C61.6058 18.5985 63.7331 19.6413 64.4421 22.4359ZM98.8113 35.7831C107.612 35.7831 114.745 29.7351 113.41 17.5558H98.1022V23.2284H107.153C106.486 27.316 103.608 29.9437 98.8113 29.9437C93.0553 29.9437 89.3014 25.7727 89.3014 20.4755C89.3014 15.1783 93.0553 11.0073 98.7279 11.0073C101.564 11.0073 104.317 12.2586 105.777 14.4275H112.701C110.699 8.83837 104.943 5.16788 98.7279 5.16788C89.7602 5.16788 83.2117 11.8832 83.2117 20.4755C83.2117 29.0678 89.7602 35.7831 98.8113 35.7831ZM123.379 35.2826V25.3139C123.379 21.8936 125.172 19.7664 127.883 19.7664C128.801 19.7664 129.593 19.9333 130.469 20.2252V14.4275C129.76 14.219 129.135 14.1773 128.551 14.1773C126.215 14.1773 124.088 15.7205 123.379 17.7643V14.4275H117.664V35.2826H123.379ZM141.856 35.7414C144.734 35.7414 146.945 34.2815 147.862 32.9468V35.2826H153.577V14.4275H147.862V16.7633C146.945 15.4286 144.734 13.9687 141.856 13.9687C136.309 13.9687 132.054 18.9322 132.054 24.8551C132.054 30.7779 136.309 35.7414 141.856 35.7414ZM143.066 30.5276C139.937 30.5276 137.81 28.1084 137.81 24.8551C137.81 21.6017 139.937 19.1825 143.066 19.1825C146.194 19.1825 148.321 21.6017 148.321 24.8551C148.321 28.1084 146.194 30.5276 143.066 30.5276ZM164.838 44V32.9468C165.798 34.2815 168.008 35.7414 170.886 35.7414C176.434 35.7414 180.688 30.7779 180.688 24.8551C180.688 18.9322 176.434 13.9687 170.886 13.9687C168.008 13.9687 165.798 15.4286 164.838 16.7633V14.4275H159.124V44H164.838ZM169.635 30.5276C166.507 30.5276 164.38 28.1084 164.38 24.8551C164.38 21.6017 166.507 19.1825 169.635 19.1825C172.763 19.1825 174.891 21.6017 174.891 24.8551C174.891 28.1084 172.763 30.5276 169.635 30.5276ZM190.574 35.2826V25.1053C190.574 21.1011 192.576 19.1825 195.203 19.1825C197.581 19.1825 198.874 21.0177 198.874 24.0209V35.2826H204.588V23.0615C204.588 17.6392 201.585 13.9687 196.538 13.9687C193.827 13.9687 191.658 15.1366 190.574 16.805V4H184.859V35.2826H190.574Z" fill="white"/>
</svg>
